<svg xmlns="http://www.w3.org/2000/svg" xmlns:xlink="http://www.w3.org/1999/xlink" contentStyleType="text/css" data-diagram-type="CLASS" height="718px" preserveAspectRatio="none" style="width:633px;height:718px;background:#FFFFFF;" version="1.1" viewBox="0 0 633 718" width="633px" zoomAndPan="magnify"><defs/><g><!--class Book--><g class="entity" data-entity="Book" data-source-line="1" data-uid="ent0002" id="entity_Book"><rect fill="#F1F1F1" height="292.4531" rx="2.5" ry="2.5" style="stroke:#181818;stroke-width:0.5;" width="194.1025" x="220" y="262"/><ellipse cx="295.3799" cy="278" fill="#ADD1B2" rx="11" ry="11" style="stroke:#181818;stroke-width:1;"/><path d="M298.3486,283.6406 Q297.7705,283.9375 297.1299,284.0781 Q296.4893,284.2344 295.7861,284.2344 Q293.2861,284.2344 291.958,282.5938 Q290.6455,280.9375 290.6455,277.8125 Q290.6455,274.6875 291.958,273.0313 Q293.2861,271.375 295.7861,271.375 Q296.4893,271.375 297.1299,271.5313 Q297.7861,271.6875 298.3486,271.9844 L298.3486,274.7031 Q297.7236,274.125 297.1299,273.8594 Q296.5361,273.5781 295.9111,273.5781 Q294.5674,273.5781 293.8799,274.6563 Q293.1924,275.7188 293.1924,277.8125 Q293.1924,279.9063 293.8799,280.9844 Q294.5674,282.0469 295.9111,282.0469 Q296.5361,282.0469 297.1299,281.7813 Q297.7236,281.5 298.3486,280.9219 L298.3486,283.6406 Z " fill="#000000"/><text fill="#000000" font-family="sans-serif" font-size="14" lengthAdjust="spacing" textLength="34.8428" x="315.8799" y="282.8467">Book</text><line style="stroke:#181818;stroke-width:0.5;" x1="221" x2="413.1025" y1="294" y2="294"/><rect fill="none" height="6" style="stroke:#C82930;stroke-width:1;" width="6" x="228" y="304.6484"/><text fill="#000000" font-family="sans-serif" font-size="14" lengthAdjust="spacing" textLength="57.5859" x="240" y="310.9951">Id: UUID</text><rect fill="none" height="6" style="stroke:#C82930;stroke-width:1;" width="6" x="228" y="320.9453"/><text fill="#000000" font-family="sans-serif" font-size="14" lengthAdjust="spacing" textLength="84.041" x="240" y="327.292">ISBN: String</text><rect fill="none" height="6" style="stroke:#C82930;stroke-width:1;" width="6" x="228" y="337.2422"/><text fill="#000000" font-family="sans-serif" font-size="14" lengthAdjust="spacing" textLength="81.3818" x="240" y="343.5889">Title: String</text><rect fill="none" height="6" style="stroke:#C82930;stroke-width:1;" width="6" x="228" y="353.5391"/><text fill="#000000" font-family="sans-serif" font-size="14" lengthAdjust="spacing" textLength="130.6826" x="240" y="359.8857">Description: String</text><rect fill="none" height="6" style="stroke:#C82930;stroke-width:1;" width="6" x="228" y="369.8359"/><text fill="#000000" font-family="sans-serif" font-size="14" lengthAdjust="spacing" textLength="168.1025" x="240" y="376.1826">PublicationYear: Integer</text><rect fill="none" height="6" style="stroke:#C82930;stroke-width:1;" width="6" x="228" y="386.1328"/><text fill="#000000" font-family="sans-serif" font-size="14" lengthAdjust="spacing" textLength="135.625" x="240" y="392.4795">PageCount: Integer</text><rect fill="none" height="6" style="stroke:#C82930;stroke-width:1;" width="6" x="228" y="402.4297"/><text fill="#000000" font-family="sans-serif" font-size="14" lengthAdjust="spacing" textLength="109.1221" x="240" y="408.7764">Weight: Integer</text><rect fill="none" height="6" style="stroke:#C82930;stroke-width:1;" width="6" x="228" y="418.7266"/><text fill="#000000" font-family="sans-serif" font-size="14" lengthAdjust="spacing" textLength="100.6523" x="240" y="425.0732">Price: Decimal</text><rect fill="none" height="6" style="stroke:#C82930;stroke-width:1;" width="6" x="228" y="435.0234"/><text fill="#000000" font-family="sans-serif" font-size="14" lengthAdjust="spacing" textLength="156.8164" x="240" y="441.3701">CoverImageUrl: Byte[]</text><rect fill="none" height="6" style="stroke:#C82930;stroke-width:1;" width="6" x="228" y="451.3203"/><text fill="#000000" font-family="sans-serif" font-size="14" lengthAdjust="spacing" textLength="148.1006" x="240" y="457.667">CreatedAt: DateTime</text><rect fill="none" height="6" style="stroke:#C82930;stroke-width:1;" width="6" x="228" y="467.6172"/><text fill="#000000" font-family="sans-serif" font-size="14" lengthAdjust="spacing" textLength="151.9766" x="240" y="473.9639">UpdatedAt: DateTime</text><line style="stroke:#181818;stroke-width:0.5;" x1="221" x2="413.1025" y1="481.2656" y2="481.2656"/><ellipse cx="231" cy="494.9141" fill="#84BE84" rx="3" ry="3" style="stroke:#038048;stroke-width:1;"/><text fill="#000000" font-family="sans-serif" font-size="14" lengthAdjust="spacing" textLength="101.5205" x="240" y="498.2607">ValidateISBN()</text><ellipse cx="231" cy="511.2109" fill="#84BE84" rx="3" ry="3" style="stroke:#038048;stroke-width:1;"/><text fill="#000000" font-family="sans-serif" font-size="14" lengthAdjust="spacing" textLength="142.3857" x="240" y="514.5576">UpdateParameters()</text><ellipse cx="231" cy="527.5078" fill="#84BE84" rx="3" ry="3" style="stroke:#038048;stroke-width:1;"/><text fill="#000000" font-family="sans-serif" font-size="14" lengthAdjust="spacing" textLength="96.0244" x="240" y="530.8545">UpdatePrice()</text><ellipse cx="231" cy="543.8047" fill="#84BE84" rx="3" ry="3" style="stroke:#038048;stroke-width:1;"/><text fill="#000000" font-family="sans-serif" font-size="14" lengthAdjust="spacing" textLength="131.1201" x="240" y="547.1514">CheckAvailability()</text></g><!--class Author--><g class="entity" data-entity="Author" data-source-line="19" data-uid="ent0003" id="entity_Author"><rect fill="#F1F1F1" height="145.7813" rx="2.5" ry="2.5" style="stroke:#181818;stroke-width:0.5;" width="177.9766" x="7" y="335"/><ellipse cx="68.1714" cy="351" fill="#ADD1B2" rx="11" ry="11" style="stroke:#181818;stroke-width:1;"/><path d="M71.1401,356.6406 Q70.562,356.9375 69.9214,357.0781 Q69.2808,357.2344 68.5776,357.2344 Q66.0776,357.2344 64.7495,355.5938 Q63.437,353.9375 63.437,350.8125 Q63.437,347.6875 64.7495,346.0313 Q66.0776,344.375 68.5776,344.375 Q69.2808,344.375 69.9214,344.5313 Q70.5776,344.6875 71.1401,344.9844 L71.1401,347.7031 Q70.5151,347.125 69.9214,346.8594 Q69.3276,346.5781 68.7026,346.5781 Q67.3589,346.5781 66.6714,347.6563 Q65.9839,348.7188 65.9839,350.8125 Q65.9839,352.9063 66.6714,353.9844 Q67.3589,355.0469 68.7026,355.0469 Q69.3276,355.0469 69.9214,354.7813 Q70.5151,354.5 71.1401,353.9219 L71.1401,356.6406 Z " fill="#000000"/><text fill="#000000" font-family="sans-serif" font-size="14" lengthAdjust="spacing" textLength="47.1338" x="88.6714" y="355.8467">Author</text><line style="stroke:#181818;stroke-width:0.5;" x1="8" x2="183.9766" y1="367" y2="367"/><rect fill="none" height="6" style="stroke:#C82930;stroke-width:1;" width="6" x="15" y="377.6484"/><text fill="#000000" font-family="sans-serif" font-size="14" lengthAdjust="spacing" textLength="57.5859" x="27" y="383.9951">Id: UUID</text><rect fill="none" height="6" style="stroke:#C82930;stroke-width:1;" width="6" x="15" y="393.9453"/><text fill="#000000" font-family="sans-serif" font-size="14" lengthAdjust="spacing" textLength="122.7324" x="27" y="400.292">FirstName: String</text><rect fill="none" height="6" style="stroke:#C82930;stroke-width:1;" width="6" x="15" y="410.2422"/><text fill="#000000" font-family="sans-serif" font-size="14" lengthAdjust="spacing" textLength="121.4131" x="27" y="416.5889">LastName: String</text><rect fill="none" height="6" style="stroke:#C82930;stroke-width:1;" width="6" x="15" y="426.5391"/><text fill="#000000" font-family="sans-serif" font-size="14" lengthAdjust="spacing" textLength="148.1006" x="27" y="432.8857">CreatedAt: DateTime</text><rect fill="none" height="6" style="stroke:#C82930;stroke-width:1;" width="6" x="15" y="442.8359"/><text fill="#000000" font-family="sans-serif" font-size="14" lengthAdjust="spacing" textLength="151.9766" x="27" y="449.1826">UpdatedAt: DateTime</text><line style="stroke:#181818;stroke-width:0.5;" x1="8" x2="183.9766" y1="456.4844" y2="456.4844"/><ellipse cx="18" cy="470.1328" fill="#84BE84" rx="3" ry="3" style="stroke:#038048;stroke-width:1;"/><text fill="#000000" font-family="sans-serif" font-size="14" lengthAdjust="spacing" textLength="101.8828" x="27" y="473.4795">GetFullName()</text></g><!--class Genre--><g class="entity" data-entity="Genre" data-source-line="28" data-uid="ent0004" id="entity_Genre"><rect fill="#F1F1F1" height="145.7813" rx="2.5" ry="2.5" style="stroke:#181818;stroke-width:0.5;" width="177.9766" x="449" y="335"/><ellipse cx="512.3862" cy="351" fill="#ADD1B2" rx="11" ry="11" style="stroke:#181818;stroke-width:1;"/><path d="M515.355,356.6406 Q514.7769,356.9375 514.1362,357.0781 Q513.4956,357.2344 512.7925,357.2344 Q510.2925,357.2344 508.9644,355.5938 Q507.6519,353.9375 507.6519,350.8125 Q507.6519,347.6875 508.9644,346.0313 Q510.2925,344.375 512.7925,344.375 Q513.4956,344.375 514.1362,344.5313 Q514.7925,344.6875 515.355,344.9844 L515.355,347.7031 Q514.73,347.125 514.1362,346.8594 Q513.5425,346.5781 512.9175,346.5781 Q511.5737,346.5781 510.8862,347.6563 Q510.1987,348.7188 510.1987,350.8125 Q510.1987,352.9063 510.8862,353.9844 Q511.5737,355.0469 512.9175,355.0469 Q513.5425,355.0469 514.1362,354.7813 Q514.73,354.5 515.355,353.9219 L515.355,356.6406 Z " fill="#000000"/><text fill="#000000" font-family="sans-serif" font-size="14" lengthAdjust="spacing" textLength="42.7041" x="532.8862" y="355.8467">Genre</text><line style="stroke:#181818;stroke-width:0.5;" x1="450" x2="625.9766" y1="367" y2="367"/><rect fill="none" height="6" style="stroke:#C82930;stroke-width:1;" width="6" x="457" y="377.6484"/><text fill="#000000" font-family="sans-serif" font-size="14" lengthAdjust="spacing" textLength="57.5859" x="469" y="383.9951">Id: UUID</text><rect fill="none" height="6" style="stroke:#C82930;stroke-width:1;" width="6" x="457" y="393.9453"/><text fill="#000000" font-family="sans-serif" font-size="14" lengthAdjust="spacing" textLength="92.251" x="469" y="400.292">Name: String</text><rect fill="none" height="6" style="stroke:#C82930;stroke-width:1;" width="6" x="457" y="410.2422"/><text fill="#000000" font-family="sans-serif" font-size="14" lengthAdjust="spacing" textLength="148.1006" x="469" y="416.5889">CreatedAt: DateTime</text><rect fill="none" height="6" style="stroke:#C82930;stroke-width:1;" width="6" x="457" y="426.5391"/><text fill="#000000" font-family="sans-serif" font-size="14" lengthAdjust="spacing" textLength="151.9766" x="469" y="432.8857">UpdatedAt: DateTime</text><line style="stroke:#181818;stroke-width:0.5;" x1="450" x2="625.9766" y1="440.1875" y2="440.1875"/><ellipse cx="460" cy="453.8359" fill="#84BE84" rx="3" ry="3" style="stroke:#038048;stroke-width:1;"/><text fill="#000000" font-family="sans-serif" font-size="14" lengthAdjust="spacing" textLength="109.7305" x="469" y="457.1826">ValidateName()</text><ellipse cx="460" cy="470.1328" fill="#84BE84" rx="3" ry="3" style="stroke:#038048;stroke-width:1;"/><text fill="#000000" font-family="sans-serif" font-size="14" lengthAdjust="spacing" textLength="119.5879" x="469" y="473.4795">GetBooksCount()</text></g><!--class Publisher--><g class="entity" data-entity="Publisher" data-source-line="37" data-uid="ent0005" id="entity_Publisher"><rect fill="#F1F1F1" height="178.375" rx="2.5" ry="2.5" style="stroke:#181818;stroke-width:0.5;" width="187.7383" x="223" y="7"/><ellipse cx="280.3604" cy="23" fill="#ADD1B2" rx="11" ry="11" style="stroke:#181818;stroke-width:1;"/><path d="M283.3291,28.6406 Q282.751,28.9375 282.1104,29.0781 Q281.4697,29.2344 280.7666,29.2344 Q278.2666,29.2344 276.9385,27.5938 Q275.626,25.9375 275.626,22.8125 Q275.626,19.6875 276.9385,18.0313 Q278.2666,16.375 280.7666,16.375 Q281.4697,16.375 282.1104,16.5313 Q282.7666,16.6875 283.3291,16.9844 L283.3291,19.7031 Q282.7041,19.125 282.1104,18.8594 Q281.5166,18.5781 280.8916,18.5781 Q279.5479,18.5781 278.8604,19.6563 Q278.1729,20.7188 278.1729,22.8125 Q278.1729,24.9063 278.8604,25.9844 Q279.5479,27.0469 280.8916,27.0469 Q281.5166,27.0469 282.1104,26.7813 Q282.7041,26.5 283.3291,25.9219 L283.3291,28.6406 Z " fill="#000000"/><text fill="#000000" font-family="sans-serif" font-size="14" lengthAdjust="spacing" textLength="64.5176" x="300.8604" y="27.8467">Publisher</text><line style="stroke:#181818;stroke-width:0.5;" x1="224" x2="409.7383" y1="39" y2="39"/><rect fill="none" height="6" style="stroke:#C82930;stroke-width:1;" width="6" x="231" y="49.6484"/><text fill="#000000" font-family="sans-serif" font-size="14" lengthAdjust="spacing" textLength="57.5859" x="243" y="55.9951">Id: UUID</text><rect fill="none" height="6" style="stroke:#C82930;stroke-width:1;" width="6" x="231" y="65.9453"/><text fill="#000000" font-family="sans-serif" font-size="14" lengthAdjust="spacing" textLength="92.251" x="243" y="72.292">Name: String</text><rect fill="none" height="6" style="stroke:#C82930;stroke-width:1;" width="6" x="231" y="82.2422"/><text fill="#000000" font-family="sans-serif" font-size="14" lengthAdjust="spacing" textLength="130.6826" x="243" y="88.5889">Description: String</text><rect fill="none" height="6" style="stroke:#C82930;stroke-width:1;" width="6" x="231" y="98.5391"/><text fill="#000000" font-family="sans-serif" font-size="14" lengthAdjust="spacing" textLength="144.2588" x="243" y="104.8857">ContactEmail: String</text><rect fill="none" height="6" style="stroke:#C82930;stroke-width:1;" width="6" x="231" y="114.8359"/><text fill="#000000" font-family="sans-serif" font-size="14" lengthAdjust="spacing" textLength="148.1006" x="243" y="121.1826">CreatedAt: DateTime</text><rect fill="none" height="6" style="stroke:#C82930;stroke-width:1;" width="6" x="231" y="131.1328"/><text fill="#000000" font-family="sans-serif" font-size="14" lengthAdjust="spacing" textLength="151.9766" x="243" y="137.4795">UpdatedAt: DateTime</text><line style="stroke:#181818;stroke-width:0.5;" x1="224" x2="409.7383" y1="144.7813" y2="144.7813"/><ellipse cx="234" cy="158.4297" fill="#84BE84" rx="3" ry="3" style="stroke:#038048;stroke-width:1;"/><text fill="#000000" font-family="sans-serif" font-size="14" lengthAdjust="spacing" textLength="161.7383" x="243" y="161.7764">ValidateContactEmail()</text><ellipse cx="234" cy="174.7266" fill="#84BE84" rx="3" ry="3" style="stroke:#038048;stroke-width:1;"/><text fill="#000000" font-family="sans-serif" font-size="14" lengthAdjust="spacing" textLength="145.6602" x="243" y="178.0732">GetPublishedBooks()</text></g><!--class BookAuthor--><g class="entity" data-entity="BookAuthor" data-source-line="48" data-uid="ent0006" id="entity_BookAuthor"><rect fill="#F1F1F1" height="80.5938" rx="2.5" ry="2.5" style="stroke:#181818;stroke-width:0.5;" width="130.7197" x="171.5" y="631"/><ellipse cx="194.0344" cy="647" fill="#ADD1B2" rx="11" ry="11" style="stroke:#181818;stroke-width:1;"/><path d="M197.0032,652.6406 Q196.425,652.9375 195.7844,653.0781 Q195.1438,653.2344 194.4407,653.2344 Q191.9407,653.2344 190.6125,651.5938 Q189.3,649.9375 189.3,646.8125 Q189.3,643.6875 190.6125,642.0313 Q191.9407,640.375 194.4407,640.375 Q195.1438,640.375 195.7844,640.5313 Q196.4407,640.6875 197.0032,640.9844 L197.0032,643.7031 Q196.3782,643.125 195.7844,642.8594 Q195.1907,642.5781 194.5657,642.5781 Q193.2219,642.5781 192.5344,643.6563 Q191.8469,644.7188 191.8469,646.8125 Q191.8469,648.9063 192.5344,649.9844 Q193.2219,651.0469 194.5657,651.0469 Q195.1907,651.0469 195.7844,650.7813 Q196.3782,650.5 197.0032,649.9219 L197.0032,652.6406 Z " fill="#000000"/><text fill="#000000" font-family="sans-serif" font-size="14" lengthAdjust="spacing" textLength="81.9766" x="209.7087" y="651.8467">BookAuthor</text><line style="stroke:#181818;stroke-width:0.5;" x1="172.5" x2="301.2197" y1="663" y2="663"/><rect fill="none" height="6" style="stroke:#C82930;stroke-width:1;" width="6" x="179.5" y="673.6484"/><text fill="#000000" font-family="sans-serif" font-size="14" lengthAdjust="spacing" textLength="92.4287" x="191.5" y="679.9951">BookId: UUID</text><rect fill="none" height="6" style="stroke:#C82930;stroke-width:1;" width="6" x="179.5" y="689.9453"/><text fill="#000000" font-family="sans-serif" font-size="14" lengthAdjust="spacing" textLength="104.7197" x="191.5" y="696.292">AuthorId: UUID</text><line style="stroke:#181818;stroke-width:0.5;" x1="172.5" x2="301.2197" y1="703.5938" y2="703.5938"/></g><!--class BookGenre--><g class="entity" data-entity="BookGenre" data-source-line="53" data-uid="ent0007" id="entity_BookGenre"><rect fill="#F1F1F1" height="80.5938" rx="2.5" ry="2.5" style="stroke:#181818;stroke-width:0.5;" width="126.29" x="366" y="631"/><ellipse cx="388.5344" cy="647" fill="#ADD1B2" rx="11" ry="11" style="stroke:#181818;stroke-width:1;"/><path d="M391.5032,652.6406 Q390.925,652.9375 390.2844,653.0781 Q389.6438,653.2344 388.9407,653.2344 Q386.4407,653.2344 385.1125,651.5938 Q383.8,649.9375 383.8,646.8125 Q383.8,643.6875 385.1125,642.0313 Q386.4407,640.375 388.9407,640.375 Q389.6438,640.375 390.2844,640.5313 Q390.9407,640.6875 391.5032,640.9844 L391.5032,643.7031 Q390.8782,643.125 390.2844,642.8594 Q389.6907,642.5781 389.0657,642.5781 Q387.7219,642.5781 387.0344,643.6563 Q386.3469,644.7188 386.3469,646.8125 Q386.3469,648.9063 387.0344,649.9844 Q387.7219,651.0469 389.0657,651.0469 Q389.6907,651.0469 390.2844,650.7813 Q390.8782,650.5 391.5032,649.9219 L391.5032,652.6406 Z " fill="#000000"/><text fill="#000000" font-family="sans-serif" font-size="14" lengthAdjust="spacing" textLength="77.5469" x="404.2087" y="651.8467">BookGenre</text><line style="stroke:#181818;stroke-width:0.5;" x1="367" x2="491.29" y1="663" y2="663"/><rect fill="none" height="6" style="stroke:#C82930;stroke-width:1;" width="6" x="374" y="673.6484"/><text fill="#000000" font-family="sans-serif" font-size="14" lengthAdjust="spacing" textLength="92.4287" x="386" y="679.9951">BookId: UUID</text><rect fill="none" height="6" style="stroke:#C82930;stroke-width:1;" width="6" x="374" y="689.9453"/><text fill="#000000" font-family="sans-serif" font-size="14" lengthAdjust="spacing" textLength="100.29" x="386" y="696.292">GenreId: UUID</text><line style="stroke:#181818;stroke-width:0.5;" x1="367" x2="491.29" y1="703.5938" y2="703.5938"/></g><!--link Book to BookAuthor--><g class="link" data-entity-1="Book" data-entity-2="BookAuthor" data-source-line="58" data-uid="lnk8" id="link_Book_BookAuthor"><path codeLine="58" d="M270.2172,561.9293 C261.5772,590.1393 260.836,592.5775 254.396,613.6275" fill="none" id="Book-BookAuthor" style="stroke:#181818;stroke-width:1;"/><line style="stroke:#181818;stroke-width:1;" x1="267.564" x2="275.2132" y1="556.9332" y2="559.276"/><line style="stroke:#181818;stroke-width:1;" x1="266.6854" x2="274.3347" y1="559.8017" y2="562.1445"/><line style="stroke:#181818;stroke-width:1;" x1="270.2172" x2="272.56" y1="561.9293" y2="554.28"/><line style="stroke:#181818;stroke-width:1;" x1="251.4704" x2="254.8675" y1="623.19" y2="632.5953"/><line style="stroke:#181818;stroke-width:1;" x1="251.4704" x2="243.3925" y1="623.19" y2="629.0847"/><line style="stroke:#181818;stroke-width:1;" x1="251.4704" x2="249.13" y1="623.19" y2="630.84"/><ellipse cx="253.2257" cy="617.4525" fill="none" rx="4" ry="4" style="stroke:#181818;stroke-width:1;"/><text fill="#000000" font-family="sans-serif" font-size="13" lengthAdjust="spacing" textLength="22.9785" x="264" y="597.0669">has</text></g><!--link Author to BookAuthor--><g class="link" data-entity-1="Author" data-entity-2="BookAuthor" data-source-line="59" data-uid="lnk9" id="link_Author_BookAuthor"><path codeLine="59" d="M138.6978,488.1911 C164.7878,536.5611 185.8079,575.556 207.1579,615.156" fill="none" id="Author-BookAuthor" style="stroke:#181818;stroke-width:1;"/><line style="stroke:#181818;stroke-width:1;" x1="133.2784" x2="140.3194" y1="486.5694" y2="482.7716"/><line style="stroke:#181818;stroke-width:1;" x1="134.7026" x2="141.7436" y1="489.2098" y2="485.412"/><line style="stroke:#181818;stroke-width:1;" x1="138.6978" x2="134.9" y1="488.1911" y2="481.15"/><line style="stroke:#181818;stroke-width:1;" x1="211.9035" x2="220.9813" y1="623.9582" y2="628.1526"/><line style="stroke:#181818;stroke-width:1;" x1="211.9035" x2="210.4187" y1="623.9582" y2="633.8474"/><line style="stroke:#181818;stroke-width:1;" x1="211.9035" x2="215.7" y1="623.9582" y2="631"/><ellipse cx="209.0561" cy="618.6769" fill="none" rx="4" ry="4" style="stroke:#181818;stroke-width:1;"/><text fill="#000000" font-family="sans-serif" font-size="13" lengthAdjust="spacing" textLength="22.9785" x="201" y="597.0669">has</text></g><!--link Book to BookGenre--><g class="link" data-entity-1="Book" data-entity-2="BookGenre" data-source-line="60" data-uid="lnk10" id="link_Book_BookGenre"><path codeLine="60" d="M382.3714,561.6332 C394.4614,589.8432 395.917,593.2421 404.927,614.2921" fill="none" id="Book-BookGenre" style="stroke:#181818;stroke-width:1;"/><line style="stroke:#181818;stroke-width:1;" x1="377.1191" x2="384.4723" y1="559.5323" y2="556.3809"/><line style="stroke:#181818;stroke-width:1;" x1="378.3009" x2="385.654" y1="562.2897" y2="559.1383"/><line style="stroke:#181818;stroke-width:1;" x1="382.3714" x2="379.22" y1="561.6332" y2="554.28"/><line style="stroke:#181818;stroke-width:1;" x1="408.862" x2="417.526" y1="623.4854" y2="628.479"/><line style="stroke:#181818;stroke-width:1;" x1="408.862" x2="406.494" y1="623.4854" y2="633.201"/><line style="stroke:#181818;stroke-width:1;" x1="408.862" x2="412.01" y1="623.4854" y2="630.84"/><ellipse cx="406.501" cy="617.9694" fill="none" rx="4" ry="4" style="stroke:#181818;stroke-width:1;"/><text fill="#000000" font-family="sans-serif" font-size="13" lengthAdjust="spacing" textLength="22.9785" x="399" y="597.0669">has</text></g><!--link Genre to BookGenre--><g class="link" data-entity-1="Genre" data-entity-2="BookGenre" data-source-line="61" data-uid="lnk11" id="link_Genre_BookGenre"><path codeLine="61" d="M504.851,488.5338 C484.681,536.9038 468.8931,574.7846 452.3931,614.3846" fill="none" id="Genre-BookGenre" style="stroke:#181818;stroke-width:1;"/><line style="stroke:#181818;stroke-width:1;" x1="502.6986" x2="510.0824" y1="483.3024" y2="486.3814"/><line style="stroke:#181818;stroke-width:1;" x1="501.544" x2="508.9278" y1="486.0713" y2="489.1503"/><line style="stroke:#181818;stroke-width:1;" x1="504.851" x2="507.93" y1="488.5338" y2="481.15"/><line style="stroke:#181818;stroke-width:1;" x1="448.5469" x2="451.0085" y1="623.6154" y2="633.3077"/><line style="stroke:#181818;stroke-width:1;" x1="448.5469" x2="439.9315" y1="623.6154" y2="628.6923"/><line style="stroke:#181818;stroke-width:1;" x1="448.5469" x2="445.47" y1="623.6154" y2="631"/><ellipse cx="450.8546" cy="618.0769" fill="none" rx="4" ry="4" style="stroke:#181818;stroke-width:1;"/><text fill="#000000" font-family="sans-serif" font-size="13" lengthAdjust="spacing" textLength="22.9785" x="465" y="597.0669">has</text></g><!--link Publisher to Book--><g class="link" data-entity-1="Publisher" data-entity-2="Book" data-source-line="62" data-uid="lnk12" id="link_Publisher_Book"><path codeLine="62" d="M317,193 C317,216.99 317,217.63 317,243.88" fill="none" id="Publisher-Book" style="stroke:#181818;stroke-width:1;"/><line style="stroke:#181818;stroke-width:1;" x1="313" x2="321" y1="189" y2="189"/><line style="stroke:#181818;stroke-width:1;" x1="313" x2="321" y1="192" y2="192"/><line style="stroke:#181818;stroke-width:1;" x1="317" x2="317" y1="193" y2="185"/><line style="stroke:#181818;stroke-width:1;" x1="317" x2="323" y1="253.88" y2="261.88"/><line style="stroke:#181818;stroke-width:1;" x1="317" x2="311" y1="253.88" y2="261.88"/><line style="stroke:#181818;stroke-width:1;" x1="317" x2="317" y1="253.88" y2="261.88"/><ellipse cx="317" cy="247.88" fill="none" rx="4" ry="4" style="stroke:#181818;stroke-width:1;"/><text fill="#000000" font-family="sans-serif" font-size="13" lengthAdjust="spacing" textLength="61.75" x="318" y="228.0669">publishes</text></g><!--SRC=[hPFVQy8m4CVV-rVaSMFu3_HDsod2446xCSOUplHeWsaZIIg8xdzVVjIPk0eRsrlp-URkldUNKWvAaOaGMt9C21cHUPcIefZd_h2QB5AoqfArbGDhfZb694T59Tjf9jg8BxiDPnGiVqMGAPct6YkKNeGACz6rEiOloAhwYYqbewPYZfGrm1tAn1xbl34v2ibJCZbeV7ltYaJGM8vDZjnyh5c3ZXUxSe0_a6VWp2gspxjxX_pL9KXeKADKCRPcUfBLIBVZFJ0E6yQPFXZ-aIJK3NJSwLh8eP5EcLHwOP97qtg20VZRRcQefntdDa_ePOQjn24hVovu7bzViVTW7vDosmrTkFUWQfG_SdBhLMMYrK3rOsF6_Y_MmuIN5ivcIzTBs8O5qN8jY7hnwXUA8iDLV0jqOXZd_ihJQJGInx1kIcfGIN-u9L_7-ifUyzytnCkUWWj6s_LSVG80]--></g></svg>