<svg xmlns="http://www.w3.org/2000/svg" xmlns:xlink="http://www.w3.org/1999/xlink" contentStyleType="text/css" data-diagram-type="CLASS" height="632px" preserveAspectRatio="none" style="width:404px;height:632px;background:#FFFFFF;" version="1.1" viewBox="0 0 404 632" width="404px" zoomAndPan="magnify"><defs/><g><!--class Cart--><g class="entity" data-entity="Cart" data-source-line="1" data-uid="ent0002" id="entity_Cart"><rect fill="#F1F1F1" height="178.375" rx="2.5" ry="2.5" style="stroke:#181818;stroke-width:0.5;" width="177.9766" x="7" y="132"/><ellipse cx="76.9385" cy="148" fill="#ADD1B2" rx="11" ry="11" style="stroke:#181818;stroke-width:1;"/><path d="M79.9072,153.6406 Q79.3291,153.9375 78.6885,154.0781 Q78.0479,154.2344 77.3447,154.2344 Q74.8447,154.2344 73.5166,152.5938 Q72.2041,150.9375 72.2041,147.8125 Q72.2041,144.6875 73.5166,143.0313 Q74.8447,141.375 77.3447,141.375 Q78.0479,141.375 78.6885,141.5313 Q79.3447,141.6875 79.9072,141.9844 L79.9072,144.7031 Q79.2822,144.125 78.6885,143.8594 Q78.0947,143.5781 77.4697,143.5781 Q76.126,143.5781 75.4385,144.6563 Q74.751,145.7188 74.751,147.8125 Q74.751,149.9063 75.4385,150.9844 Q76.126,152.0469 77.4697,152.0469 Q78.0947,152.0469 78.6885,151.7813 Q79.2822,151.5 79.9072,150.9219 L79.9072,153.6406 Z " fill="#000000"/><text fill="#000000" font-family="sans-serif" font-size="14" lengthAdjust="spacing" textLength="29.5996" x="97.4385" y="152.8467">Cart</text><line style="stroke:#181818;stroke-width:0.5;" x1="8" x2="183.9766" y1="164" y2="164"/><rect fill="none" height="6" style="stroke:#C82930;stroke-width:1;" width="6" x="15" y="174.6484"/><text fill="#000000" font-family="sans-serif" font-size="14" lengthAdjust="spacing" textLength="57.5859" x="27" y="180.9951">Id: UUID</text><rect fill="none" height="6" style="stroke:#C82930;stroke-width:1;" width="6" x="15" y="190.9453"/><text fill="#000000" font-family="sans-serif" font-size="14" lengthAdjust="spacing" textLength="148.1006" x="27" y="197.292">CreatedAt: DateTime</text><rect fill="none" height="6" style="stroke:#C82930;stroke-width:1;" width="6" x="15" y="207.2422"/><text fill="#000000" font-family="sans-serif" font-size="14" lengthAdjust="spacing" textLength="151.9766" x="27" y="213.5889">UpdatedAt: DateTime</text><line style="stroke:#181818;stroke-width:0.5;" x1="8" x2="183.9766" y1="220.8906" y2="220.8906"/><ellipse cx="18" cy="234.5391" fill="#84BE84" rx="3" ry="3" style="stroke:#038048;stroke-width:1;"/><text fill="#000000" font-family="sans-serif" font-size="14" lengthAdjust="spacing" textLength="70.1436" x="27" y="237.8857">AddItem()</text><ellipse cx="18" cy="250.8359" fill="#84BE84" rx="3" ry="3" style="stroke:#038048;stroke-width:1;"/><text fill="#000000" font-family="sans-serif" font-size="14" lengthAdjust="spacing" textLength="100.2354" x="27" y="254.1826">RemoveItem()</text><ellipse cx="18" cy="267.1328" fill="#84BE84" rx="3" ry="3" style="stroke:#038048;stroke-width:1;"/><text fill="#000000" font-family="sans-serif" font-size="14" lengthAdjust="spacing" textLength="77.1367" x="27" y="270.4795">ClearCart()</text><ellipse cx="18" cy="283.4297" fill="#84BE84" rx="3" ry="3" style="stroke:#038048;stroke-width:1;"/><text fill="#000000" font-family="sans-serif" font-size="14" lengthAdjust="spacing" textLength="105.3486" x="27" y="286.7764">GetTotalPrice()</text><ellipse cx="18" cy="299.7266" fill="#84BE84" rx="3" ry="3" style="stroke:#038048;stroke-width:1;"/><text fill="#000000" font-family="sans-serif" font-size="14" lengthAdjust="spacing" textLength="116.6143" x="27" y="303.0732">GetItemsCount()</text></g><!--class CartItem--><g class="entity" data-entity="CartItem" data-source-line="12" data-uid="ent0003" id="entity_CartItem"><rect fill="#F1F1F1" height="113.1875" rx="2.5" ry="2.5" style="stroke:#181818;stroke-width:0.5;" width="177.9766" x="22" y="387"/><ellipse cx="76.0039" cy="403" fill="#ADD1B2" rx="11" ry="11" style="stroke:#181818;stroke-width:1;"/><path d="M78.9727,408.6406 Q78.3945,408.9375 77.7539,409.0781 Q77.1133,409.2344 76.4102,409.2344 Q73.9102,409.2344 72.582,407.5938 Q71.2695,405.9375 71.2695,402.8125 Q71.2695,399.6875 72.582,398.0313 Q73.9102,396.375 76.4102,396.375 Q77.1133,396.375 77.7539,396.5313 Q78.4102,396.6875 78.9727,396.9844 L78.9727,399.7031 Q78.3477,399.125 77.7539,398.8594 Q77.1602,398.5781 76.5352,398.5781 Q75.1914,398.5781 74.5039,399.6563 Q73.8164,400.7188 73.8164,402.8125 Q73.8164,404.9063 74.5039,405.9844 Q75.1914,407.0469 76.5352,407.0469 Q77.1602,407.0469 77.7539,406.7813 Q78.3477,406.5 78.9727,405.9219 L78.9727,408.6406 Z " fill="#000000"/><text fill="#000000" font-family="sans-serif" font-size="14" lengthAdjust="spacing" textLength="61.4688" x="96.5039" y="407.8467">CartItem</text><line style="stroke:#181818;stroke-width:0.5;" x1="23" x2="198.9766" y1="419" y2="419"/><rect fill="none" height="6" style="stroke:#C82930;stroke-width:1;" width="6" x="30" y="429.6484"/><text fill="#000000" font-family="sans-serif" font-size="14" lengthAdjust="spacing" textLength="57.5859" x="42" y="435.9951">Id: UUID</text><rect fill="none" height="6" style="stroke:#C82930;stroke-width:1;" width="6" x="30" y="445.9453"/><text fill="#000000" font-family="sans-serif" font-size="14" lengthAdjust="spacing" textLength="148.1006" x="42" y="452.292">CreatedAt: DateTime</text><rect fill="none" height="6" style="stroke:#C82930;stroke-width:1;" width="6" x="30" y="462.2422"/><text fill="#000000" font-family="sans-serif" font-size="14" lengthAdjust="spacing" textLength="151.9766" x="42" y="468.5889">UpdatedAt: DateTime</text><line style="stroke:#181818;stroke-width:0.5;" x1="23" x2="198.9766" y1="475.8906" y2="475.8906"/><ellipse cx="33" cy="489.5391" fill="#84BE84" rx="3" ry="3" style="stroke:#038048;stroke-width:1;"/><text fill="#000000" font-family="sans-serif" font-size="14" lengthAdjust="spacing" textLength="122.124" x="42" y="492.8857">UpdateQuantity()</text></g><!--class Wishlist--><g class="entity" data-entity="Wishlist" data-source-line="19" data-uid="ent0004" id="entity_Wishlist"><rect fill="#F1F1F1" height="178.375" rx="2.5" ry="2.5" style="stroke:#181818;stroke-width:0.5;" width="177.9766" x="220" y="132"/><ellipse cx="277.5073" cy="148" fill="#ADD1B2" rx="11" ry="11" style="stroke:#181818;stroke-width:1;"/><path d="M280.4761,153.6406 Q279.8979,153.9375 279.2573,154.0781 Q278.6167,154.2344 277.9136,154.2344 Q275.4136,154.2344 274.0854,152.5938 Q272.7729,150.9375 272.7729,147.8125 Q272.7729,144.6875 274.0854,143.0313 Q275.4136,141.375 277.9136,141.375 Q278.6167,141.375 279.2573,141.5313 Q279.9136,141.6875 280.4761,141.9844 L280.4761,144.7031 Q279.8511,144.125 279.2573,143.8594 Q278.6636,143.5781 278.0386,143.5781 Q276.6948,143.5781 276.0073,144.6563 Q275.3198,145.7188 275.3198,147.8125 Q275.3198,149.9063 276.0073,150.9844 Q276.6948,152.0469 278.0386,152.0469 Q278.6636,152.0469 279.2573,151.7813 Q279.8511,151.5 280.4761,150.9219 L280.4761,153.6406 Z " fill="#000000"/><text fill="#000000" font-family="sans-serif" font-size="14" lengthAdjust="spacing" textLength="54.4619" x="298.0073" y="152.8467">Wishlist</text><line style="stroke:#181818;stroke-width:0.5;" x1="221" x2="396.9766" y1="164" y2="164"/><rect fill="none" height="6" style="stroke:#C82930;stroke-width:1;" width="6" x="228" y="174.6484"/><text fill="#000000" font-family="sans-serif" font-size="14" lengthAdjust="spacing" textLength="57.5859" x="240" y="180.9951">Id: UUID</text><rect fill="none" height="6" style="stroke:#C82930;stroke-width:1;" width="6" x="228" y="190.9453"/><text fill="#000000" font-family="sans-serif" font-size="14" lengthAdjust="spacing" textLength="148.1006" x="240" y="197.292">CreatedAt: DateTime</text><rect fill="none" height="6" style="stroke:#C82930;stroke-width:1;" width="6" x="228" y="207.2422"/><text fill="#000000" font-family="sans-serif" font-size="14" lengthAdjust="spacing" textLength="151.9766" x="240" y="213.5889">UpdatedAt: DateTime</text><line style="stroke:#181818;stroke-width:0.5;" x1="221" x2="396.9766" y1="220.8906" y2="220.8906"/><ellipse cx="231" cy="234.5391" fill="#84BE84" rx="3" ry="3" style="stroke:#038048;stroke-width:1;"/><text fill="#000000" font-family="sans-serif" font-size="14" lengthAdjust="spacing" textLength="73.1172" x="240" y="237.8857">AddBook()</text><ellipse cx="231" cy="250.8359" fill="#84BE84" rx="3" ry="3" style="stroke:#038048;stroke-width:1;"/><text fill="#000000" font-family="sans-serif" font-size="14" lengthAdjust="spacing" textLength="103.209" x="240" y="254.1826">RemoveBook()</text><ellipse cx="231" cy="267.1328" fill="#84BE84" rx="3" ry="3" style="stroke:#038048;stroke-width:1;"/><text fill="#000000" font-family="sans-serif" font-size="14" lengthAdjust="spacing" textLength="101.999" x="240" y="270.4795">ClearWishlist()</text><ellipse cx="231" cy="283.4297" fill="#84BE84" rx="3" ry="3" style="stroke:#038048;stroke-width:1;"/><text fill="#000000" font-family="sans-serif" font-size="14" lengthAdjust="spacing" textLength="107.1055" x="240" y="286.7764">ContainsBook()</text><ellipse cx="231" cy="299.7266" fill="#84BE84" rx="3" ry="3" style="stroke:#038048;stroke-width:1;"/><text fill="#000000" font-family="sans-serif" font-size="14" lengthAdjust="spacing" textLength="119.5879" x="240" y="303.0732">GetBooksCount()</text></g><!--class WishlistBook--><g class="entity" data-entity="WishlistBook" data-source-line="30" data-uid="ent0005" id="entity_WishlistBook"><rect fill="#F1F1F1" height="80.5938" rx="2.5" ry="2.5" style="stroke:#181818;stroke-width:0.5;" width="138.0479" x="237" y="403"/><ellipse cx="259.5344" cy="419" fill="#ADD1B2" rx="11" ry="11" style="stroke:#181818;stroke-width:1;"/><path d="M262.5032,424.6406 Q261.925,424.9375 261.2844,425.0781 Q260.6438,425.2344 259.9407,425.2344 Q257.4407,425.2344 256.1125,423.5938 Q254.8,421.9375 254.8,418.8125 Q254.8,415.6875 256.1125,414.0313 Q257.4407,412.375 259.9407,412.375 Q260.6438,412.375 261.2844,412.5313 Q261.9407,412.6875 262.5032,412.9844 L262.5032,415.7031 Q261.8782,415.125 261.2844,414.8594 Q260.6907,414.5781 260.0657,414.5781 Q258.7219,414.5781 258.0344,415.6563 Q257.3469,416.7188 257.3469,418.8125 Q257.3469,420.9063 258.0344,421.9844 Q258.7219,423.0469 260.0657,423.0469 Q260.6907,423.0469 261.2844,422.7813 Q261.8782,422.5 262.5032,421.9219 L262.5032,424.6406 Z " fill="#000000"/><text fill="#000000" font-family="sans-serif" font-size="14" lengthAdjust="spacing" textLength="89.3047" x="275.2087" y="423.8467">WishlistBook</text><line style="stroke:#181818;stroke-width:0.5;" x1="238" x2="374.0479" y1="435" y2="435"/><rect fill="none" height="6" style="stroke:#C82930;stroke-width:1;" width="6" x="245" y="445.6484"/><text fill="#000000" font-family="sans-serif" font-size="14" lengthAdjust="spacing" textLength="112.0479" x="257" y="451.9951">WishlistId: UUID</text><rect fill="none" height="6" style="stroke:#C82930;stroke-width:1;" width="6" x="245" y="461.9453"/><text fill="#000000" font-family="sans-serif" font-size="14" lengthAdjust="spacing" textLength="92.4287" x="257" y="468.292">BookId: UUID</text><line style="stroke:#181818;stroke-width:0.5;" x1="238" x2="374.0479" y1="475.5938" y2="475.5938"/></g><!--class User--><g class="entity" data-entity="User" data-source-line="35" data-uid="ent0006" id="entity_User"><rect fill="#F1F1F1" height="48" rx="2.5" ry="2.5" style="stroke:#181818;stroke-width:0.5;" width="63.9102" x="170" y="7"/><ellipse cx="185" cy="23" fill="#ADD1B2" rx="11" ry="11" style="stroke:#181818;stroke-width:1;"/><path d="M187.9688,28.6406 Q187.3906,28.9375 186.75,29.0781 Q186.1094,29.2344 185.4063,29.2344 Q182.9063,29.2344 181.5781,27.5938 Q180.2656,25.9375 180.2656,22.8125 Q180.2656,19.6875 181.5781,18.0313 Q182.9063,16.375 185.4063,16.375 Q186.1094,16.375 186.75,16.5313 Q187.4063,16.6875 187.9688,16.9844 L187.9688,19.7031 Q187.3438,19.125 186.75,18.8594 Q186.1563,18.5781 185.5313,18.5781 Q184.1875,18.5781 183.5,19.6563 Q182.8125,20.7188 182.8125,22.8125 Q182.8125,24.9063 183.5,25.9844 Q184.1875,27.0469 185.5313,27.0469 Q186.1563,27.0469 186.75,26.7813 Q187.3438,26.5 187.9688,25.9219 L187.9688,28.6406 Z " fill="#000000"/><text fill="#000000" font-family="sans-serif" font-size="14" lengthAdjust="spacing" textLength="31.9102" x="199" y="27.8467">User</text><line style="stroke:#181818;stroke-width:0.5;" x1="171" x2="232.9102" y1="39" y2="39"/><line style="stroke:#181818;stroke-width:0.5;" x1="171" x2="232.9102" y1="47" y2="47"/></g><!--class Book--><g class="entity" data-entity="Book" data-source-line="37" data-uid="ent0009" id="entity_Book"><rect fill="#F1F1F1" height="48" rx="2.5" ry="2.5" style="stroke:#181818;stroke-width:0.5;" width="66.8428" x="173.5" y="577"/><ellipse cx="188.5" cy="593" fill="#ADD1B2" rx="11" ry="11" style="stroke:#181818;stroke-width:1;"/><path d="M191.4688,598.6406 Q190.8906,598.9375 190.25,599.0781 Q189.6094,599.2344 188.9063,599.2344 Q186.4063,599.2344 185.0781,597.5938 Q183.7656,595.9375 183.7656,592.8125 Q183.7656,589.6875 185.0781,588.0313 Q186.4063,586.375 188.9063,586.375 Q189.6094,586.375 190.25,586.5313 Q190.9063,586.6875 191.4688,586.9844 L191.4688,589.7031 Q190.8438,589.125 190.25,588.8594 Q189.6563,588.5781 189.0313,588.5781 Q187.6875,588.5781 187,589.6563 Q186.3125,590.7188 186.3125,592.8125 Q186.3125,594.9063 187,595.9844 Q187.6875,597.0469 189.0313,597.0469 Q189.6563,597.0469 190.25,596.7813 Q190.8438,596.5 191.4688,595.9219 L191.4688,598.6406 Z " fill="#000000"/><text fill="#000000" font-family="sans-serif" font-size="14" lengthAdjust="spacing" textLength="34.8428" x="202.5" y="597.8467">Book</text><line style="stroke:#181818;stroke-width:0.5;" x1="174.5" x2="239.3428" y1="609" y2="609"/><line style="stroke:#181818;stroke-width:0.5;" x1="174.5" x2="239.3428" y1="617" y2="617"/></g><!--link User to Cart--><g class="link" data-entity-1="User" data-entity-2="Cart" data-source-line="35" data-uid="lnk7" id="link_User_Cart"><path codeLine="35" d="M185.0735,62.0201 C174.1335,81.4401 165.6001,96.5619 149.6101,124.9119" fill="none" id="User-Cart" style="stroke:#181818;stroke-width:1;"/><line style="stroke:#181818;stroke-width:1;" x1="183.5517" x2="190.5218" y1="56.5718" y2="60.4983"/><line style="stroke:#181818;stroke-width:1;" x1="182.0792" x2="189.0494" y1="59.1856" y2="63.1121"/><line style="stroke:#181818;stroke-width:1;" x1="185.0735" x2="189" y1="62.0201" y2="55.05"/><line style="stroke:#181818;stroke-width:1;" x1="151.1291" x2="144.161" y1="130.361" y2="126.4309"/><line style="stroke:#181818;stroke-width:1;" x1="152.6029" x2="145.6348" y1="127.748" y2="123.8179"/><line style="stroke:#181818;stroke-width:1;" x1="149.6101" x2="145.68" y1="124.9119" y2="131.88"/><text fill="#000000" font-family="sans-serif" font-size="13" lengthAdjust="spacing" textLength="22.9785" x="171" y="98.0669">has</text></g><!--link Cart to CartItem--><g class="link" data-entity-1="Cart" data-entity-2="CartItem" data-source-line="36" data-uid="lnk8" id="link_Cart_CartItem"><path codeLine="36" d="M102.5352,318.0814 C104.3052,343.9914 104.403,345.6619 105.993,368.9319" fill="none" id="Cart-CartItem" style="stroke:#181818;stroke-width:1;"/><line style="stroke:#181818;stroke-width:1;" x1="98.2719" x2="106.2533" y1="314.3633" y2="313.8181"/><line style="stroke:#181818;stroke-width:1;" x1="98.4764" x2="106.4578" y1="317.3563" y2="316.8111"/><line style="stroke:#181818;stroke-width:1;" x1="102.5352" x2="101.99" y1="318.0814" y2="310.1"/><line style="stroke:#181818;stroke-width:1;" x1="106.6746" x2="113.206" y1="378.9086" y2="386.481"/><line style="stroke:#181818;stroke-width:1;" x1="106.6746" x2="101.234" y1="378.9086" y2="387.299"/><line style="stroke:#181818;stroke-width:1;" x1="106.6746" x2="107.22" y1="378.9086" y2="386.89"/><ellipse cx="106.2656" cy="372.9226" fill="none" rx="4" ry="4" style="stroke:#181818;stroke-width:1;"/><text fill="#000000" font-family="sans-serif" font-size="13" lengthAdjust="spacing" textLength="55.0278" x="106" y="353.0669">contains</text></g><!--link CartItem to Book--><g class="link" data-entity-1="CartItem" data-entity-2="Book" data-source-line="37" data-uid="lnk10" id="link_CartItem_Book"><path codeLine="37" d="M149.9457,515.8709 C158.6257,531.2309 159.48,532.1 169,547 C175.4,557.02 178.2308,561.2629 184.9008,570.4229" fill="none" id="CartItem-Book" style="stroke:#181818;stroke-width:1;"/><line style="stroke:#181818;stroke-width:1;" x1="145.0259" x2="135.8664" y1="507.1648" y2="503.1519"/><line style="stroke:#181818;stroke-width:1;" x1="145.0259" x2="146.3136" y1="507.1648" y2="497.2481"/><line style="stroke:#181818;stroke-width:1;" x1="145.0259" x2="141.09" y1="507.1648" y2="500.2"/><ellipse cx="147.9778" cy="512.3885" fill="none" rx="4" ry="4" style="stroke:#181818;stroke-width:1;"/><line style="stroke:#181818;stroke-width:1;" x1="190.489" x2="184.0219" y1="571.3019" y2="576.011"/><line style="stroke:#181818;stroke-width:1;" x1="188.7231" x2="182.2559" y1="568.8767" y2="573.5858"/><line style="stroke:#181818;stroke-width:1;" x1="184.9008" x2="189.61" y1="570.4229" y2="576.89"/><text fill="#000000" font-family="sans-serif" font-size="13" lengthAdjust="spacing" textLength="69.418" x="170" y="543.0669">references</text></g><!--link User to Wishlist--><g class="link" data-entity-1="User" data-entity-2="Wishlist" data-source-line="38" data-uid="lnk11" id="link_User_Wishlist"><path codeLine="38" d="M219.0764,62.0032 C230.1264,81.4232 238.752,96.5777 254.892,124.9277" fill="none" id="User-Wishlist" style="stroke:#181818;stroke-width:1;"/><line style="stroke:#181818;stroke-width:1;" x1="213.6216" x2="220.5748" y1="60.5048" y2="56.5484"/><line style="stroke:#181818;stroke-width:1;" x1="215.1052" x2="222.0584" y1="63.1122" y2="59.1559"/><line style="stroke:#181818;stroke-width:1;" x1="219.0764" x2="215.12" y1="62.0032" y2="55.05"/><line style="stroke:#181818;stroke-width:1;" x1="260.3471" x2="253.3949" y1="126.4249" y2="130.3829"/><line style="stroke:#181818;stroke-width:1;" x1="258.8629" x2="251.9106" y1="123.8178" y2="127.7758"/><line style="stroke:#181818;stroke-width:1;" x1="254.892" x2="258.85" y1="124.9277" y2="131.88"/><text fill="#000000" font-family="sans-serif" font-size="13" lengthAdjust="spacing" textLength="22.9785" x="240" y="98.0669">has</text></g><!--link Wishlist to WishlistBook--><g class="link" data-entity-1="Wishlist" data-entity-2="WishlistBook" data-source-line="39" data-uid="lnk12" id="link_Wishlist_WishlistBook"><path codeLine="39" d="M307.6905,318.0993 C307.2505,350.2493 307.1339,359.0217 306.7839,384.8517" fill="none" id="Wishlist-WishlistBook" style="stroke:#181818;stroke-width:1;"/><line style="stroke:#181818;stroke-width:1;" x1="303.7456" x2="311.7449" y1="314.0449" y2="314.1544"/><line style="stroke:#181818;stroke-width:1;" x1="303.7046" x2="311.7038" y1="317.0446" y2="317.1541"/><line style="stroke:#181818;stroke-width:1;" x1="307.6905" x2="307.8" y1="318.0993" y2="310.1"/><line style="stroke:#181818;stroke-width:1;" x1="306.6484" x2="312.5394" y1="394.8507" y2="402.9313"/><line style="stroke:#181818;stroke-width:1;" x1="306.6484" x2="300.5406" y1="394.8507" y2="402.7687"/><line style="stroke:#181818;stroke-width:1;" x1="306.6484" x2="306.54" y1="394.8507" y2="402.85"/><ellipse cx="306.7297" cy="388.8513" fill="none" rx="4" ry="4" style="stroke:#181818;stroke-width:1;"/><text fill="#000000" font-family="sans-serif" font-size="13" lengthAdjust="spacing" textLength="55.0278" x="308" y="353.0669">contains</text></g><!--link WishlistBook to Book--><g class="link" data-entity-1="WishlistBook" data-entity-2="Book" data-source-line="40" data-uid="lnk13" id="link_WishlistBook_Book"><path codeLine="40" d="M273.545,499.7683 C262.155,518.9083 257.27,526.6 244,547 C237.57,556.88 234.8121,561.0333 228.3421,570.2033" fill="none" id="WishlistBook-Book" style="stroke:#181818;stroke-width:1;"/><line style="stroke:#181818;stroke-width:1;" x1="278.6589" x2="277.5939" y1="491.1748" y2="481.2317"/><line style="stroke:#181818;stroke-width:1;" x1="278.6589" x2="287.9061" y1="491.1748" y2="487.3683"/><line style="stroke:#181818;stroke-width:1;" x1="278.6589" x2="282.75" y1="491.1748" y2="484.3"/><ellipse cx="275.5906" cy="496.3309" fill="none" rx="4" ry="4" style="stroke:#181818;stroke-width:1;"/><line style="stroke:#181818;stroke-width:1;" x1="229.3044" x2="222.7677" y1="575.7777" y2="571.1656"/><line style="stroke:#181818;stroke-width:1;" x1="231.0339" x2="224.4972" y1="573.3264" y2="568.7143"/><line style="stroke:#181818;stroke-width:1;" x1="228.3421" x2="223.73" y1="570.2033" y2="576.74"/><text fill="#000000" font-family="sans-serif" font-size="13" lengthAdjust="spacing" textLength="69.418" x="255" y="543.0669">references</text></g><!--SRC=[hP51JyGW48Nl_8evQap_0BUrcvZUr6pZcS2O9RPWc5aJizt_Rg4j2r5lU-Dzm_1U7dfGHD2gm70M00rqHaBVT_iase2AqUnOmdu-7Eo8YVUVvW_-03jZEiRnxZwfLnpz5nQW7L25wBNg9-I3PpKy1wlnok86jVxauhsB43fdZ9DRv5puoqavjlnTkhnPEWwMRjN6e_SVLHi5I6riVXlpZfLrL5oR2udgTo7RQfokSJTKnOxp3ERjdZ30D3NDD2qVB-6eIAHZnFvyxLg2NXE9p2u-hIPR2G7VCQ3JIDN3kSVbyInNWofxOLBn_un-0000]--></g></svg>