<svg xmlns="http://www.w3.org/2000/svg" xmlns:xlink="http://www.w3.org/1999/xlink" contentStyleType="text/css" data-diagram-type="DESCRIPTION" height="563px" preserveAspectRatio="none" style="width:672px;height:563px;background:#FFFFFF;" version="1.1" viewBox="0 0 672 563" width="672px" zoomAndPan="magnify"><defs/><g><!--cluster ?????????? ??????????--><g class="cluster" data-entity="&#1050;&#1083;&#1080;&#1077;&#1085;&#1090;&#1089;&#1082;&#1080;&#1077; &#1087;&#1088;&#1080;&#1083;&#1086;&#1078;&#1077;&#1085;&#1080;&#1103;" data-source-line="1" data-uid="ent0002" id="cluster_&#1050;&#1083;&#1080;&#1077;&#1085;&#1090;&#1089;&#1082;&#1080;&#1077; &#1087;&#1088;&#1080;&#1083;&#1086;&#1078;&#1077;&#1085;&#1080;&#1103;"><path d="M98.5,6 L301.543,6 A3.75,3.75 0 0 1 304.043,8.5 L311.043,28.2969 L511.5,28.2969 A2.5,2.5 0 0 1 514,30.7969 L514,100.5 A2.5,2.5 0 0 1 511.5,103 L98.5,103 A2.5,2.5 0 0 1 96,100.5 L96,8.5 A2.5,2.5 0 0 1 98.5,6" fill="none" style="stroke:#000000;stroke-width:1.5;"/><line style="stroke:#000000;stroke-width:1.5;" x1="96" x2="311.043" y1="28.2969" y2="28.2969"/><text fill="#000000" font-family="sans-serif" font-size="14" font-weight="bold" lengthAdjust="spacing" textLength="202.043" x="100" y="20.9951">&#1050;&#1083;&#1080;&#1077;&#1085;&#1090;&#1089;&#1082;&#1080;&#1077; &#1087;&#1088;&#1080;&#1083;&#1086;&#1078;&#1077;&#1085;&#1080;&#1103;</text></g><!--cluster Backend API--><g class="cluster" data-entity="Backend API" data-source-line="6" data-uid="ent0005" id="cluster_Backend API"><path d="M8.5,127 L107.8896,127 A3.75,3.75 0 0 1 110.3896,129.5 L117.3896,149.2969 L603.5,149.2969 A2.5,2.5 0 0 1 606,151.7969 L606,433.5 A2.5,2.5 0 0 1 603.5,436 L8.5,436 A2.5,2.5 0 0 1 6,433.5 L6,129.5 A2.5,2.5 0 0 1 8.5,127" fill="none" style="stroke:#000000;stroke-width:1.5;"/><line style="stroke:#000000;stroke-width:1.5;" x1="6" x2="117.3896" y1="149.2969" y2="149.2969"/><text fill="#000000" font-family="sans-serif" font-size="14" font-weight="bold" lengthAdjust="spacing" textLength="98.3896" x="10" y="141.9951">Backend API</text></g><!--cluster ???? ??????--><g class="cluster" data-entity="&#1041;&#1072;&#1079;&#1072; &#1076;&#1072;&#1085;&#1085;&#1099;&#1093;" data-source-line="20" data-uid="ent0012" id="cluster_&#1041;&#1072;&#1079;&#1072; &#1076;&#1072;&#1085;&#1085;&#1099;&#1093;"><path d="M401.5,460 L506.8643,460 A3.75,3.75 0 0 1 509.3643,462.5 L516.3643,482.2969 L540.5,482.2969 A2.5,2.5 0 0 1 543,484.7969 L543,553.5 A2.5,2.5 0 0 1 540.5,556 L401.5,556 A2.5,2.5 0 0 1 399,553.5 L399,462.5 A2.5,2.5 0 0 1 401.5,460" fill="none" style="stroke:#000000;stroke-width:1.5;"/><line style="stroke:#000000;stroke-width:1.5;" x1="399" x2="516.3643" y1="482.2969" y2="482.2969"/><text fill="#000000" font-family="sans-serif" font-size="14" font-weight="bold" lengthAdjust="spacing" textLength="104.3643" x="403" y="474.9951">&#1041;&#1072;&#1079;&#1072; &#1076;&#1072;&#1085;&#1085;&#1099;&#1093;</text></g><!--entity mobile--><g class="entity" data-entity="mobile" data-source-line="2" data-uid="ent0003" id="entity_mobile"><rect fill="#F1F1F1" height="46.2969" rx="2.5" ry="2.5" style="stroke:#181818;stroke-width:0.5;" width="219.1016" x="278.5" y="41"/><rect fill="#F1F1F1" height="10" style="stroke:#181818;stroke-width:0.5;" width="15" x="477.6016" y="46"/><rect fill="#F1F1F1" height="2" style="stroke:#181818;stroke-width:0.5;" width="4" x="475.6016" y="48"/><rect fill="#F1F1F1" height="2" style="stroke:#181818;stroke-width:0.5;" width="4" x="475.6016" y="52"/><text fill="#000000" font-family="sans-serif" font-size="14" lengthAdjust="spacing" textLength="179.1016" x="293.5" y="73.9951">&#1052;&#1086;&#1073;&#1080;&#1083;&#1100;&#1085;&#1086;&#1077; &#1087;&#1088;&#1080;&#1083;&#1086;&#1078;&#1077;&#1085;&#1080;&#1077;</text></g><!--entity web--><g class="entity" data-entity="web" data-source-line="3" data-uid="ent0004" id="entity_web"><rect fill="#F1F1F1" height="46.2969" rx="2.5" ry="2.5" style="stroke:#181818;stroke-width:0.5;" width="131.2324" x="112.5" y="41"/><rect fill="#F1F1F1" height="10" style="stroke:#181818;stroke-width:0.5;" width="15" x="223.7324" y="46"/><rect fill="#F1F1F1" height="2" style="stroke:#181818;stroke-width:0.5;" width="4" x="221.7324" y="48"/><rect fill="#F1F1F1" height="2" style="stroke:#181818;stroke-width:0.5;" width="4" x="221.7324" y="52"/><text fill="#000000" font-family="sans-serif" font-size="14" lengthAdjust="spacing" textLength="91.2324" x="127.5" y="73.9951">&#1042;&#1077;&#1073;-&#1073;&#1088;&#1072;&#1091;&#1079;&#1077;&#1088;</text></g><!--entity auth--><g class="entity" data-entity="auth" data-source-line="7" data-uid="ent0006" id="entity_auth"><rect fill="#F1F1F1" height="46.2969" rx="2.5" ry="2.5" style="stroke:#181818;stroke-width:0.5;" width="193.0566" x="245.5" y="162"/><rect fill="#F1F1F1" height="10" style="stroke:#181818;stroke-width:0.5;" width="15" x="418.5566" y="167"/><rect fill="#F1F1F1" height="2" style="stroke:#181818;stroke-width:0.5;" width="4" x="416.5566" y="169"/><rect fill="#F1F1F1" height="2" style="stroke:#181818;stroke-width:0.5;" width="4" x="416.5566" y="173"/><text fill="#000000" font-family="sans-serif" font-size="14" lengthAdjust="spacing" textLength="153.0566" x="260.5" y="194.9951">&#1057;&#1077;&#1088;&#1074;&#1080;&#1089; &#1040;&#1074;&#1090;&#1086;&#1088;&#1080;&#1079;&#1072;&#1094;&#1080;&#1080;</text></g><!--entity books--><g class="entity" data-entity="books" data-source-line="9" data-uid="ent0007" id="entity_books"><rect fill="#F1F1F1" height="46.2969" rx="2.5" ry="2.5" style="stroke:#181818;stroke-width:0.5;" width="165.4736" x="213.5" y="268"/><rect fill="#F1F1F1" height="10" style="stroke:#181818;stroke-width:0.5;" width="15" x="358.9736" y="273"/><rect fill="#F1F1F1" height="2" style="stroke:#181818;stroke-width:0.5;" width="4" x="356.9736" y="275"/><rect fill="#F1F1F1" height="2" style="stroke:#181818;stroke-width:0.5;" width="4" x="356.9736" y="279"/><text fill="#000000" font-family="sans-serif" font-size="14" lengthAdjust="spacing" textLength="125.4736" x="228.5" y="300.9951">&#1057;&#1077;&#1088;&#1074;&#1080;&#1089; &#1050;&#1072;&#1090;&#1072;&#1083;&#1086;&#1075;&#1072;</text></g><!--entity payment--><g class="entity" data-entity="payment" data-source-line="11" data-uid="ent0008" id="entity_payment"><rect fill="#F1F1F1" height="46.2969" rx="2.5" ry="2.5" style="stroke:#181818;stroke-width:0.5;" width="153.6816" x="22" y="374"/><rect fill="#F1F1F1" height="10" style="stroke:#181818;stroke-width:0.5;" width="15" x="155.6816" y="379"/><rect fill="#F1F1F1" height="2" style="stroke:#181818;stroke-width:0.5;" width="4" x="153.6816" y="381"/><rect fill="#F1F1F1" height="2" style="stroke:#181818;stroke-width:0.5;" width="4" x="153.6816" y="385"/><text fill="#000000" font-family="sans-serif" font-size="14" lengthAdjust="spacing" textLength="113.6816" x="37" y="406.9951">&#1057;&#1077;&#1088;&#1074;&#1080;&#1089; &#1054;&#1087;&#1083;&#1072;&#1090;&#1099;</text></g><!--entity orders--><g class="entity" data-entity="orders" data-source-line="13" data-uid="ent0009" id="entity_orders"><rect fill="#F1F1F1" height="46.2969" rx="2.5" ry="2.5" style="stroke:#181818;stroke-width:0.5;" width="155.623" x="22" y="268"/><rect fill="#F1F1F1" height="10" style="stroke:#181818;stroke-width:0.5;" width="15" x="157.623" y="273"/><rect fill="#F1F1F1" height="2" style="stroke:#181818;stroke-width:0.5;" width="4" x="155.623" y="275"/><rect fill="#F1F1F1" height="2" style="stroke:#181818;stroke-width:0.5;" width="4" x="155.623" y="279"/><text fill="#000000" font-family="sans-serif" font-size="14" lengthAdjust="spacing" textLength="115.623" x="37" y="300.9951">&#1057;&#1077;&#1088;&#1074;&#1080;&#1089; &#1047;&#1072;&#1082;&#1072;&#1079;&#1086;&#1074;</text></g><!--entity email--><g class="entity" data-entity="email" data-source-line="15" data-uid="ent0010" id="entity_email"><rect fill="#F1F1F1" height="46.2969" rx="2.5" ry="2.5" style="stroke:#181818;stroke-width:0.5;" width="135.6143" x="211" y="374"/><rect fill="#F1F1F1" height="10" style="stroke:#181818;stroke-width:0.5;" width="15" x="326.6143" y="379"/><rect fill="#F1F1F1" height="2" style="stroke:#181818;stroke-width:0.5;" width="4" x="324.6143" y="381"/><rect fill="#F1F1F1" height="2" style="stroke:#181818;stroke-width:0.5;" width="4" x="324.6143" y="385"/><text fill="#000000" font-family="sans-serif" font-size="14" lengthAdjust="spacing" textLength="95.6143" x="226" y="406.9951">Email &#1057;&#1077;&#1088;&#1074;&#1080;&#1089;</text></g><!--entity analytics--><g class="entity" data-entity="analytics" data-source-line="17" data-uid="ent0011" id="entity_analytics"><rect fill="#F1F1F1" height="46.2969" rx="2.5" ry="2.5" style="stroke:#181818;stroke-width:0.5;" width="176.9375" x="413.5" y="268"/><rect fill="#F1F1F1" height="10" style="stroke:#181818;stroke-width:0.5;" width="15" x="570.4375" y="273"/><rect fill="#F1F1F1" height="2" style="stroke:#181818;stroke-width:0.5;" width="4" x="568.4375" y="275"/><rect fill="#F1F1F1" height="2" style="stroke:#181818;stroke-width:0.5;" width="4" x="568.4375" y="279"/><text fill="#000000" font-family="sans-serif" font-size="14" lengthAdjust="spacing" textLength="136.9375" x="428.5" y="300.9951">&#1057;&#1077;&#1088;&#1074;&#1080;&#1089; &#1040;&#1085;&#1072;&#1083;&#1080;&#1090;&#1080;&#1082;&#1080;</text></g><!--entity db--><g class="entity" data-entity="db" data-source-line="21" data-uid="ent0013" id="entity_db"><path d="M415,505 C415,495 470.9102,495 470.9102,495 C470.9102,495 526.8203,495 526.8203,505 L526.8203,530.2969 C526.8203,540.2969 470.9102,540.2969 470.9102,540.2969 C470.9102,540.2969 415,540.2969 415,530.2969 L415,505" fill="#F1F1F1" style="stroke:#181818;stroke-width:0.5;"/><path d="M415,505 C415,515 470.9102,515 470.9102,515 C470.9102,515 526.8203,515 526.8203,505" fill="none" style="stroke:#181818;stroke-width:0.5;"/><text fill="#000000" font-family="sans-serif" font-size="14" lengthAdjust="spacing" textLength="91.8203" x="425" y="531.9951">BookStoreDb</text></g><!--link mobile to auth--><g class="link" data-entity-1="mobile" data-entity-2="auth" data-source-line="25" data-uid="lnk14" id="link_mobile_auth"><path d="M379.46,87.1 C371.25,108.34 361.0644,134.684 352.8144,156.014" fill="none" id="mobile-to-auth" style="stroke:#181818;stroke-width:1;"/><polygon fill="#181818" points="350.65,161.61,357.6273,154.6589,352.4537,156.9467,350.166,151.773,350.65,161.61" style="stroke:#181818;stroke-width:1;"/></g><!--link web to auth--><g class="link" data-entity-1="web" data-entity-2="auth" data-source-line="26" data-uid="lnk15" id="link_web_auth"><path d="M208.46,87.1 C237.83,108.41 277.1635,136.9566 306.5635,158.2866" fill="none" id="web-to-auth" style="stroke:#181818;stroke-width:1;"/><polygon fill="#181818" points="311.42,161.81,306.4842,153.2872,307.3729,158.8738,301.7863,159.7625,311.42,161.81" style="stroke:#181818;stroke-width:1;"/></g><!--link auth to books--><g class="link" data-entity-1="auth" data-entity-2="books" data-source-line="28" data-uid="lnk16" id="link_auth_books"><path d="M332.24,208.06 C324.44,225.7 315.9664,244.8525 308.1664,262.4925" fill="none" id="auth-to-books" style="stroke:#181818;stroke-width:1;"/><polygon fill="#181818" points="305.74,267.98,313.038,261.3664,307.762,263.4071,305.7213,258.1312,305.74,267.98" style="stroke:#181818;stroke-width:1;"/></g><!--link auth to orders--><g class="link" data-entity-1="auth" data-entity-2="orders" data-source-line="29" data-uid="lnk17" id="link_auth_orders"><path d="M290.68,208.06 C249.61,225.7 197.8126,247.9711 156.7626,265.6111" fill="none" id="auth-to-orders" style="stroke:#181818;stroke-width:1;"/><polygon fill="#181818" points="151.25,267.98,161.0981,268.1018,155.8438,266.0059,157.9396,260.7517,151.25,267.98" style="stroke:#181818;stroke-width:1;"/></g><!--link auth to analytics--><g class="link" data-entity-1="auth" data-entity-2="analytics" data-source-line="30" data-uid="lnk18" id="link_auth_analytics"><path d="M375.93,208.06 C403.08,225.7 435.9493,247.0702 463.0893,264.7102" fill="none" id="auth-to-analytics" style="stroke:#181818;stroke-width:1;"/><polygon fill="#181818" points="468.12,267.98,462.7537,259.7215,463.9277,265.2552,458.394,266.4291,468.12,267.98" style="stroke:#181818;stroke-width:1;"/></g><!--link orders to payment--><g class="link" data-entity-1="orders" data-entity-2="payment" data-source-line="31" data-uid="lnk19" id="link_orders_payment"><path d="M99.79,314.06 C99.62,331.7 99.4378,350.3403 99.2678,367.9803" fill="none" id="orders-to-payment" style="stroke:#181818;stroke-width:1;"/><polygon fill="#181818" points="99.21,373.98,103.2965,365.019,99.2582,368.9802,95.2969,364.9419,99.21,373.98" style="stroke:#181818;stroke-width:1;"/></g><!--link orders to email--><g class="link" data-entity-1="orders" data-entity-2="email" data-source-line="32" data-uid="lnk20" id="link_orders_email"><path d="M137.96,314.06 C168.34,331.7 205.5421,353.3257 235.9021,370.9657" fill="none" id="orders-to-email" style="stroke:#181818;stroke-width:1;"/><polygon fill="#181818" points="241.09,373.98,235.3177,366,236.7668,371.4681,231.2987,372.9171,241.09,373.98" style="stroke:#181818;stroke-width:1;"/></g><!--link books to db--><g class="link" data-entity-1="books" data-entity-2="db" data-source-line="34" data-uid="lnk21" id="link_books_db"><path d="M347.93,314.02 C374.66,327.74 405.79,347.8 426,374 C454.12,410.46 464.0952,458.9215 468.0452,488.8615" fill="none" id="books-to-db" style="stroke:#181818;stroke-width:1;"/><polygon fill="#181818" points="468.83,494.81,471.6185,485.3641,468.176,489.853,463.6872,486.4105,468.83,494.81" style="stroke:#181818;stroke-width:1;"/></g><!--link auth to db--><g class="link" data-entity-1="auth" data-entity-2="db" data-source-line="35" data-uid="lnk22" id="link_auth_db"><path d="M438.68,203.35 C506.04,217.64 587.37,240.06 608,268 C665.34,345.69 559.2298,446.3002 504.1598,490.9702" fill="none" id="auth-to-db" style="stroke:#181818;stroke-width:1;"/><polygon fill="#181818" points="499.5,494.75,509.0095,492.1869,503.3831,491.6002,503.9698,485.9738,499.5,494.75" style="stroke:#181818;stroke-width:1;"/></g><!--link orders to db--><g class="link" data-entity-1="orders" data-entity-2="db" data-source-line="36" data-uid="lnk23" id="link_orders_db"><path d="M178.27,310.48 C244.98,327.26 334.73,352.58 365,374 C376.99,382.48 426.4006,452.3266 452.6606,490.0266" fill="none" id="orders-to-db" style="stroke:#181818;stroke-width:1;"/><polygon fill="#181818" points="456.09,494.95,454.2282,485.2787,453.2322,490.8472,447.6637,489.8512,456.09,494.95" style="stroke:#181818;stroke-width:1;"/></g><!--link payment to db--><g class="link" data-entity-1="payment" data-entity-2="db" data-source-line="37" data-uid="lnk24" id="link_payment_db"><path d="M140.32,420.18 C156.72,428.4 175.95,437.34 194,444 C268.62,471.53 352.3046,491.7063 408.9746,503.9163" fill="none" id="payment-to-db" style="stroke:#181818;stroke-width:1;"/><polygon fill="#181818" points="414.84,505.18,406.8844,499.3741,409.9522,504.1269,405.1994,507.1946,414.84,505.18" style="stroke:#181818;stroke-width:1;"/></g><!--link analytics to db--><g class="link" data-entity-1="analytics" data-entity-2="db" data-source-line="38" data-uid="lnk25" id="link_analytics_db"><path d="M503.4,314.14 C504.81,343.94 505.69,398.48 497,444 C493.64,461.6 488.9691,475.098 483.0991,489.248" fill="none" id="analytics-to-db" style="stroke:#181818;stroke-width:1;"/><polygon fill="#181818" points="480.8,494.79,487.9433,488.0096,482.7159,490.1716,480.5539,484.9442,480.8,494.79" style="stroke:#181818;stroke-width:1;"/></g><!--SRC=[VL7BIiD05DtFLmpTkEel2BuMxWINqiKa6JIqcGbDH8e8RKKt5NniX2A2Vv1MQqDBsb-uyqVUkTEcLIIBflTnphrdpes5tnJdajTW27F8OGA5wPiUp6pCOMcw6CnX0T-s1RbvhF5hnlaPl65nP9lc0HkBVz4mQN2Hy4XxOKiIwmKRepgC49cPMvZ2n7G9SoKzTiDOlDQpZu5K0TyxENORVHt5MacLejOFIuCnokbnU8AnwSE2TaznwZt-vpKxKroc5woAEaHu7pAI_0aPaJojcqabwnsMo42c6H0Z5fq8OPMSLzmomzyKDus9fTk1RFzTT1I9iCMtgOILjep8QXiAUacEByhj_Pm5IhGwQUWdlyo5PvAISVZ2eC2R3yoTipaGgV14OY-0HfockYqFFHeLq85s-85MIlffg5N2t6LvlRxhpCOhRX9clvGwJyjqzVGotuXq7IgkNTqgEHiOJQC2IYg7OBm5nMmre0IkbwmAFm00]--></g></svg>