<svg xmlns="http://www.w3.org/2000/svg" xmlns:xlink="http://www.w3.org/1999/xlink" contentStyleType="text/css" data-diagram-type="DESCRIPTION" height="604px" preserveAspectRatio="none" style="width:845px;height:604px;background:#FFFFFF;" version="1.1" viewBox="0 0 845 604" width="845px" zoomAndPan="magnify"><defs/><g><!--cluster laptop--><g class="cluster" data-entity="laptop" data-source-line="1" data-uid="ent0002" id="cluster_laptop"><polygon fill="none" points="16,16,26,6,277,6,277,131,267,141,16,141,16,16" style="stroke:#181818;stroke-width:1;"/><line style="stroke:#181818;stroke-width:1;" x1="267" x2="277" y1="16" y2="6"/><line style="stroke:#181818;stroke-width:1;" x1="16" x2="267" y1="16" y2="16"/><line style="stroke:#181818;stroke-width:1;" x1="267" x2="267" y1="16" y2="141"/><text fill="#000000" font-family="sans-serif" font-size="14" font-weight="bold" lengthAdjust="spacing" textLength="92.2715" x="96.3643" y="31.9951">&#1050;&#1086;&#1084;&#1087;&#1100;&#1102;&#1090;&#1077;&#1088;</text></g><!--cluster mobile--><g class="cluster" data-entity="mobile" data-source-line="5" data-uid="ent0004" id="cluster_mobile"><polygon fill="none" points="317,16,327,6,828,6,828,131,818,141,317,141,317,16" style="stroke:#181818;stroke-width:1;"/><line style="stroke:#181818;stroke-width:1;" x1="818" x2="828" y1="16" y2="6"/><line style="stroke:#181818;stroke-width:1;" x1="317" x2="818" y1="16" y2="16"/><line style="stroke:#181818;stroke-width:1;" x1="818" x2="818" y1="16" y2="141"/><text fill="#000000" font-family="sans-serif" font-size="14" font-weight="bold" lengthAdjust="spacing" textLength="185.7803" x="475.6099" y="31.9951">&#1052;&#1086;&#1073;&#1080;&#1083;&#1100;&#1085;&#1086;&#1077; &#1091;&#1089;&#1090;&#1088;&#1086;&#1081;&#1089;&#1090;&#1074;&#1086;</text></g><!--cluster webapp--><g class="cluster" data-entity="webapp" data-source-line="10" data-uid="ent0007" id="cluster_webapp"><path d="M47.4648,210.2401 C54.4543,194.2715 65.4142,193.2175 77.9967,203.8112 C81.7308,182.6192 99.7172,179.9919 113.1707,194.1364 C124.6264,182.1606 138.9033,183.0093 144.4275,200.4409 C162.8122,185.2777 175.0375,191.9893 181,213 C183.5887,212.4432 184.9714,213.2555 184.493,216.1259 C198.1191,222.2742 195.9817,234.8149 184.9451,241.4043 C197.031,248.1084 196.8263,260.3312 184.8229,266.92 C194.0643,273.5041 193.3548,284.5717 183.3161,289.891 C193.5548,297.0283 195.3663,308.5313 182.5554,314.9695 C194.2379,323.6614 194.7378,332.483 183.8173,342.2216 C194.8808,348.9665 195.335,356.2301 185.9394,364.8903 C196.1893,371.7451 199.3623,380.9111 187.133,388.8841 C198.959,397.3802 199.1543,406.5016 185.8119,413.6555 C197.0783,420.5033 198.1605,432.2879 185.4075,438.7484 C198.4698,445.1773 198.0119,456.7083 186.7506,464.4103 C198.7642,472.5083 195.3567,482.7227 184.5255,488.7306 C196.5581,498.1855 195.622,505.559 182.4728,512.8728 C197.0001,520.1844 198.4735,530.4946 184.6463,540.0719 C196.4959,555.8457 189.727,563.3752 174,569 C174.6353,568.8835 175.0361,569.1033 174.8532,569.8289 C169.414,586.7859 155.2832,589.7579 144.1535,575.4092 C136.9086,590.9534 126.6341,597.3333 112.5871,582.4707 C100.7206,595.015 84.0548,593.3391 77.3425,576.325 C57.0719,590.5155 42.7729,588.6384 37,562 C38.258,560.8804 39.3623,561.4288 39.6628,562.9614 C28.3401,557.454 29.6094,546.7992 38.912,540.5993 C24.0386,535.6735 23.5742,523.691 34.6516,514.5249 C22.235,507.6136 21.2044,496.8579 33.8178,489.1249 C23.2896,480.6584 23.2382,470.9383 35.2875,463.7811 C25.097,457.7641 24.676,447.2177 34.2986,440.364 C23.3244,433.458 21.6422,425.647 31.552,416.3522 C17.3679,409.6424 13.9677,398.77 27.0799,387.7868 C17.8971,378.5001 20.1434,367.8986 32.7086,363.6924 C22.3951,356.508 23.6574,344.8232 34.0288,338.733 C23.3615,332.8384 20.9566,324.7496 31.5366,316.4759 C22.5602,306.3804 21.9815,297.5485 35.4659,290.9044 C21.6282,284.1448 23.986,273.7512 34.3016,265.8684 C22.3805,257.1692 24.1197,246.3499 37.2,240.508 C23.3091,225.4267 22.7624,214.159 44,206 C47.3243,205.5722 48.5591,207.0573 47.4648,210.2401" fill="none" style="stroke:#181818;stroke-width:1;"/><text fill="#000000" font-family="sans-serif" font-size="14" font-weight="bold" lengthAdjust="spacing" textLength="136.5957" x="40.7021" y="223.9951">&#1042;&#1077;&#1073; &#1087;&#1088;&#1080;&#1083;&#1086;&#1078;&#1077;&#1085;&#1080;&#1077;</text></g><!--entity ???????\nChrome/Firefox/Safari--><g class="entity" data-entity="&#1041;&#1088;&#1072;&#1091;&#1079;&#1077;&#1088;\nChrome/Firefox/Safari" data-source-line="2" data-uid="ent0003" id="entity_&#1041;&#1088;&#1072;&#1091;&#1079;&#1077;&#1088;\nChrome/Firefox/Safari"><rect fill="#F1F1F1" height="62.5938" rx="2.5" ry="2.5" style="stroke:#181818;stroke-width:0.5;" width="193.3643" x="59.5" y="54"/><rect fill="#F1F1F1" height="10" style="stroke:#181818;stroke-width:0.5;" width="15" x="232.8643" y="59"/><rect fill="#F1F1F1" height="2" style="stroke:#181818;stroke-width:0.5;" width="4" x="230.8643" y="61"/><rect fill="#F1F1F1" height="2" style="stroke:#181818;stroke-width:0.5;" width="4" x="230.8643" y="65"/><text fill="#000000" font-family="sans-serif" font-size="14" lengthAdjust="spacing" textLength="60.2998" x="74.5" y="86.9951">&#1041;&#1088;&#1072;&#1091;&#1079;&#1077;&#1088;</text><text fill="#000000" font-family="sans-serif" font-size="14" lengthAdjust="spacing" textLength="153.3643" x="74.5" y="103.292">Chrome/Firefox/Safari</text></g><!--entity ????????? ??????????\niOS/Android--><g class="entity" data-entity="&#1052;&#1086;&#1073;&#1080;&#1083;&#1100;&#1085;&#1086;&#1077; &#1087;&#1088;&#1080;&#1083;&#1086;&#1078;&#1077;&#1085;&#1080;&#1077;\niOS/Android" data-source-line="6" data-uid="ent0005" id="entity_&#1052;&#1086;&#1073;&#1080;&#1083;&#1100;&#1085;&#1086;&#1077; &#1087;&#1088;&#1080;&#1083;&#1086;&#1078;&#1077;&#1085;&#1080;&#1077;\niOS/Android"><rect fill="#F1F1F1" height="62.5938" rx="2.5" ry="2.5" style="stroke:#181818;stroke-width:0.5;" width="219.1016" x="584.5" y="54"/><rect fill="#F1F1F1" height="10" style="stroke:#181818;stroke-width:0.5;" width="15" x="783.6016" y="59"/><rect fill="#F1F1F1" height="2" style="stroke:#181818;stroke-width:0.5;" width="4" x="781.6016" y="61"/><rect fill="#F1F1F1" height="2" style="stroke:#181818;stroke-width:0.5;" width="4" x="781.6016" y="65"/><text fill="#000000" font-family="sans-serif" font-size="14" lengthAdjust="spacing" textLength="179.1016" x="599.5" y="86.9951">&#1052;&#1086;&#1073;&#1080;&#1083;&#1100;&#1085;&#1086;&#1077; &#1087;&#1088;&#1080;&#1083;&#1086;&#1078;&#1077;&#1085;&#1080;&#1077;</text><text fill="#000000" font-family="sans-serif" font-size="14" lengthAdjust="spacing" textLength="82.9473" x="599.5" y="103.292">iOS/Android</text></g><!--entity ????????? ???????\nSafari/Chrome--><g class="entity" data-entity="&#1052;&#1086;&#1073;&#1080;&#1083;&#1100;&#1085;&#1099;&#1081; &#1073;&#1088;&#1072;&#1091;&#1079;&#1077;&#1088;\nSafari/Chrome" data-source-line="7" data-uid="ent0006" id="entity_&#1052;&#1086;&#1073;&#1080;&#1083;&#1100;&#1085;&#1099;&#1081; &#1073;&#1088;&#1072;&#1091;&#1079;&#1077;&#1088;\nSafari/Chrome"><rect fill="#F1F1F1" height="62.5938" rx="2.5" ry="2.5" style="stroke:#181818;stroke-width:0.5;" width="188.6611" x="360.5" y="54"/><rect fill="#F1F1F1" height="10" style="stroke:#181818;stroke-width:0.5;" width="15" x="529.1611" y="59"/><rect fill="#F1F1F1" height="2" style="stroke:#181818;stroke-width:0.5;" width="4" x="527.1611" y="61"/><rect fill="#F1F1F1" height="2" style="stroke:#181818;stroke-width:0.5;" width="4" x="527.1611" y="65"/><text fill="#000000" font-family="sans-serif" font-size="14" lengthAdjust="spacing" textLength="148.6611" x="375.5" y="86.9951">&#1052;&#1086;&#1073;&#1080;&#1083;&#1100;&#1085;&#1099;&#1081; &#1073;&#1088;&#1072;&#1091;&#1079;&#1077;&#1088;</text><text fill="#000000" font-family="sans-serif" font-size="14" lengthAdjust="spacing" textLength="100.5566" x="375.5" y="103.292">Safari/Chrome</text></g><!--entity frontend--><g class="entity" data-entity="frontend" data-source-line="11" data-uid="ent0008" id="entity_frontend"><rect fill="#F1F1F1" height="46.2969" rx="2.5" ry="2.5" style="stroke:#181818;stroke-width:0.5;" width="103.1094" x="55.5" y="233"/><rect fill="#F1F1F1" height="10" style="stroke:#181818;stroke-width:0.5;" width="15" x="138.6094" y="238"/><rect fill="#F1F1F1" height="2" style="stroke:#181818;stroke-width:0.5;" width="4" x="136.6094" y="240"/><rect fill="#F1F1F1" height="2" style="stroke:#181818;stroke-width:0.5;" width="4" x="136.6094" y="244"/><text fill="#000000" font-family="sans-serif" font-size="14" lengthAdjust="spacing" textLength="63.1094" x="70.5" y="265.9951">Frontend</text></g><!--entity backend--><g class="entity" data-entity="backend" data-source-line="13" data-uid="ent0009" id="entity_backend"><rect fill="#F1F1F1" height="46.2969" rx="2.5" ry="2.5" style="stroke:#181818;stroke-width:0.5;" width="126.96" x="45.5" y="360.5"/><rect fill="#F1F1F1" height="10" style="stroke:#181818;stroke-width:0.5;" width="15" x="152.46" y="365.5"/><rect fill="#F1F1F1" height="2" style="stroke:#181818;stroke-width:0.5;" width="4" x="150.46" y="367.5"/><rect fill="#F1F1F1" height="2" style="stroke:#181818;stroke-width:0.5;" width="4" x="150.46" y="371.5"/><text fill="#000000" font-family="sans-serif" font-size="14" lengthAdjust="spacing" textLength="86.96" x="60.5" y="393.4951">Backend API</text></g><!--entity database--><g class="entity" data-entity="database" data-source-line="15" data-uid="ent0010" id="entity_database"><path d="M50.5,526 C50.5,516 107.7808,516 107.7808,516 C107.7808,516 165.0615,516 165.0615,526 L165.0615,551.2969 C165.0615,561.2969 107.7808,561.2969 107.7808,561.2969 C107.7808,561.2969 50.5,561.2969 50.5,551.2969 L50.5,526" fill="#F1F1F1" style="stroke:#181818;stroke-width:0.5;"/><path d="M50.5,526 C50.5,536 107.7808,536 107.7808,536 C107.7808,536 165.0615,536 165.0615,526" fill="none" style="stroke:#181818;stroke-width:0.5;"/><text fill="#000000" font-family="sans-serif" font-size="14" lengthAdjust="spacing" textLength="94.5615" x="60.5" y="552.9951">&#1041;&#1072;&#1079;&#1072; &#1076;&#1072;&#1085;&#1085;&#1099;&#1093;</text></g><g class="entity" data-entity="GMN15" data-source-line="26" data-uid="ent0016" id="entity_GMN15"><path d="M205,236 L205,252 L158.68,256 L205,260 L205,276.2656 A0,0 0 0 0 205,276.2656 L369.4507,276.2656 A0,0 0 0 0 369.4507,276.2656 L369.4507,246 L359.4507,236 L205,236 A0,0 0 0 0 205,236" fill="#FEFFDD" style="stroke:#181818;stroke-width:0.5;"/><path d="M359.4507,236 L359.4507,246 L369.4507,246 L359.4507,236" fill="#FEFFDD" style="stroke:#181818;stroke-width:0.5;"/><text fill="#000000" font-family="sans-serif" font-size="13" lengthAdjust="spacing" textLength="137.998" x="211" y="253.0669">&#1057;&#1090;&#1072;&#1090;&#1080;&#1095;&#1077;&#1089;&#1082;&#1080;&#1077; &#1092;&#1072;&#1081;&#1083;&#1099;</text><text fill="#000000" font-family="sans-serif" font-size="13" lengthAdjust="spacing" textLength="143.4507" x="211" y="268.1997">HTML, CSS, JavaScript</text></g><g class="entity" data-entity="GMN18" data-source-line="31" data-uid="ent0019" id="entity_GMN18"><path d="M207.5,356 L207.5,379.5 L172.57,383.5 L207.5,387.5 L207.5,411.3984 A0,0 0 0 0 207.5,411.3984 L360.2583,411.3984 A0,0 0 0 0 360.2583,411.3984 L360.2583,366 L350.2583,356 L207.5,356 A0,0 0 0 0 207.5,356" fill="#FEFFDD" style="stroke:#181818;stroke-width:0.5;"/><path d="M350.2583,356 L350.2583,366 L360.2583,366 L350.2583,356" fill="#FEFFDD" style="stroke:#181818;stroke-width:0.5;"/><text fill="#000000" font-family="sans-serif" font-size="13" lengthAdjust="spacing" textLength="99.9756" x="213.5" y="373.0669">&#1041;&#1080;&#1079;&#1085;&#1077;&#1089;-&#1083;&#1086;&#1075;&#1080;&#1082;&#1072;</text><text fill="#000000" font-family="sans-serif" font-size="13" lengthAdjust="spacing" textLength="117.1777" x="213.5" y="388.1997">&#1040;&#1091;&#1090;&#1077;&#1085;&#1090;&#1080;&#1092;&#1080;&#1082;&#1072;&#1094;&#1080;&#1103;</text><text fill="#000000" font-family="sans-serif" font-size="13" lengthAdjust="spacing" textLength="131.7583" x="213.5" y="403.3325">&#1042;&#1072;&#1083;&#1080;&#1076;&#1072;&#1094;&#1080;&#1103; &#1076;&#1072;&#1085;&#1085;&#1099;&#1093;</text></g><g class="entity" data-entity="GMN21" data-source-line="37" data-uid="ent0022" id="entity_GMN21"><path d="M205.5,488 L205.5,534.5 L165.7,538.5 L205.5,542.5 L205.5,588.7969 A0,0 0 0 0 205.5,588.7969 L290.6748,588.7969 A0,0 0 0 0 290.6748,588.7969 L290.6748,498 L280.6748,488 L205.5,488 A0,0 0 0 0 205.5,488" fill="#FEFFDD" style="stroke:#181818;stroke-width:0.5;"/><path d="M280.6748,488 L280.6748,498 L290.6748,498 L280.6748,488" fill="#FEFFDD" style="stroke:#181818;stroke-width:0.5;"/><text fill="#000000" font-family="sans-serif" font-size="13" lengthAdjust="spacing" textLength="64.1748" x="211.5" y="505.0669">&#1058;&#1072;&#1073;&#1083;&#1080;&#1094;&#1099;:</text><text fill="#000000" font-family="sans-serif" font-size="13" lengthAdjust="spacing" textLength="45.2271" x="211.5" y="520.1997">- Users</text><text fill="#000000" font-family="sans-serif" font-size="13" lengthAdjust="spacing" textLength="47.9502" x="211.5" y="535.3325">- Books</text><text fill="#000000" font-family="sans-serif" font-size="13" lengthAdjust="spacing" textLength="52.7681" x="211.5" y="550.4653">- Orders</text><text fill="#000000" font-family="sans-serif" font-size="13" lengthAdjust="spacing" textLength="62.5625" x="211.5" y="565.5981">- Reviews</text><text fill="#000000" font-family="sans-serif" font-size="13" lengthAdjust="spacing" textLength="60.7915" x="211.5" y="580.731">&#1080; &#1076;&#1088;&#1091;&#1075;&#1080;&#1077;</text></g><!--link laptop to frontend--><g class="link" data-entity-1="laptop" data-entity-2="frontend" data-source-line="18" data-uid="lnk11" id="link_laptop_frontend"><path d="M36.8737,141.1474 C36.9143,141.2683 36.9551,141.3891 36.996,141.5099 C37.1595,141.9931 37.3247,142.4757 37.4915,142.9576 C37.8251,143.9213 38.1654,144.8819 38.5123,145.8379 C39.9002,149.6622 41.395,153.4138 43,157 C55.45,184.82 71.7021,208.871 85.9821,228.011" fill="none" id="laptop-to-frontend" style="stroke:#181818;stroke-width:1;"/><polygon fill="#181818" points="89.57,232.82,87.3941,223.2145,86.5801,228.8125,80.9821,227.9984,89.57,232.82" style="stroke:#181818;stroke-width:1;"/><text fill="#000000" font-family="sans-serif" font-size="13" lengthAdjust="spacing" textLength="79.625" x="56" y="178.0669">HTTP/HTTPS</text></g><!--link mobile to frontend--><g class="link" data-entity-1="mobile" data-entity-2="frontend" data-source-line="19" data-uid="lnk12" id="link_mobile_frontend"><path d="M316.9084,100.5637 C316.6844,100.9279 316.4561,101.2973 316.2237,101.6715 C315.7589,102.4199 315.2774,103.1879 314.7797,103.9736 C312.7889,107.1164 310.5388,110.5419 308.0575,114.1275 C298.1325,128.47 284.51,145.375 269,157 C237.89,180.31 221.51,170.3 188,190 C167.33,202.16 150.775,215.257 135.315,228.857" fill="none" id="mobile-to-frontend" style="stroke:#181818;stroke-width:1;"/><polygon fill="#181818" points="130.81,232.82,140.2094,229.8788,134.5641,229.5175,134.9255,223.8722,130.81,232.82" style="stroke:#181818;stroke-width:1;"/><text fill="#000000" font-family="sans-serif" font-size="13" lengthAdjust="spacing" textLength="79.625" x="257" y="178.0669">HTTP/HTTPS</text></g><!--link frontend to backend--><g class="link" data-entity-1="frontend" data-entity-2="backend" data-source-line="21" data-uid="lnk13" id="link_frontend_backend"><path d="M107.35,279.15 C107.72,301.95 108.1856,331.2807 108.5456,354.1507" fill="none" id="frontend-to-backend" style="stroke:#181818;stroke-width:1;"/><polygon fill="#181818" points="108.64,360.15,112.4979,351.0882,108.5613,355.1506,104.4988,351.2141,108.64,360.15" style="stroke:#181818;stroke-width:1;"/><text fill="#000000" font-family="sans-serif" font-size="13" lengthAdjust="spacing" textLength="79.625" x="109" y="322.0669">HTTP/HTTPS</text></g><!--link backend to database--><g class="link" data-entity-1="backend" data-entity-2="database" data-source-line="23" data-uid="lnk14" id="link_backend_database"><path d="M108.85,406.75 C108.66,435.92 108.3694,480.7801 108.1794,509.7201" fill="none" id="backend-to-database" style="stroke:#181818;stroke-width:1;"/><polygon fill="#181818" points="108.14,515.72,112.199,506.7465,108.1728,510.7201,104.1992,506.6939,108.14,515.72" style="stroke:#181818;stroke-width:1;"/><text fill="#000000" font-family="sans-serif" font-size="13" lengthAdjust="spacing" textLength="86.855" x="109" y="454.0669">SQL &#1079;&#1072;&#1087;&#1088;&#1086;&#1089;&#1099;</text></g><!--SRC=[TLB1Jjj04BtxAqOv4_cUGoL0GhIYWjRfgN3On9jYaUnQ6mELgaeXK7e8QWl7gfVs2vmMjmuqwI_C_X4pQySGA0TRis_Vp7j-OwL32JNyYZFyY__icVraXvZPGGr47xeYJdGCxpo0rtXk1vZQO_p3rzjgTTVedlJN8YCx-gqVY8umqOxttlDKCV8RZHnZZjVs3ATKPs2FxP4TqfWPJhZ2dpXpEZtTYhgor7dOHxu63D3XDsO4vfXjgsWpy9TLQ7GKxZnij2ES08uNFHSc_SAwyzhkwlsGp5xGtF5_XPp1GzaISH54M_TYhQHAeBPcj4ga2XsbKnw8iiXQ4Uqzmc5vwwaZjefpmGj58bgYptcTOqe-Ky1BAgRy1VQ3QvXps6-vaNhzIIK83LXlDhTyVWLU6UNZ1A-2cLEQkKUPeyoe73OWUB41RD75DACDZdZPYGGJlTbDG7VkXe3VQS4fFRdzIEaVuHMd2VQ4-YUqen5nrflFDvPWDGYMu9au447RH77YiJAFlJ_yDZZAAYSZKvvRT-lwHS0LfdptXNwp8M_FQPyK5_QKwizyVK7wrmHUpi65m1yLhvP08tuGVyn3xAaTDGYfmwk-D7rNhMYzLrIR9fo3B-L190-vnfpqx83-IRQSLNet]--></g></svg>