<svg xmlns="http://www.w3.org/2000/svg" xmlns:xlink="http://www.w3.org/1999/xlink" contentStyleType="text/css" data-diagram-type="DESCRIPTION" height="498px" preserveAspectRatio="none" style="width:1172px;height:498px;background:#FFFFFF;" version="1.1" viewBox="0 0 1172 498" width="1172px" zoomAndPan="magnify"><defs/><g><!--cluster front--><g class="cluster" data-entity="front" data-source-line="1" data-uid="ent0002" id="cluster_front"><path d="M552.5,6 L755.543,6 A3.75,3.75 0 0 1 758.043,8.5 L765.043,28.2969 L1034.5,28.2969 A2.5,2.5 0 0 1 1037,30.7969 L1037,116.5 A2.5,2.5 0 0 1 1034.5,119 L552.5,119 A2.5,2.5 0 0 1 550,116.5 L550,8.5 A2.5,2.5 0 0 1 552.5,6" fill="none" style="stroke:#000000;stroke-width:1.5;"/><line style="stroke:#000000;stroke-width:1.5;" x1="550" x2="765.043" y1="28.2969" y2="28.2969"/><text fill="#000000" font-family="sans-serif" font-size="14" font-weight="bold" lengthAdjust="spacing" textLength="202.043" x="554" y="20.9951">&#1050;&#1083;&#1080;&#1077;&#1085;&#1090;&#1089;&#1082;&#1080;&#1077; &#1087;&#1088;&#1080;&#1083;&#1086;&#1078;&#1077;&#1085;&#1080;&#1103;</text></g><!--cluster back--><g class="cluster" data-entity="back" data-source-line="6" data-uid="ent0005" id="cluster_back"><path d="M8.5,159 L127.3379,159 A3.75,3.75 0 0 1 129.8379,161.5 L136.8379,181.2969 L563.5,181.2969 A2.5,2.5 0 0 1 566,183.7969 L566,382.5 A2.5,2.5 0 0 1 563.5,385 L8.5,385 A2.5,2.5 0 0 1 6,382.5 L6,161.5 A2.5,2.5 0 0 1 8.5,159" fill="none" style="stroke:#000000;stroke-width:1.5;"/><line style="stroke:#000000;stroke-width:1.5;" x1="6" x2="136.8379" y1="181.2969" y2="181.2969"/><text fill="#000000" font-family="sans-serif" font-size="14" font-weight="bold" lengthAdjust="spacing" textLength="117.8379" x="10" y="173.9951">&#1041;&#1080;&#1079;&#1085;&#1077;&#1089;-&#1083;&#1086;&#1075;&#1080;&#1082;&#1072;</text></g><!--cluster integration--><g class="cluster" data-entity="integration" data-source-line="13" data-uid="ent0010" id="cluster_integration"><path d="M608.5,272 L794.542,272 A3.75,3.75 0 0 1 797.042,274.5 L804.042,294.2969 L919.5,294.2969 A2.5,2.5 0 0 1 922,296.7969 L922,488.5 A2.5,2.5 0 0 1 919.5,491 L608.5,491 A2.5,2.5 0 0 1 606,488.5 L606,274.5 A2.5,2.5 0 0 1 608.5,272" fill="none" style="stroke:#000000;stroke-width:1.5;"/><line style="stroke:#000000;stroke-width:1.5;" x1="606" x2="804.042" y1="294.2969" y2="294.2969"/><text fill="#000000" font-family="sans-serif" font-size="14" font-weight="bold" lengthAdjust="spacing" textLength="185.042" x="610" y="286.9951">&#1057;&#1090;&#1086;&#1088;&#1086;&#1085;&#1085;&#1080;&#1077; &#1080;&#1085;&#1090;&#1077;&#1075;&#1088;&#1072;&#1094;&#1080;&#1080;</text></g><!--cluster data--><g class="cluster" data-entity="data" data-source-line="19" data-uid="ent0014" id="cluster_data"><path d="M964.5,272.5 L1110.5723,272.5 A3.75,3.75 0 0 1 1113.0723,275 L1120.0723,294.7969 L1162.5,294.7969 A2.5,2.5 0 0 1 1165,297.2969 L1165,382 A2.5,2.5 0 0 1 1162.5,384.5 L964.5,384.5 A2.5,2.5 0 0 1 962,382 L962,275 A2.5,2.5 0 0 1 964.5,272.5" fill="none" style="stroke:#000000;stroke-width:1.5;"/><line style="stroke:#000000;stroke-width:1.5;" x1="962" x2="1120.0723" y1="294.7969" y2="294.7969"/><text fill="#000000" font-family="sans-serif" font-size="14" font-weight="bold" lengthAdjust="spacing" textLength="145.0723" x="966" y="287.4951">&#1061;&#1088;&#1072;&#1085;&#1077;&#1085;&#1080;&#1077; &#1076;&#1072;&#1085;&#1085;&#1099;&#1093;</text></g><!--entity mobile--><g class="entity" data-entity="mobile" data-source-line="2" data-uid="ent0003" id="entity_mobile"><rect fill="#F1F1F1" height="46.2969" rx="2.5" ry="2.5" style="stroke:#181818;stroke-width:0.5;" width="219.1016" x="793.5" y="49"/><rect fill="#F1F1F1" height="10" style="stroke:#181818;stroke-width:0.5;" width="15" x="992.6016" y="54"/><rect fill="#F1F1F1" height="2" style="stroke:#181818;stroke-width:0.5;" width="4" x="990.6016" y="56"/><rect fill="#F1F1F1" height="2" style="stroke:#181818;stroke-width:0.5;" width="4" x="990.6016" y="60"/><text fill="#000000" font-family="sans-serif" font-size="14" lengthAdjust="spacing" textLength="179.1016" x="808.5" y="81.9951">&#1052;&#1086;&#1073;&#1080;&#1083;&#1100;&#1085;&#1086;&#1077; &#1087;&#1088;&#1080;&#1083;&#1086;&#1078;&#1077;&#1085;&#1080;&#1077;</text></g><!--entity web--><g class="entity" data-entity="web" data-source-line="3" data-uid="ent0004" id="entity_web"><rect fill="#F1F1F1" height="46.2969" rx="2.5" ry="2.5" style="stroke:#181818;stroke-width:0.5;" width="164.6465" x="593.5" y="49"/><rect fill="#F1F1F1" height="10" style="stroke:#181818;stroke-width:0.5;" width="15" x="738.1465" y="54"/><rect fill="#F1F1F1" height="2" style="stroke:#181818;stroke-width:0.5;" width="4" x="736.1465" y="56"/><rect fill="#F1F1F1" height="2" style="stroke:#181818;stroke-width:0.5;" width="4" x="736.1465" y="60"/><text fill="#000000" font-family="sans-serif" font-size="14" lengthAdjust="spacing" textLength="124.6465" x="608.5" y="81.9951">&#1042;&#1077;&#1073;-&#1087;&#1088;&#1080;&#1083;&#1086;&#1078;&#1077;&#1085;&#1080;&#1077;</text></g><!--entity auth--><g class="entity" data-entity="auth" data-source-line="7" data-uid="ent0006" id="entity_auth"><rect fill="#F1F1F1" height="46.2969" rx="2.5" ry="2.5" style="stroke:#181818;stroke-width:0.5;" width="253.835" x="30" y="202"/><rect fill="#F1F1F1" height="10" style="stroke:#181818;stroke-width:0.5;" width="15" x="263.835" y="207"/><rect fill="#F1F1F1" height="2" style="stroke:#181818;stroke-width:0.5;" width="4" x="261.835" y="209"/><rect fill="#F1F1F1" height="2" style="stroke:#181818;stroke-width:0.5;" width="4" x="261.835" y="213"/><text fill="#000000" font-family="sans-serif" font-size="14" lengthAdjust="spacing" textLength="213.835" x="45" y="234.9951">&#1059;&#1087;&#1088;&#1072;&#1074;&#1083;&#1077;&#1085;&#1080;&#1077; &#1087;&#1086;&#1083;&#1100;&#1079;&#1086;&#1074;&#1072;&#1090;&#1077;&#1083;&#1103;&#1084;&#1080;</text></g><!--entity books--><g class="entity" data-entity="books" data-source-line="8" data-uid="ent0007" id="entity_books"><rect fill="#F1F1F1" height="46.2969" rx="2.5" ry="2.5" style="stroke:#181818;stroke-width:0.5;" width="202.9551" x="319.5" y="202"/><rect fill="#F1F1F1" height="10" style="stroke:#181818;stroke-width:0.5;" width="15" x="502.4551" y="207"/><rect fill="#F1F1F1" height="2" style="stroke:#181818;stroke-width:0.5;" width="4" x="500.4551" y="209"/><rect fill="#F1F1F1" height="2" style="stroke:#181818;stroke-width:0.5;" width="4" x="500.4551" y="213"/><text fill="#000000" font-family="sans-serif" font-size="14" lengthAdjust="spacing" textLength="162.9551" x="334.5" y="234.9951">&#1059;&#1087;&#1088;&#1072;&#1074;&#1083;&#1077;&#1085;&#1080;&#1077; &#1090;&#1086;&#1074;&#1072;&#1088;&#1072;&#1084;&#1080;</text></g><!--entity orders--><g class="entity" data-entity="orders" data-source-line="9" data-uid="ent0008" id="entity_orders"><rect fill="#F1F1F1" height="46.2969" rx="2.5" ry="2.5" style="stroke:#181818;stroke-width:0.5;" width="201.0205" x="56.5" y="315"/><rect fill="#F1F1F1" height="10" style="stroke:#181818;stroke-width:0.5;" width="15" x="237.5205" y="320"/><rect fill="#F1F1F1" height="2" style="stroke:#181818;stroke-width:0.5;" width="4" x="235.5205" y="322"/><rect fill="#F1F1F1" height="2" style="stroke:#181818;stroke-width:0.5;" width="4" x="235.5205" y="326"/><text fill="#000000" font-family="sans-serif" font-size="14" lengthAdjust="spacing" textLength="161.0205" x="71.5" y="347.9951">&#1059;&#1087;&#1088;&#1072;&#1074;&#1083;&#1077;&#1085;&#1080;&#1077; &#1079;&#1072;&#1082;&#1072;&#1079;&#1072;&#1084;&#1080;</text></g><!--entity analytics--><g class="entity" data-entity="analytics" data-source-line="10" data-uid="ent0009" id="entity_analytics"><rect fill="#F1F1F1" height="46.2969" rx="2.5" ry="2.5" style="stroke:#181818;stroke-width:0.5;" width="119.6455" x="293" y="315"/><rect fill="#F1F1F1" height="10" style="stroke:#181818;stroke-width:0.5;" width="15" x="392.6455" y="320"/><rect fill="#F1F1F1" height="2" style="stroke:#181818;stroke-width:0.5;" width="4" x="390.6455" y="322"/><rect fill="#F1F1F1" height="2" style="stroke:#181818;stroke-width:0.5;" width="4" x="390.6455" y="326"/><text fill="#000000" font-family="sans-serif" font-size="14" lengthAdjust="spacing" textLength="79.6455" x="308" y="347.9951">&#1040;&#1085;&#1072;&#1083;&#1080;&#1090;&#1080;&#1082;&#1072;</text></g><!--entity payment--><g class="entity" data-entity="payment" data-source-line="14" data-uid="ent0011" id="entity_payment"><rect fill="#F1F1F1" height="46.2969" rx="2.5" ry="2.5" style="stroke:#181818;stroke-width:0.5;" width="94.4346" x="659" y="315"/><rect fill="#F1F1F1" height="10" style="stroke:#181818;stroke-width:0.5;" width="15" x="733.4346" y="320"/><rect fill="#F1F1F1" height="2" style="stroke:#181818;stroke-width:0.5;" width="4" x="731.4346" y="322"/><rect fill="#F1F1F1" height="2" style="stroke:#181818;stroke-width:0.5;" width="4" x="731.4346" y="326"/><text fill="#000000" font-family="sans-serif" font-size="14" lengthAdjust="spacing" textLength="54.4346" x="674" y="347.9951">&#1054;&#1087;&#1083;&#1072;&#1090;&#1072;</text></g><!--entity delivery--><g class="entity" data-entity="delivery" data-source-line="15" data-uid="ent0012" id="entity_delivery"><rect fill="#F1F1F1" height="46.2969" rx="2.5" ry="2.5" style="stroke:#181818;stroke-width:0.5;" width="109.2207" x="788.5" y="315"/><rect fill="#F1F1F1" height="10" style="stroke:#181818;stroke-width:0.5;" width="15" x="877.7207" y="320"/><rect fill="#F1F1F1" height="2" style="stroke:#181818;stroke-width:0.5;" width="4" x="875.7207" y="322"/><rect fill="#F1F1F1" height="2" style="stroke:#181818;stroke-width:0.5;" width="4" x="875.7207" y="326"/><text fill="#000000" font-family="sans-serif" font-size="14" lengthAdjust="spacing" textLength="69.2207" x="803.5" y="347.9951">&#1044;&#1086;&#1089;&#1090;&#1072;&#1074;&#1082;&#1072;</text></g><!--entity email--><g class="entity" data-entity="email" data-source-line="16" data-uid="ent0013" id="entity_email"><rect fill="#F1F1F1" height="46.2969" rx="2.5" ry="2.5" style="stroke:#181818;stroke-width:0.5;" width="260.4316" x="638" y="421"/><rect fill="#F1F1F1" height="10" style="stroke:#181818;stroke-width:0.5;" width="15" x="878.4316" y="426"/><rect fill="#F1F1F1" height="2" style="stroke:#181818;stroke-width:0.5;" width="4" x="876.4316" y="428"/><rect fill="#F1F1F1" height="2" style="stroke:#181818;stroke-width:0.5;" width="4" x="876.4316" y="432"/><text fill="#000000" font-family="sans-serif" font-size="14" lengthAdjust="spacing" textLength="220.4316" x="653" y="453.9951">&#1056;&#1072;&#1089;&#1089;&#1099;&#1083;&#1082;&#1072; &#1101;&#1083;&#1077;&#1082;&#1090;&#1088;&#1086;&#1085;&#1085;&#1099;&#1093; &#1087;&#1080;&#1089;&#1077;&#1084;</text></g><!--entity db--><g class="entity" data-entity="db" data-source-line="20" data-uid="ent0015" id="entity_db"><path d="M1005,325.5 C1005,315.5 1073.1431,315.5 1073.1431,315.5 C1073.1431,315.5 1141.2861,315.5 1141.2861,325.5 L1141.2861,350.7969 C1141.2861,360.7969 1073.1431,360.7969 1073.1431,360.7969 C1073.1431,360.7969 1005,360.7969 1005,350.7969 L1005,325.5" fill="#F1F1F1" style="stroke:#181818;stroke-width:0.5;"/><path d="M1005,325.5 C1005,335.5 1073.1431,335.5 1073.1431,335.5 C1073.1431,335.5 1141.2861,335.5 1141.2861,325.5" fill="none" style="stroke:#181818;stroke-width:0.5;"/><text fill="#000000" font-family="sans-serif" font-size="14" lengthAdjust="spacing" textLength="116.2861" x="1015" y="352.4951">&#1041;&#1076; &#1087;&#1088;&#1080;&#1083;&#1086;&#1078;&#1077;&#1085;&#1080;&#1103;</text></g><!--link front to back--><g class="link" data-entity-1="front" data-entity-2="back" data-source-line="24" data-uid="lnk16" id="link_front_back"><path d="M558,119.2205 C558,119.4862 558,119.7525 558,120.0194 C558,120.5532 558,121.0891 558,121.6272 C558,130.2363 558,139.3816 558,148.5263 C558,150.8124 558,153.0986 558,155.3763 C558,156.5151 558,173.9488 558,175.0824" fill="none" id="front-to-back" style="stroke:#181818;stroke-width:1;"/><polygon fill="#181818" points="558,181.0824,562,172.0824,558,176.0824,554,172.0824,558,181.0824" style="stroke:#181818;stroke-width:1;"/></g><!--link back to integration--><g class="link" data-entity-1="back" data-entity-2="integration" data-source-line="25" data-uid="lnk17" id="link_back_integration"><path d="M566.0643,241.9839 C566.1414,242.1367 566.2189,242.2903 566.2968,242.4448 C566.6085,243.0626 566.9269,243.6935 567.2514,244.3367 C572.4441,254.6284 579.2281,268.0744 586.0113,281.5187 C592.7944,294.9631 599.5766,308.4059 604.7655,318.6914 C605.0898,319.3342 605.4079,319.9648 605.7193,320.5822 C605.7972,320.7365 603.1722,315.5331 603.2492,315.6858" fill="none" id="back-to-integration" style="stroke:#181818;stroke-width:1;"/><polygon fill="#181818" points="605.9517,321.0427,605.4693,311.2057,603.6996,316.5786,598.3267,314.809,605.9517,321.0427" style="stroke:#181818;stroke-width:1;"/></g><!--link back to data--><g class="link" data-entity-1="back" data-entity-2="data" data-source-line="26" data-uid="lnk18" id="link_back_data"><path d="M566.5172,226.2836 C566.7367,226.2912 566.9602,226.2989 567.1876,226.3068 C569.0068,226.37 571.0762,226.4428 573.3777,226.5254 C582.5835,226.8554 595.502,227.3402 610.9714,227.9791 C641.9103,229.2569 683.0531,231.1513 725.1063,233.6575 C809.2125,238.67 896.96,246.13 914,256 C932.345,266.625 946.0575,285.96 955.3213,303.075 C957.6372,307.3538 959.6751,311.4938 961.4378,315.3242 C961.548,315.5636 961.6571,315.8018 961.7651,316.0388 C961.8191,316.1572 959.3935,310.8116 959.447,310.9294" fill="none" id="back-to-data" style="stroke:#181818;stroke-width:1;"/><polygon fill="#181818" points="961.9263,316.3932,961.8499,306.5447,959.8602,311.8401,954.5648,309.8504,961.9263,316.3932" style="stroke:#181818;stroke-width:1;"/></g><!--SRC=[ZLB1Ji905BptApPSFF4BNlmCus4BApQKBcchXXWJIw8NDAZnP8pH6Ey5H1eA-0jl_yZPLn11IKWFtTqtyzxix3HbfIvhIfJeaNBAQ4XJqpO9ZUrQq9Uvm2Ad6NtQ4cMcMn8o4eUX3c9nvWYnJq-ezYpAN0Cn-vT6mmDBQsZNynMpxb7ebJSYJvNhd3jEyqVU7KeZ08OcAJD-W8CnfIp71OpLL7IZgGC5RILwu-OfzG6VjuOoCAtG4VvzIaqRfTnqQK8PTvB7yT4MVS0h-BQmuBfQrwDjH8nm0EdyNv1rM5NXEliMZDI-2-OjRoi3wRTYhnAjElHgHM7O3AJveCo-9kOEh0PpXNqnp0jYLGjbxEdWZstFy2XdPuffJTbgeBA6Ui2en69miuMkglAz4nMsrg0lQ9RWww0jeCBSi1TZv6mkrdJCfNsQ3C4RqeIRgORq_DKBlhEJqwMF7xnbUY50nfBlOnUkZ8hSV6oESPL3jYFsT12eYhKZSefebykxd2g7esLtlpnR7jf1tm00]--></g></svg>