<svg xmlns="http://www.w3.org/2000/svg" xmlns:xlink="http://www.w3.org/1999/xlink" contentStyleType="text/css" data-diagram-type="CLASS" height="350px" preserveAspectRatio="none" style="width:277px;height:350px;background:#FFFFFF;" version="1.1" viewBox="0 0 277 350" width="277px" zoomAndPan="magnify"><defs/><g><!--class Review--><g class="entity" data-entity="Review" data-source-line="1" data-uid="ent0002" id="entity_Review"><rect fill="#F1F1F1" height="210.9688" rx="2.5" ry="2.5" style="stroke:#181818;stroke-width:0.5;" width="183.9922" x="53.02" y="7"/><ellipse cx="115.4765" cy="23" fill="#ADD1B2" rx="11" ry="11" style="stroke:#181818;stroke-width:1;"/><path d="M118.4453,28.6406 Q117.8672,28.9375 117.2265,29.0781 Q116.5859,29.2344 115.8828,29.2344 Q113.3828,29.2344 112.0547,27.5938 Q110.7422,25.9375 110.7422,22.8125 Q110.7422,19.6875 112.0547,18.0313 Q113.3828,16.375 115.8828,16.375 Q116.5859,16.375 117.2265,16.5313 Q117.8828,16.6875 118.4453,16.9844 L118.4453,19.7031 Q117.8203,19.125 117.2265,18.8594 Q116.6328,18.5781 116.0078,18.5781 Q114.664,18.5781 113.9765,19.6563 Q113.289,20.7188 113.289,22.8125 Q113.289,24.9063 113.9765,25.9844 Q114.664,27.0469 116.0078,27.0469 Q116.6328,27.0469 117.2265,26.7813 Q117.8203,26.5 118.4453,25.9219 L118.4453,28.6406 Z " fill="#000000"/><text fill="#000000" font-family="sans-serif" font-size="14" lengthAdjust="spacing" textLength="50.5791" x="135.9765" y="27.8467">Review</text><line style="stroke:#181818;stroke-width:0.5;" x1="54.02" x2="236.0122" y1="39" y2="39"/><rect fill="none" height="6" style="stroke:#C82930;stroke-width:1;" width="6" x="61.02" y="49.6484"/><text fill="#000000" font-family="sans-serif" font-size="14" lengthAdjust="spacing" textLength="57.5859" x="73.02" y="55.9951">Id: UUID</text><rect fill="none" height="6" style="stroke:#C82930;stroke-width:1;" width="6" x="61.02" y="65.9453"/><text fill="#000000" font-family="sans-serif" font-size="14" lengthAdjust="spacing" textLength="104.9727" x="73.02" y="72.292">Rating: Integer</text><rect fill="none" height="6" style="stroke:#C82930;stroke-width:1;" width="6" x="61.02" y="82.2422"/><text fill="#000000" font-family="sans-serif" font-size="14" lengthAdjust="spacing" textLength="119.54" x="73.02" y="88.5889">Comment: String</text><rect fill="none" height="6" style="stroke:#C82930;stroke-width:1;" width="6" x="61.02" y="98.5391"/><text fill="#000000" font-family="sans-serif" font-size="14" lengthAdjust="spacing" textLength="148.1006" x="73.02" y="104.8857">CreatedAt: DateTime</text><rect fill="none" height="6" style="stroke:#C82930;stroke-width:1;" width="6" x="61.02" y="114.8359"/><text fill="#000000" font-family="sans-serif" font-size="14" lengthAdjust="spacing" textLength="151.9766" x="73.02" y="121.1826">UpdatedAt: DateTime</text><line style="stroke:#181818;stroke-width:0.5;" x1="54.02" x2="236.0122" y1="128.4844" y2="128.4844"/><ellipse cx="64.02" cy="142.1328" fill="#84BE84" rx="3" ry="3" style="stroke:#038048;stroke-width:1;"/><text fill="#000000" font-family="sans-serif" font-size="14" lengthAdjust="spacing" textLength="113.873" x="73.02" y="145.4795">ValidateRating()</text><ellipse cx="64.02" cy="158.4297" fill="#84BE84" rx="3" ry="3" style="stroke:#038048;stroke-width:1;"/><text fill="#000000" font-family="sans-serif" font-size="14" lengthAdjust="spacing" textLength="100.9805" x="73.02" y="161.7764">CanBeEdited()</text><ellipse cx="64.02" cy="174.7266" fill="#84BE84" rx="3" ry="3" style="stroke:#038048;stroke-width:1;"/><text fill="#000000" font-family="sans-serif" font-size="14" lengthAdjust="spacing" textLength="157.9922" x="73.02" y="178.0732">CalculateHelpfulness()</text><ellipse cx="64.02" cy="191.0234" fill="#84BE84" rx="3" ry="3" style="stroke:#038048;stroke-width:1;"/><text fill="#000000" font-family="sans-serif" font-size="14" lengthAdjust="spacing" textLength="112.2051" x="73.02" y="194.3701">UpdateReview()</text><ellipse cx="64.02" cy="207.3203" fill="#84BE84" rx="3" ry="3" style="stroke:#038048;stroke-width:1;"/><text fill="#000000" font-family="sans-serif" font-size="14" lengthAdjust="spacing" textLength="140.6289" x="73.02" y="210.667">IsVerifiedPurchase()</text></g><!--class User--><g class="entity" data-entity="User" data-source-line="14" data-uid="ent0003" id="entity_User"><rect fill="#F1F1F1" height="48" rx="2.5" ry="2.5" style="stroke:#181818;stroke-width:0.5;" width="63.9102" x="40.02" y="295"/><ellipse cx="55.02" cy="311" fill="#ADD1B2" rx="11" ry="11" style="stroke:#181818;stroke-width:1;"/><path d="M57.9887,316.6406 Q57.4106,316.9375 56.77,317.0781 Q56.1294,317.2344 55.4262,317.2344 Q52.9262,317.2344 51.5981,315.5938 Q50.2856,313.9375 50.2856,310.8125 Q50.2856,307.6875 51.5981,306.0313 Q52.9262,304.375 55.4262,304.375 Q56.1294,304.375 56.77,304.5313 Q57.4262,304.6875 57.9887,304.9844 L57.9887,307.7031 Q57.3637,307.125 56.77,306.8594 Q56.1762,306.5781 55.5512,306.5781 Q54.2075,306.5781 53.52,307.6563 Q52.8325,308.7188 52.8325,310.8125 Q52.8325,312.9063 53.52,313.9844 Q54.2075,315.0469 55.5512,315.0469 Q56.1762,315.0469 56.77,314.7813 Q57.3637,314.5 57.9887,313.9219 L57.9887,316.6406 Z " fill="#000000"/><text fill="#000000" font-family="sans-serif" font-size="14" lengthAdjust="spacing" textLength="31.9102" x="69.02" y="315.8467">User</text><line style="stroke:#181818;stroke-width:0.5;" x1="41.02" x2="102.9302" y1="327" y2="327"/><line style="stroke:#181818;stroke-width:0.5;" x1="41.02" x2="102.9302" y1="335" y2="335"/></g><!--class Book--><g class="entity" data-entity="Book" data-source-line="15" data-uid="ent0005" id="entity_Book"><rect fill="#F1F1F1" height="48" rx="2.5" ry="2.5" style="stroke:#181818;stroke-width:0.5;" width="66.8428" x="184.52" y="295"/><ellipse cx="199.52" cy="311" fill="#ADD1B2" rx="11" ry="11" style="stroke:#181818;stroke-width:1;"/><path d="M202.4888,316.6406 Q201.9106,316.9375 201.27,317.0781 Q200.6294,317.2344 199.9263,317.2344 Q197.4263,317.2344 196.0981,315.5938 Q194.7856,313.9375 194.7856,310.8125 Q194.7856,307.6875 196.0981,306.0313 Q197.4263,304.375 199.9263,304.375 Q200.6294,304.375 201.27,304.5313 Q201.9263,304.6875 202.4888,304.9844 L202.4888,307.7031 Q201.8638,307.125 201.27,306.8594 Q200.6763,306.5781 200.0513,306.5781 Q198.7075,306.5781 198.02,307.6563 Q197.3325,308.7188 197.3325,310.8125 Q197.3325,312.9063 198.02,313.9844 Q198.7075,315.0469 200.0513,315.0469 Q200.6763,315.0469 201.27,314.7813 Q201.8638,314.5 202.4888,313.9219 L202.4888,316.6406 Z " fill="#000000"/><text fill="#000000" font-family="sans-serif" font-size="14" lengthAdjust="spacing" textLength="34.8428" x="213.52" y="315.8467">Book</text><line style="stroke:#181818;stroke-width:0.5;" x1="185.52" x2="250.3628" y1="327" y2="327"/><line style="stroke:#181818;stroke-width:0.5;" x1="185.52" x2="250.3628" y1="335" y2="335"/></g><!--link User to Review--><g class="link" data-entity-1="User" data-entity-2="Review" data-source-line="14" data-uid="lnk4" id="link_User_Review"><path codeLine="14" d="M82.9875,287.2849 C89.8175,268.1349 91.31,263.9928 101.62,235.1028" fill="none" id="User-Review" style="stroke:#181818;stroke-width:1;"/><line style="stroke:#181818;stroke-width:1;" x1="85.4113" x2="77.8762" y1="292.3962" y2="289.7087"/><line style="stroke:#181818;stroke-width:1;" x1="86.4191" x2="78.884" y1="289.5705" y2="286.8831"/><line style="stroke:#181818;stroke-width:1;" x1="82.9875" x2="80.3" y1="287.2849" y2="294.82"/><line style="stroke:#181818;stroke-width:1;" x1="104.9811" x2="102.0191" y1="225.6846" y2="216.1333"/><line style="stroke:#181818;stroke-width:1;" x1="104.9811" x2="113.3209" y1="225.6846" y2="220.1667"/><line style="stroke:#181818;stroke-width:1;" x1="104.9811" x2="107.67" y1="225.6846" y2="218.15"/><ellipse cx="102.9645" cy="231.3355" fill="none" rx="4" ry="4" style="stroke:#181818;stroke-width:1;"/><text fill="#000000" font-family="sans-serif" font-size="13" lengthAdjust="spacing" textLength="39.457" x="97.02" y="261.0669">writes</text></g><!--link Review to User--><g class="link" data-entity-1="Review" data-entity-2="User" data-source-line="16" data-uid="lnk7" id="link_Review_User"><path codeLine="16" d="M47.6424,194.329 C31.7524,212.069 22.86,226.26 14.02,248 C6,267.74 16.1511,281.3453 33.6011,294.3253" fill="none" id="Review-User" style="stroke:#181818;stroke-width:1;"/><line style="stroke:#181818;stroke-width:1;" x1="47.6424" x2="48.5107" y1="194.329" y2="184.3668"/><line style="stroke:#181818;stroke-width:1;" x1="47.6424" x2="57.4493" y1="194.329" y2="192.3732"/><line style="stroke:#181818;stroke-width:1;" x1="47.6424" x2="52.98" y1="194.329" y2="188.37"/><line style="stroke:#181818;stroke-width:1;" x1="43.3285" x2="49.2875" y1="193.15" y2="198.4876"/><line style="stroke:#181818;stroke-width:1;" x1="39.1979" x2="34.4232" y1="293.5032" y2="299.9221"/><line style="stroke:#181818;stroke-width:1;" x1="36.7908" x2="32.0161" y1="291.7127" y2="298.1316"/><line style="stroke:#181818;stroke-width:1;" x1="33.6011" x2="40.02" y1="294.3253" y2="299.1"/><text fill="#000000" font-family="sans-serif" font-size="13" lengthAdjust="spacing" textLength="68.4658" x="15.02" y="261.0669">written_by</text></g><!--link Book to Review--><g class="link" data-entity-1="Book" data-entity-2="Review" data-source-line="15" data-uid="lnk6" id="link_Book_Review"><path codeLine="15" d="M239.542,287.9958 C247.602,274.4558 250.26,263.83 245.02,248 C241.69,237.92 245.7132,243.8769 240.5932,234.2369" fill="none" id="Book-Review" style="stroke:#181818;stroke-width:1;"/><line style="stroke:#181818;stroke-width:1;" x1="240.9331" x2="234.0589" y1="293.4789" y2="289.3869"/><line style="stroke:#181818;stroke-width:1;" x1="242.4677" x2="235.5934" y1="290.9011" y2="286.809"/><line style="stroke:#181818;stroke-width:1;" x1="239.542" x2="235.45" y1="287.9958" y2="294.87"/><line style="stroke:#181818;stroke-width:1;" x1="235.9025" x2="226.851" y1="225.4053" y2="221.1544"/><line style="stroke:#181818;stroke-width:1;" x1="235.9025" x2="237.449" y1="225.4053" y2="215.5256"/><line style="stroke:#181818;stroke-width:1;" x1="235.9025" x2="232.15" y1="225.4053" y2="218.34"/><ellipse cx="238.7169" cy="230.7043" fill="none" rx="4" ry="4" style="stroke:#181818;stroke-width:1;"/><text fill="#000000" font-family="sans-serif" font-size="13" lengthAdjust="spacing" textLength="22.9785" x="247.02" y="261.0669">has</text></g><!--link Review to Book--><g class="link" data-entity-1="Review" data-entity-2="Book" data-source-line="17" data-uid="lnk8" id="link_Review_Book"><path codeLine="17" d="M164.6058,225.7679 C168.9958,241.8579 172.32,250.28 179.02,265 C183.81,275.5 185.9998,279.6286 192.8198,288.4586" fill="none" id="Review-Book" style="stroke:#181818;stroke-width:1;"/><line style="stroke:#181818;stroke-width:1;" x1="164.6058" x2="156.7116" y1="225.7679" y2="219.6293"/><line style="stroke:#181818;stroke-width:1;" x1="164.6058" x2="168.2884" y1="225.7679" y2="216.4707"/><line style="stroke:#181818;stroke-width:1;" x1="164.6058" x2="162.5" y1="225.7679" y2="218.05"/><line style="stroke:#181818;stroke-width:1;" x1="161.2732" x2="168.9911" y1="228.7502" y2="226.6445"/><line style="stroke:#181818;stroke-width:1;" x1="198.4306" x2="192.0992" y1="289.1792" y2="294.0694"/><line style="stroke:#181818;stroke-width:1;" x1="196.5968" x2="190.2654" y1="286.805" y2="291.6951"/><line style="stroke:#181818;stroke-width:1;" x1="192.8198" x2="197.71" y1="288.4586" y2="294.79"/><text fill="#000000" font-family="sans-serif" font-size="13" lengthAdjust="spacing" textLength="56.0625" x="180.02" y="261.0669">for_book</text></g><!--SRC=[RO_B3i8W44NtVCKiDQO_mCvNOdT6hTi6orI950nG6sFzTqUeBjJTp3dS2rHQU0yRl2hiuCu0CiWbXwB85t7PYA3CaKDk0XxHHJQtJOCcSDW6Hp8nXoAWd19TqB1J3KPUNEGVFe6zqEfbKlze7E5Sc1akfQB0X-YgrNHkXVfIjzgWzuDApUdb0yhz7fsg5SfrwwgJy4ZYmLZXqK7VPvczlx_AeNDqZsSpQyy_Zg9iM1wa-XvYHGe5DENXzkLZ3OVQkl90unC0]--></g></svg>