<svg xmlns="http://www.w3.org/2000/svg" xmlns:xlink="http://www.w3.org/1999/xlink" contentStyleType="text/css" data-diagram-type="CLASS" height="545px" preserveAspectRatio="none" style="width:499px;height:545px;background:#FFFFFF;" version="1.1" viewBox="0 0 499 545" width="499px" zoomAndPan="magnify"><defs/><g><!--class User--><g class="entity" data-entity="User" data-source-line="1" data-uid="ent0002" id="entity_User"><rect fill="#F1F1F1" height="276.1563" rx="2.5" ry="2.5" style="stroke:#181818;stroke-width:0.5;" width="178.4893" x="86" y="7"/><ellipse cx="155.0396" cy="23" fill="#ADD1B2" rx="11" ry="11" style="stroke:#181818;stroke-width:1;"/><path d="M158.0083,28.6406 Q157.4302,28.9375 156.7896,29.0781 Q156.1489,29.2344 155.4458,29.2344 Q152.9458,29.2344 151.6177,27.5938 Q150.3052,25.9375 150.3052,22.8125 Q150.3052,19.6875 151.6177,18.0313 Q152.9458,16.375 155.4458,16.375 Q156.1489,16.375 156.7896,16.5313 Q157.4458,16.6875 158.0083,16.9844 L158.0083,19.7031 Q157.3833,19.125 156.7896,18.8594 Q156.1958,18.5781 155.5708,18.5781 Q154.2271,18.5781 153.5396,19.6563 Q152.8521,20.7188 152.8521,22.8125 Q152.8521,24.9063 153.5396,25.9844 Q154.2271,27.0469 155.5708,27.0469 Q156.1958,27.0469 156.7896,26.7813 Q157.3833,26.5 158.0083,25.9219 L158.0083,28.6406 Z " fill="#000000"/><text fill="#000000" font-family="sans-serif" font-size="14" lengthAdjust="spacing" textLength="31.9102" x="175.5396" y="27.8467">User</text><line style="stroke:#181818;stroke-width:0.5;" x1="87" x2="263.4893" y1="39" y2="39"/><rect fill="none" height="6" style="stroke:#C82930;stroke-width:1;" width="6" x="94" y="49.6484"/><text fill="#000000" font-family="sans-serif" font-size="14" lengthAdjust="spacing" textLength="57.5859" x="106" y="55.9951">Id: UUID</text><rect fill="none" height="6" style="stroke:#C82930;stroke-width:1;" width="6" x="94" y="65.9453"/><text fill="#000000" font-family="sans-serif" font-size="14" lengthAdjust="spacing" textLength="89.79" x="106" y="72.292">Email: String</text><rect fill="none" height="6" style="stroke:#C82930;stroke-width:1;" width="6" x="94" y="82.2422"/><text fill="#000000" font-family="sans-serif" font-size="14" lengthAdjust="spacing" textLength="152.4893" x="106" y="88.5889">PasswordHash: String</text><rect fill="none" height="6" style="stroke:#C82930;stroke-width:1;" width="6" x="94" y="98.5391"/><text fill="#000000" font-family="sans-serif" font-size="14" lengthAdjust="spacing" textLength="122.7324" x="106" y="104.8857">FirstName: String</text><rect fill="none" height="6" style="stroke:#C82930;stroke-width:1;" width="6" x="94" y="114.8359"/><text fill="#000000" font-family="sans-serif" font-size="14" lengthAdjust="spacing" textLength="121.4131" x="106" y="121.1826">LastName: String</text><rect fill="none" height="6" style="stroke:#C82930;stroke-width:1;" width="6" x="94" y="131.1328"/><text fill="#000000" font-family="sans-serif" font-size="14" lengthAdjust="spacing" textLength="94.3154" x="106" y="137.4795">Phone: String</text><rect fill="none" height="6" style="stroke:#C82930;stroke-width:1;" width="6" x="94" y="147.4297"/><text fill="#000000" font-family="sans-serif" font-size="14" lengthAdjust="spacing" textLength="125.6514" x="106" y="153.7764">DateOfBirth: Date</text><rect fill="none" height="6" style="stroke:#C82930;stroke-width:1;" width="6" x="94" y="163.7266"/><text fill="#000000" font-family="sans-serif" font-size="14" lengthAdjust="spacing" textLength="148.1006" x="106" y="170.0732">CreatedAt: DateTime</text><rect fill="none" height="6" style="stroke:#C82930;stroke-width:1;" width="6" x="94" y="180.0234"/><text fill="#000000" font-family="sans-serif" font-size="14" lengthAdjust="spacing" textLength="151.9766" x="106" y="186.3701">UpdatedAt: DateTime</text><line style="stroke:#181818;stroke-width:0.5;" x1="87" x2="263.4893" y1="193.6719" y2="193.6719"/><ellipse cx="97" cy="207.3203" fill="#84BE84" rx="3" ry="3" style="stroke:#038048;stroke-width:1;"/><text fill="#000000" font-family="sans-serif" font-size="14" lengthAdjust="spacing" textLength="69.1934" x="106" y="210.667">Register()</text><ellipse cx="97" cy="223.6172" fill="#84BE84" rx="3" ry="3" style="stroke:#038048;stroke-width:1;"/><text fill="#000000" font-family="sans-serif" font-size="14" lengthAdjust="spacing" textLength="48.9385" x="106" y="226.9639">Login()</text><ellipse cx="97" cy="239.9141" fill="#84BE84" rx="3" ry="3" style="stroke:#038048;stroke-width:1;"/><text fill="#000000" font-family="sans-serif" font-size="14" lengthAdjust="spacing" textLength="105.7109" x="106" y="243.2607">UpdateProfile()</text><ellipse cx="97" cy="256.2109" fill="#84BE84" rx="3" ry="3" style="stroke:#038048;stroke-width:1;"/><text fill="#000000" font-family="sans-serif" font-size="14" lengthAdjust="spacing" textLength="130.792" x="106" y="259.5576">ChangePassword()</text><ellipse cx="97" cy="272.5078" fill="#84BE84" rx="3" ry="3" style="stroke:#038048;stroke-width:1;"/><text fill="#000000" font-family="sans-serif" font-size="14" lengthAdjust="spacing" textLength="101.8828" x="106" y="275.8545">GetFullName()</text></g><!--class UserToken--><g class="entity" data-entity="UserToken" data-source-line="18" data-uid="ent0003" id="entity_UserToken"><rect fill="#F1F1F1" height="178.375" rx="2.5" ry="2.5" style="stroke:#181818;stroke-width:0.5;" width="304.3594" x="7" y="360"/><ellipse cx="117.6191" cy="376" fill="#ADD1B2" rx="11" ry="11" style="stroke:#181818;stroke-width:1;"/><path d="M120.5879,381.6406 Q120.0098,381.9375 119.3691,382.0781 Q118.7285,382.2344 118.0254,382.2344 Q115.5254,382.2344 114.1973,380.5938 Q112.8848,378.9375 112.8848,375.8125 Q112.8848,372.6875 114.1973,371.0313 Q115.5254,369.375 118.0254,369.375 Q118.7285,369.375 119.3691,369.5313 Q120.0254,369.6875 120.5879,369.9844 L120.5879,372.7031 Q119.9629,372.125 119.3691,371.8594 Q118.7754,371.5781 118.1504,371.5781 Q116.8066,371.5781 116.1191,372.6563 Q115.4316,373.7188 115.4316,375.8125 Q115.4316,377.9063 116.1191,378.9844 Q116.8066,380.0469 118.1504,380.0469 Q118.7754,380.0469 119.3691,379.7813 Q119.9629,379.5 120.5879,378.9219 L120.5879,381.6406 Z " fill="#000000"/><text fill="#000000" font-family="sans-serif" font-size="14" lengthAdjust="spacing" textLength="74.6211" x="138.1191" y="380.8467">UserToken</text><line style="stroke:#181818;stroke-width:0.5;" x1="8" x2="310.3594" y1="392" y2="392"/><rect fill="none" height="6" style="stroke:#C82930;stroke-width:1;" width="6" x="15" y="402.6484"/><text fill="#000000" font-family="sans-serif" font-size="14" lengthAdjust="spacing" textLength="57.5859" x="27" y="408.9951">Id: UUID</text><rect fill="none" height="6" style="stroke:#C82930;stroke-width:1;" width="6" x="15" y="418.9453"/><text fill="#000000" font-family="sans-serif" font-size="14" lengthAdjust="spacing" textLength="147.4648" x="27" y="425.292">RefreshToken: String</text><rect fill="none" height="6" style="stroke:#C82930;stroke-width:1;" width="6" x="15" y="435.2422"/><text fill="#000000" font-family="sans-serif" font-size="14" lengthAdjust="spacing" textLength="278.3594" x="27" y="441.5889">RefreshTokenExpirationDate: DateTime</text><rect fill="none" height="6" style="stroke:#C82930;stroke-width:1;" width="6" x="15" y="451.5391"/><text fill="#000000" font-family="sans-serif" font-size="14" lengthAdjust="spacing" textLength="148.1006" x="27" y="457.8857">CreatedAt: DateTime</text><rect fill="none" height="6" style="stroke:#C82930;stroke-width:1;" width="6" x="15" y="467.8359"/><text fill="#000000" font-family="sans-serif" font-size="14" lengthAdjust="spacing" textLength="151.9766" x="27" y="474.1826">UpdatedAt: DateTime</text><line style="stroke:#181818;stroke-width:0.5;" x1="8" x2="310.3594" y1="481.4844" y2="481.4844"/><ellipse cx="18" cy="495.1328" fill="#84BE84" rx="3" ry="3" style="stroke:#038048;stroke-width:1;"/><text fill="#000000" font-family="sans-serif" font-size="14" lengthAdjust="spacing" textLength="172.8262" x="27" y="498.4795">GenerateRefreshToken()</text><ellipse cx="18" cy="511.4297" fill="#84BE84" rx="3" ry="3" style="stroke:#038048;stroke-width:1;"/><text fill="#000000" font-family="sans-serif" font-size="14" lengthAdjust="spacing" textLength="164.9443" x="27" y="514.7764">ValidateRefreshToken()</text><ellipse cx="18" cy="527.7266" fill="#84BE84" rx="3" ry="3" style="stroke:#038048;stroke-width:1;"/><text fill="#000000" font-family="sans-serif" font-size="14" lengthAdjust="spacing" textLength="105.5469" x="27" y="531.0732">RevokeToken()</text></g><!--class Role--><g class="entity" data-entity="Role" data-source-line="29" data-uid="ent0004" id="entity_Role"><rect fill="#F1F1F1" height="145.7813" rx="2.5" ry="2.5" style="stroke:#181818;stroke-width:0.5;" width="177.9766" x="315" y="72"/><ellipse cx="384.3403" cy="88" fill="#ADD1B2" rx="11" ry="11" style="stroke:#181818;stroke-width:1;"/><path d="M387.3091,93.6406 Q386.731,93.9375 386.0903,94.0781 Q385.4497,94.2344 384.7466,94.2344 Q382.2466,94.2344 380.9185,92.5938 Q379.606,90.9375 379.606,87.8125 Q379.606,84.6875 380.9185,83.0313 Q382.2466,81.375 384.7466,81.375 Q385.4497,81.375 386.0903,81.5313 Q386.7466,81.6875 387.3091,81.9844 L387.3091,84.7031 Q386.6841,84.125 386.0903,83.8594 Q385.4966,83.5781 384.8716,83.5781 Q383.5278,83.5781 382.8403,84.6563 Q382.1528,85.7188 382.1528,87.8125 Q382.1528,89.9063 382.8403,90.9844 Q383.5278,92.0469 384.8716,92.0469 Q385.4966,92.0469 386.0903,91.7813 Q386.6841,91.5 387.3091,90.9219 L387.3091,93.6406 Z " fill="#000000"/><text fill="#000000" font-family="sans-serif" font-size="14" lengthAdjust="spacing" textLength="30.7959" x="404.8403" y="92.8467">Role</text><line style="stroke:#181818;stroke-width:0.5;" x1="316" x2="491.9766" y1="104" y2="104"/><rect fill="none" height="6" style="stroke:#C82930;stroke-width:1;" width="6" x="323" y="114.6484"/><text fill="#000000" font-family="sans-serif" font-size="14" lengthAdjust="spacing" textLength="57.5859" x="335" y="120.9951">Id: UUID</text><rect fill="none" height="6" style="stroke:#C82930;stroke-width:1;" width="6" x="323" y="130.9453"/><text fill="#000000" font-family="sans-serif" font-size="14" lengthAdjust="spacing" textLength="92.251" x="335" y="137.292">Name: String</text><rect fill="none" height="6" style="stroke:#C82930;stroke-width:1;" width="6" x="323" y="147.2422"/><text fill="#000000" font-family="sans-serif" font-size="14" lengthAdjust="spacing" textLength="148.1006" x="335" y="153.5889">CreatedAt: DateTime</text><rect fill="none" height="6" style="stroke:#C82930;stroke-width:1;" width="6" x="323" y="163.5391"/><text fill="#000000" font-family="sans-serif" font-size="14" lengthAdjust="spacing" textLength="151.9766" x="335" y="169.8857">UpdatedAt: DateTime</text><line style="stroke:#181818;stroke-width:0.5;" x1="316" x2="491.9766" y1="177.1875" y2="177.1875"/><ellipse cx="326" cy="190.8359" fill="#84BE84" rx="3" ry="3" style="stroke:#038048;stroke-width:1;"/><text fill="#000000" font-family="sans-serif" font-size="14" lengthAdjust="spacing" textLength="105.7656" x="335" y="194.1826">AssignToUser()</text><ellipse cx="326" cy="207.1328" fill="#84BE84" rx="3" ry="3" style="stroke:#038048;stroke-width:1;"/><text fill="#000000" font-family="sans-serif" font-size="14" lengthAdjust="spacing" textLength="136.2881" x="335" y="210.4795">RemoveFromUser()</text></g><!--class UserRole--><g class="entity" data-entity="UserRole" data-source-line="38" data-uid="ent0005" id="entity_UserRole"><rect fill="#F1F1F1" height="80.5938" rx="2.5" ry="2.5" style="stroke:#181818;stroke-width:0.5;" width="115.4961" x="346.5" y="408.5"/><ellipse cx="370.8555" cy="424.5" fill="#ADD1B2" rx="11" ry="11" style="stroke:#181818;stroke-width:1;"/><path d="M373.8243,430.1406 Q373.2461,430.4375 372.6055,430.5781 Q371.9649,430.7344 371.2618,430.7344 Q368.7618,430.7344 367.4336,429.0938 Q366.1211,427.4375 366.1211,424.3125 Q366.1211,421.1875 367.4336,419.5313 Q368.7618,417.875 371.2618,417.875 Q371.9649,417.875 372.6055,418.0313 Q373.2618,418.1875 373.8243,418.4844 L373.8243,421.2031 Q373.1993,420.625 372.6055,420.3594 Q372.0118,420.0781 371.3868,420.0781 Q370.043,420.0781 369.3555,421.1563 Q368.668,422.2188 368.668,424.3125 Q368.668,426.4063 369.3555,427.4844 Q370.043,428.5469 371.3868,428.5469 Q372.0118,428.5469 372.6055,428.2813 Q373.1993,428 373.8243,427.4219 L373.8243,430.1406 Z " fill="#000000"/><text fill="#000000" font-family="sans-serif" font-size="14" lengthAdjust="spacing" textLength="62.7061" x="386.9345" y="429.3467">UserRole</text><line style="stroke:#181818;stroke-width:0.5;" x1="347.5" x2="460.9961" y1="440.5" y2="440.5"/><rect fill="none" height="6" style="stroke:#C82930;stroke-width:1;" width="6" x="354.5" y="451.1484"/><text fill="#000000" font-family="sans-serif" font-size="14" lengthAdjust="spacing" textLength="89.4961" x="366.5" y="457.4951">UserId: UUID</text><rect fill="none" height="6" style="stroke:#C82930;stroke-width:1;" width="6" x="354.5" y="467.4453"/><text fill="#000000" font-family="sans-serif" font-size="14" lengthAdjust="spacing" textLength="88.3818" x="366.5" y="473.792">RoleId: UUID</text><line style="stroke:#181818;stroke-width:0.5;" x1="347.5" x2="460.9961" y1="481.0938" y2="481.0938"/></g><!--link User to UserToken--><g class="link" data-entity-1="User" data-entity-2="UserToken" data-source-line="43" data-uid="lnk6" id="link_User_UserToken"><path codeLine="43" d="M167.3063,291.2888 C165.9263,317.3088 165.3629,327.9012 164.0929,351.8912" fill="none" id="User-UserToken" style="stroke:#181818;stroke-width:1;"/><line style="stroke:#181818;stroke-width:1;" x1="163.5238" x2="171.5125" y1="287.0825" y2="287.5062"/><line style="stroke:#181818;stroke-width:1;" x1="163.3649" x2="171.3537" y1="290.0783" y2="290.502"/><line style="stroke:#181818;stroke-width:1;" x1="167.3063" x2="167.73" y1="291.2888" y2="283.3"/><line style="stroke:#181818;stroke-width:1;" x1="167.8759" x2="159.8871" y1="356.0971" y2="355.6741"/><line style="stroke:#181818;stroke-width:1;" x1="168.0345" x2="160.0456" y1="353.1012" y2="352.6783"/><line style="stroke:#181818;stroke-width:1;" x1="164.0929" x2="163.67" y1="351.8912" y2="359.88"/><text fill="#000000" font-family="sans-serif" font-size="13" lengthAdjust="spacing" textLength="22.9785" x="168" y="326.0669">has</text></g><!--link User to UserRole--><g class="link" data-entity-1="User" data-entity-2="UserRole" data-source-line="44" data-uid="lnk7" id="link_User_UserRole"><path codeLine="44" d="M269.0244,270.004 C307.8344,321.174 335.0147,357.0168 362.9247,393.8268" fill="none" id="User-UserRole" style="stroke:#181818;stroke-width:1;"/><line style="stroke:#181818;stroke-width:1;" x1="263.4202" x2="269.7942" y1="269.2342" y2="264.3998"/><line style="stroke:#181818;stroke-width:1;" x1="265.2331" x2="271.6071" y1="271.6245" y2="266.7901"/><line style="stroke:#181818;stroke-width:1;" x1="269.0244" x2="264.19" y1="270.004" y2="263.63"/><line style="stroke:#181818;stroke-width:1;" x1="368.9665" x2="378.5811" y1="401.7952" y2="404.5449"/><line style="stroke:#181818;stroke-width:1;" x1="368.9665" x2="369.0189" y1="401.7952" y2="411.7951"/><line style="stroke:#181818;stroke-width:1;" x1="368.9665" x2="373.8" y1="401.7952" y2="408.17"/><ellipse cx="365.3414" cy="397.0142" fill="none" rx="4" ry="4" style="stroke:#181818;stroke-width:1;"/><text fill="#000000" font-family="sans-serif" font-size="13" lengthAdjust="spacing" textLength="22.9785" x="312" y="326.0669">has</text></g><!--link Role to UserRole--><g class="link" data-entity-1="Role" data-entity-2="UserRole" data-source-line="45" data-uid="lnk8" id="link_Role_UserRole"><path codeLine="45" d="M404,226.34 C404,285.84 404,341.96 404,390.17" fill="none" id="Role-UserRole" style="stroke:#181818;stroke-width:1;"/><line style="stroke:#181818;stroke-width:1;" x1="400" x2="408" y1="222.34" y2="222.34"/><line style="stroke:#181818;stroke-width:1;" x1="400" x2="408" y1="225.34" y2="225.34"/><line style="stroke:#181818;stroke-width:1;" x1="404" x2="404" y1="226.34" y2="218.34"/><line style="stroke:#181818;stroke-width:1;" x1="404" x2="410" y1="400.17" y2="408.17"/><line style="stroke:#181818;stroke-width:1;" x1="404" x2="398" y1="400.17" y2="408.17"/><line style="stroke:#181818;stroke-width:1;" x1="404" x2="404" y1="400.17" y2="408.17"/><ellipse cx="404" cy="394.17" fill="none" rx="4" ry="4" style="stroke:#181818;stroke-width:1;"/><text fill="#000000" font-family="sans-serif" font-size="13" lengthAdjust="spacing" textLength="22.9785" x="405" y="326.0669">has</text></g><!--SRC=[bP91ReCm44NtdCBBLXKNo2vDGXefQX65xgqmm2Z6ZiPkMYdqxZM64DnwaztC-tZy_vY3u5gpGWEnIyHOp7RbWXN5RksQJSjHBDYx8PIr8wdz_4jH-S9ruma9aZQll0MFxda0fesIFbbp0s_LCvAnG_l6qHM1BSkb6LYExS2BKndWJoo36hK1UdXqxLxLACTwE9AIgb30o5ODbpLS0urm2oRv5ABtRCbF51sc1UNg23AqfGmg0jqutOir5pRV9oHkKCdUyvz4zoRTWWGx3EONZ04-kC0oB6LmjjsLJDao9I0Kwz-xtUjogJNMCbVzyYOBhJf3GgeTeRVXcPE-zPTijGdOK-wNxReuxhhPwonOm_LDKvVRt45oPL3w1G00]--></g></svg>