<svg xmlns="http://www.w3.org/2000/svg" xmlns:xlink="http://www.w3.org/1999/xlink" contentStyleType="text/css" data-diagram-type="ACTIVITY" height="1749px" preserveAspectRatio="none" style="width:726px;height:1749px;background:#FFFFFF;" version="1.1" viewBox="0 0 726 1749" width="726px" zoomAndPan="magnify"><title>&#1055;&#1088;&#1086;&#1094;&#1077;&#1089;&#1089; &#1087;&#1086;&#1082;&#1091;&#1087;&#1082;&#1080; &#1082;&#1085;&#1080;&#1075;&#1080; &#1087;&#1086;&#1082;&#1091;&#1087;&#1072;&#1090;&#1077;&#1083;&#1077;&#1084;</title><defs/><g><g class="title" data-source-line="1"><text fill="#000000" font-family="sans-serif" font-size="14" font-weight="bold" lengthAdjust="spacing" textLength="301.3008" x="211.0255" y="32.9951">&#1055;&#1088;&#1086;&#1094;&#1077;&#1089;&#1089; &#1087;&#1086;&#1082;&#1091;&#1087;&#1082;&#1080; &#1082;&#1085;&#1080;&#1075;&#1080; &#1087;&#1086;&#1082;&#1091;&#1087;&#1072;&#1090;&#1077;&#1083;&#1077;&#1084;</text></g><ellipse cx="348.8716" cy="57.2969" fill="#222222" rx="10" ry="10" style="stroke:#222222;stroke-width:1;"/><rect fill="#F1F1F1" height="33.9688" rx="12.5" ry="12.5" style="stroke:#181818;stroke-width:0.5;" width="201.6758" x="248.0337" y="87.2969"/><text fill="#000000" font-family="sans-serif" font-size="12" lengthAdjust="spacing" textLength="181.6758" x="258.0337" y="108.4355">&#1055;&#1086;&#1082;&#1091;&#1087;&#1072;&#1090;&#1077;&#1083;&#1100; &#1079;&#1072;&#1093;&#1086;&#1076;&#1080;&#1090; &#1085;&#1072; &#1089;&#1072;&#1081;&#1090;</text><rect fill="#F1F1F1" height="47.9375" rx="12.5" ry="12.5" style="stroke:#181818;stroke-width:0.5;" width="202.4434" x="247.6499" y="141.2656"/><text fill="#000000" font-family="sans-serif" font-size="12" lengthAdjust="spacing" textLength="182.4434" x="257.6499" y="162.4043">&#1055;&#1088;&#1086;&#1089;&#1084;&#1086;&#1090;&#1088; &#1075;&#1083;&#1072;&#1074;&#1085;&#1086;&#1081; &#1089;&#1090;&#1088;&#1072;&#1085;&#1080;&#1094;&#1099;</text><text fill="#000000" font-family="sans-serif" font-size="12" lengthAdjust="spacing" textLength="102.2402" x="257.6499" y="176.373">&#1080; &#1082;&#1072;&#1090;&#1072;&#1083;&#1086;&#1075;&#1072; &#1082;&#1085;&#1080;&#1075;</text><polygon fill="#F1F1F1" points="283.0945,209.2031,414.6487,209.2031,426.6487,221.2031,414.6487,233.2031,283.0945,233.2031,271.0945,221.2031,283.0945,209.2031" style="stroke:#181818;stroke-width:0.5;"/><text fill="#000000" font-family="sans-serif" font-size="11" lengthAdjust="spacing" textLength="131.5542" x="283.0945" y="225.0112">&#1053;&#1072;&#1096;&#1077;&#1083; &#1085;&#1091;&#1078;&#1085;&#1091;&#1102; &#1082;&#1085;&#1080;&#1075;&#1091;?</text><text fill="#000000" font-family="sans-serif" font-size="11" lengthAdjust="spacing" textLength="14.3462" x="256.7483" y="218.6089">&#1076;&#1072;</text><text fill="#000000" font-family="sans-serif" font-size="11" lengthAdjust="spacing" textLength="20.3672" x="426.6487" y="218.6089">&#1085;&#1077;&#1090;</text><rect fill="#F1F1F1" height="33.9688" rx="12.5" ry="12.5" style="stroke:#181818;stroke-width:0.5;" width="197.2578" x="83.5452" y="243.2031"/><text fill="#000000" font-family="sans-serif" font-size="12" lengthAdjust="spacing" textLength="177.2578" x="93.5452" y="264.3418">&#1055;&#1077;&#1088;&#1077;&#1093;&#1086;&#1076; &#1085;&#1072; &#1089;&#1090;&#1088;&#1072;&#1085;&#1080;&#1094;&#1091; &#1082;&#1085;&#1080;&#1075;&#1080;</text><rect fill="#F1F1F1" height="47.9375" rx="12.5" ry="12.5" style="stroke:#181818;stroke-width:0.5;" width="164.6797" x="433.2292" y="243.2031"/><text fill="#000000" font-family="sans-serif" font-size="12" lengthAdjust="spacing" textLength="144.6797" x="443.2292" y="264.3418">&#1048;&#1089;&#1087;&#1086;&#1083;&#1100;&#1079;&#1086;&#1074;&#1072;&#1085;&#1080;&#1077; &#1087;&#1086;&#1080;&#1089;&#1082;&#1072;</text><text fill="#000000" font-family="sans-serif" font-size="12" lengthAdjust="spacing" textLength="73.4355" x="443.2292" y="278.3105">&#1080; &#1092;&#1080;&#1083;&#1100;&#1090;&#1088;&#1086;&#1074;</text><polygon fill="#F1F1F1" points="468.8728,311.1406,562.2654,311.1406,574.2654,323.1406,562.2654,335.1406,468.8728,335.1406,456.8728,323.1406,468.8728,311.1406" style="stroke:#181818;stroke-width:0.5;"/><text fill="#000000" font-family="sans-serif" font-size="11" lengthAdjust="spacing" textLength="93.3926" x="468.8728" y="326.9487">&#1050;&#1085;&#1080;&#1075;&#1072; &#1085;&#1072;&#1081;&#1076;&#1077;&#1085;&#1072;?</text><text fill="#000000" font-family="sans-serif" font-size="11" lengthAdjust="spacing" textLength="14.3462" x="442.5266" y="320.5464">&#1076;&#1072;</text><text fill="#000000" font-family="sans-serif" font-size="11" lengthAdjust="spacing" textLength="20.3672" x="574.2654" y="320.5464">&#1085;&#1077;&#1090;</text><rect fill="#F1F1F1" height="33.9688" rx="12.5" ry="12.5" style="stroke:#181818;stroke-width:0.5;" width="197.2578" x="310.803" y="345.1406"/><text fill="#000000" font-family="sans-serif" font-size="12" lengthAdjust="spacing" textLength="177.2578" x="320.803" y="366.2793">&#1055;&#1077;&#1088;&#1077;&#1093;&#1086;&#1076; &#1085;&#1072; &#1089;&#1090;&#1088;&#1072;&#1085;&#1080;&#1094;&#1091; &#1082;&#1085;&#1080;&#1075;&#1080;</text><rect fill="#F1F1F1" height="33.9688" rx="12.5" ry="12.5" style="stroke:#181818;stroke-width:0.5;" width="187.291" x="528.0608" y="345.1406"/><text fill="#000000" font-family="sans-serif" font-size="12" lengthAdjust="spacing" textLength="167.291" x="538.0608" y="366.2793">&#1055;&#1086;&#1080;&#1089;&#1082; &#1074; &#1076;&#1088;&#1091;&#1075;&#1080;&#1093; &#1084;&#1072;&#1075;&#1072;&#1079;&#1080;&#1085;&#1072;&#1093;</text><ellipse cx="621.7063" cy="410.1094" fill="none" rx="11" ry="11" style="stroke:#222222;stroke-width:1;"/><ellipse cx="621.7063" cy="410.1094" fill="#222222" rx="6" ry="6" style="stroke:#222222;stroke-width:1;"/><polygon fill="#F1F1F1" points="348.8716,431.1094,360.8716,443.1094,348.8716,455.1094,336.8716,443.1094,348.8716,431.1094" style="stroke:#181818;stroke-width:0.5;"/><rect fill="#F1F1F1" height="89.8438" rx="12.5" ry="12.5" style="stroke:#181818;stroke-width:0.5;" width="242.041" x="227.8511" y="475.1094"/><text fill="#000000" font-family="sans-serif" font-size="12" lengthAdjust="spacing" textLength="222.041" x="237.8511" y="496.248">&#1055;&#1088;&#1086;&#1089;&#1084;&#1086;&#1090;&#1088; &#1076;&#1077;&#1090;&#1072;&#1083;&#1100;&#1085;&#1086;&#1081; &#1080;&#1085;&#1092;&#1086;&#1088;&#1084;&#1072;&#1094;&#1080;&#1080;:</text><text fill="#000000" font-family="sans-serif" font-size="12" lengthAdjust="spacing" textLength="76.916" x="237.8511" y="510.2168">- &#1040;&#1085;&#1085;&#1086;&#1090;&#1072;&#1094;&#1080;&#1103;</text><text fill="#000000" font-family="sans-serif" font-size="12" lengthAdjust="spacing" textLength="84.0703" x="237.8511" y="524.1855">- &#1054;&#1075;&#1083;&#1072;&#1074;&#1083;&#1077;&#1085;&#1080;&#1077;</text><text fill="#000000" font-family="sans-serif" font-size="12" lengthAdjust="spacing" textLength="56.9824" x="237.8511" y="538.1543">- &#1054;&#1090;&#1079;&#1099;&#1074;&#1099;</text><text fill="#000000" font-family="sans-serif" font-size="12" lengthAdjust="spacing" textLength="40.043" x="237.8511" y="552.123">- &#1062;&#1077;&#1085;&#1072;</text><polygon fill="#F1F1F1" points="297.4246,584.9531,400.3186,584.9531,412.3186,596.9531,400.3186,608.9531,297.4246,608.9531,285.4246,596.9531,297.4246,584.9531" style="stroke:#181818;stroke-width:0.5;"/><text fill="#000000" font-family="sans-serif" font-size="11" lengthAdjust="spacing" textLength="102.894" x="297.4246" y="600.7612">&#1050;&#1085;&#1080;&#1075;&#1072; &#1074; &#1085;&#1072;&#1083;&#1080;&#1095;&#1080;&#1080;?</text><text fill="#000000" font-family="sans-serif" font-size="11" lengthAdjust="spacing" textLength="14.3462" x="271.0784" y="594.3589">&#1076;&#1072;</text><text fill="#000000" font-family="sans-serif" font-size="11" lengthAdjust="spacing" textLength="20.3672" x="412.3186" y="594.3589">&#1085;&#1077;&#1090;</text><rect fill="#F1F1F1" height="33.9688" rx="12.5" ry="12.5" style="stroke:#181818;stroke-width:0.5;" width="162.6582" x="118.2583" y="618.9531"/><text fill="#000000" font-family="sans-serif" font-size="12" lengthAdjust="spacing" textLength="142.6582" x="128.2583" y="640.0918">&#1044;&#1086;&#1073;&#1072;&#1074;&#1083;&#1077;&#1085;&#1080;&#1077; &#1074; &#1082;&#1086;&#1088;&#1079;&#1080;&#1085;&#1091;</text><polygon fill="#F1F1F1" points="435.5825,618.9531,560.729,618.9531,572.729,630.9531,560.729,642.9531,435.5825,642.9531,423.5825,630.9531,435.5825,618.9531" style="stroke:#181818;stroke-width:0.5;"/><text fill="#000000" font-family="sans-serif" font-size="11" lengthAdjust="spacing" textLength="125.1465" x="435.5825" y="634.7612">&#1044;&#1086;&#1089;&#1090;&#1091;&#1087;&#1077;&#1085; &#1087;&#1088;&#1077;&#1076;&#1079;&#1072;&#1082;&#1072;&#1079;?</text><text fill="#000000" font-family="sans-serif" font-size="11" lengthAdjust="spacing" textLength="14.3462" x="409.2363" y="628.3589">&#1076;&#1072;</text><text fill="#000000" font-family="sans-serif" font-size="11" lengthAdjust="spacing" textLength="20.3672" x="572.729" y="628.3589">&#1085;&#1077;&#1090;</text><rect fill="#F1F1F1" height="33.9688" rx="12.5" ry="12.5" style="stroke:#181818;stroke-width:0.5;" width="178.8242" x="315.8354" y="652.9531"/><text fill="#000000" font-family="sans-serif" font-size="12" lengthAdjust="spacing" textLength="158.8242" x="325.8354" y="674.0918">&#1054;&#1092;&#1086;&#1088;&#1084;&#1083;&#1077;&#1085;&#1080;&#1077; &#1087;&#1088;&#1077;&#1076;&#1079;&#1072;&#1082;&#1072;&#1079;&#1072;</text><rect fill="#F1F1F1" height="33.9688" rx="12.5" ry="12.5" style="stroke:#181818;stroke-width:0.5;" width="188.6621" x="310.9165" y="706.9219"/><text fill="#000000" font-family="sans-serif" font-size="12" lengthAdjust="spacing" textLength="168.6621" x="320.9165" y="728.0605">&#1055;&#1086;&#1076;&#1087;&#1080;&#1089;&#1082;&#1072; &#1085;&#1072; &#1091;&#1074;&#1077;&#1076;&#1086;&#1084;&#1083;&#1077;&#1085;&#1080;&#1077;</text><rect fill="#F1F1F1" height="33.9688" rx="12.5" ry="12.5" style="stroke:#181818;stroke-width:0.5;" width="142.9707" x="519.5786" y="652.9531"/><text fill="#000000" font-family="sans-serif" font-size="12" lengthAdjust="spacing" textLength="122.9707" x="529.5786" y="674.0918">&#1055;&#1086;&#1080;&#1089;&#1082; &#1072;&#1083;&#1100;&#1090;&#1077;&#1088;&#1085;&#1072;&#1090;&#1080;&#1074;</text><ellipse cx="591.064" cy="717.9219" fill="none" rx="11" ry="11" style="stroke:#222222;stroke-width:1;"/><ellipse cx="591.064" cy="717.9219" fill="#222222" rx="6" ry="6" style="stroke:#222222;stroke-width:1;"/><polygon fill="#F1F1F1" points="348.8716,750.8906,360.8716,762.8906,348.8716,774.8906,336.8716,762.8906,348.8716,750.8906" style="stroke:#181818;stroke-width:0.5;"/><rect fill="#F1F1F1" height="33.9688" rx="12.5" ry="12.5" style="stroke:#181818;stroke-width:0.5;" width="140.1816" x="278.7808" y="794.8906"/><text fill="#000000" font-family="sans-serif" font-size="12" lengthAdjust="spacing" textLength="120.1816" x="288.7808" y="816.0293">&#1055;&#1077;&#1088;&#1077;&#1093;&#1086;&#1076; &#1074; &#1082;&#1086;&#1088;&#1079;&#1080;&#1085;&#1091;</text><rect fill="#F1F1F1" height="33.9688" rx="12.5" ry="12.5" style="stroke:#181818;stroke-width:0.5;" width="227.8789" x="234.9321" y="848.8594"/><text fill="#000000" font-family="sans-serif" font-size="12" lengthAdjust="spacing" textLength="207.8789" x="244.9321" y="869.998">&#1055;&#1088;&#1086;&#1074;&#1077;&#1088;&#1082;&#1072; &#1089;&#1086;&#1076;&#1077;&#1088;&#1078;&#1080;&#1084;&#1086;&#1075;&#1086; &#1082;&#1086;&#1088;&#1079;&#1080;&#1085;&#1099;</text><polygon fill="#F1F1F1" points="282.5225,951.2305,415.2207,951.2305,427.2207,963.2305,415.2207,975.2305,282.5225,975.2305,270.5225,963.2305,282.5225,951.2305" style="stroke:#181818;stroke-width:0.5;"/><text fill="#000000" font-family="sans-serif" font-size="11" lengthAdjust="spacing" textLength="132.6982" x="282.5225" y="967.0386">&#1059;&#1078;&#1077; &#1079;&#1072;&#1088;&#1077;&#1075;&#1080;&#1089;&#1090;&#1088;&#1080;&#1088;&#1086;&#1074;&#1072;&#1085;?</text><text fill="#000000" font-family="sans-serif" font-size="11" lengthAdjust="spacing" textLength="14.3462" x="256.1763" y="960.6362">&#1076;&#1072;</text><text fill="#000000" font-family="sans-serif" font-size="11" lengthAdjust="spacing" textLength="20.3672" x="427.2207" y="960.6362">&#1085;&#1077;&#1090;</text><rect fill="#F1F1F1" height="33.9688" rx="12.5" ry="12.5" style="stroke:#181818;stroke-width:0.5;" width="117.1953" x="198.5156" y="985.2305"/><text fill="#000000" font-family="sans-serif" font-size="12" lengthAdjust="spacing" textLength="97.1953" x="208.5156" y="1006.3691">&#1042;&#1093;&#1086;&#1076; &#1074; &#1089;&#1080;&#1089;&#1090;&#1077;&#1084;&#1091;</text><rect fill="#F1F1F1" height="33.9688" rx="12.5" ry="12.5" style="stroke:#181818;stroke-width:0.5;" width="209.8379" x="335.7109" y="985.2305"/><text fill="#000000" font-family="sans-serif" font-size="12" lengthAdjust="spacing" textLength="189.8379" x="345.7109" y="1006.3691">&#1056;&#1077;&#1075;&#1080;&#1089;&#1090;&#1088;&#1072;&#1094;&#1080;&#1103; &#1085;&#1086;&#1074;&#1086;&#1075;&#1086; &#1072;&#1082;&#1082;&#1072;&#1091;&#1085;&#1090;&#1072;</text><polygon fill="#F1F1F1" points="348.8716,1025.1992,360.8716,1037.1992,348.8716,1049.1992,336.8716,1037.1992,348.8716,1025.1992" style="stroke:#181818;stroke-width:0.5;"/><polygon fill="#F1F1F1" points="277.2346,902.8281,420.5085,902.8281,432.5085,914.8281,420.5085,926.8281,277.2346,926.8281,265.2346,914.8281,277.2346,902.8281" style="stroke:#181818;stroke-width:0.5;"/><text fill="#000000" font-family="sans-serif" font-size="11" lengthAdjust="spacing" textLength="14.3462" x="352.8716" y="937.0386">&#1076;&#1072;</text><text fill="#000000" font-family="sans-serif" font-size="11" lengthAdjust="spacing" textLength="143.2739" x="277.2346" y="918.6362">&#1058;&#1088;&#1077;&#1073;&#1091;&#1077;&#1090;&#1089;&#1103; &#1072;&#1074;&#1090;&#1086;&#1088;&#1080;&#1079;&#1072;&#1094;&#1080;&#1103;?</text><text fill="#000000" font-family="sans-serif" font-size="11" lengthAdjust="spacing" textLength="20.3672" x="432.5085" y="912.2339">&#1085;&#1077;&#1090;</text><polygon fill="#F1F1F1" points="348.8716,1069.1992,360.8716,1081.1992,348.8716,1093.1992,336.8716,1081.1992,348.8716,1069.1992" style="stroke:#181818;stroke-width:0.5;"/><rect fill="#F1F1F1" height="75.875" rx="12.5" ry="12.5" style="stroke:#181818;stroke-width:0.5;" width="185.0176" x="256.3628" y="1113.1992"/><text fill="#000000" font-family="sans-serif" font-size="12" lengthAdjust="spacing" textLength="131.7246" x="266.3628" y="1134.3379">&#1054;&#1092;&#1086;&#1088;&#1084;&#1083;&#1077;&#1085;&#1080;&#1077; &#1079;&#1072;&#1082;&#1072;&#1079;&#1072;:</text><text fill="#000000" font-family="sans-serif" font-size="12" lengthAdjust="spacing" textLength="165.0176" x="266.3628" y="1148.3066">- &#1042;&#1099;&#1073;&#1086;&#1088; &#1089;&#1087;&#1086;&#1089;&#1086;&#1073;&#1072; &#1076;&#1086;&#1089;&#1090;&#1072;&#1074;&#1082;&#1080;</text><text fill="#000000" font-family="sans-serif" font-size="12" lengthAdjust="spacing" textLength="152.9941" x="266.3628" y="1162.2754">- &#1042;&#1099;&#1073;&#1086;&#1088; &#1089;&#1087;&#1086;&#1089;&#1086;&#1073;&#1072; &#1086;&#1087;&#1083;&#1072;&#1090;&#1099;</text><text fill="#000000" font-family="sans-serif" font-size="12" lengthAdjust="spacing" textLength="87.5039" x="266.3628" y="1176.2441">- &#1042;&#1074;&#1086;&#1076; &#1072;&#1076;&#1088;&#1077;&#1089;&#1072;</text><rect fill="#F1F1F1" height="33.9688" rx="12.5" ry="12.5" style="stroke:#181818;stroke-width:0.5;" width="169.127" x="264.3081" y="1209.0742"/><text fill="#000000" font-family="sans-serif" font-size="12" lengthAdjust="spacing" textLength="149.127" x="274.3081" y="1230.2129">&#1055;&#1086;&#1076;&#1090;&#1074;&#1077;&#1088;&#1078;&#1076;&#1077;&#1085;&#1080;&#1077; &#1079;&#1072;&#1082;&#1072;&#1079;&#1072;</text><rect fill="#F1F1F1" height="33.9688" rx="12.5" ry="12.5" style="stroke:#181818;stroke-width:0.5;" width="162.2129" x="267.7651" y="1263.043"/><text fill="#000000" font-family="sans-serif" font-size="12" lengthAdjust="spacing" textLength="142.2129" x="277.7651" y="1284.1816">&#1054;&#1087;&#1083;&#1072;&#1090;&#1072; &#1079;&#1072;&#1082;&#1072;&#1079;&#1072; &#1086;&#1085;&#1083;&#1072;&#1081;&#1085;</text><polygon fill="#F1F1F1" points="297.5615,1317.0117,400.1816,1317.0117,412.1816,1329.0117,400.1816,1341.0117,297.5615,1341.0117,285.5615,1329.0117,297.5615,1317.0117" style="stroke:#181818;stroke-width:0.5;"/><text fill="#000000" font-family="sans-serif" font-size="11" lengthAdjust="spacing" textLength="102.6201" x="297.5615" y="1332.8198">&#1054;&#1087;&#1083;&#1072;&#1090;&#1072; &#1091;&#1089;&#1087;&#1077;&#1096;&#1085;&#1072;?</text><text fill="#000000" font-family="sans-serif" font-size="11" lengthAdjust="spacing" textLength="14.3462" x="271.2153" y="1326.4175">&#1076;&#1072;</text><text fill="#000000" font-family="sans-serif" font-size="11" lengthAdjust="spacing" textLength="20.3672" x="412.1816" y="1326.4175">&#1085;&#1077;&#1090;</text><rect fill="#F1F1F1" height="47.9375" rx="12.5" ry="12.5" style="stroke:#181818;stroke-width:0.5;" width="194.3516" x="99.0371" y="1351.0117"/><text fill="#000000" font-family="sans-serif" font-size="12" lengthAdjust="spacing" textLength="174.3516" x="109.0371" y="1372.1504">&#1055;&#1086;&#1083;&#1091;&#1095;&#1077;&#1085;&#1080;&#1077; &#1087;&#1086;&#1076;&#1090;&#1074;&#1077;&#1088;&#1078;&#1076;&#1077;&#1085;&#1080;&#1103;</text><text fill="#000000" font-family="sans-serif" font-size="12" lengthAdjust="spacing" textLength="81.7266" x="109.0371" y="1386.1191">&#1087;&#1086; email/SMS</text><rect fill="#F1F1F1" height="33.9688" rx="12.5" ry="12.5" style="stroke:#181818;stroke-width:0.5;" width="149.2461" x="121.5898" y="1418.9492"/><text fill="#000000" font-family="sans-serif" font-size="12" lengthAdjust="spacing" textLength="129.2461" x="131.5898" y="1440.0879">&#1054;&#1078;&#1080;&#1076;&#1072;&#1085;&#1080;&#1077; &#1076;&#1086;&#1089;&#1090;&#1072;&#1074;&#1082;&#1080;</text><rect fill="#F1F1F1" height="33.9688" rx="12.5" ry="12.5" style="stroke:#181818;stroke-width:0.5;" width="212.832" x="89.7969" y="1472.918"/><text fill="#000000" font-family="sans-serif" font-size="12" lengthAdjust="spacing" textLength="192.832" x="99.7969" y="1494.0566">&#1054;&#1090;&#1089;&#1083;&#1077;&#1078;&#1080;&#1074;&#1072;&#1085;&#1080;&#1077; &#1089;&#1090;&#1072;&#1090;&#1091;&#1089;&#1072; &#1079;&#1072;&#1082;&#1072;&#1079;&#1072;</text><rect fill="#555555" height="6" rx="2.5" ry="2.5" style="stroke:#555555;stroke-width:1;" width="372.4258" x="11" y="1526.8867"/><rect fill="#F1F1F1" height="33.9688" rx="12.5" ry="12.5" style="stroke:#181818;stroke-width:0.5;" width="129.4473" x="23" y="1552.8867"/><text fill="#000000" font-family="sans-serif" font-size="12" lengthAdjust="spacing" textLength="109.4473" x="33" y="1574.0254">&#1055;&#1086;&#1083;&#1091;&#1095;&#1077;&#1085;&#1080;&#1077; &#1082;&#1085;&#1080;&#1075;&#1080;</text><rect fill="#F1F1F1" height="33.9688" rx="12.5" ry="12.5" style="stroke:#181818;stroke-width:0.5;" width="188.9785" x="180.4473" y="1552.8867"/><text fill="#000000" font-family="sans-serif" font-size="12" lengthAdjust="spacing" textLength="168.9785" x="190.4473" y="1574.0254">&#1053;&#1072;&#1087;&#1080;&#1089;&#1072;&#1085;&#1080;&#1077; &#1086;&#1090;&#1079;&#1099;&#1074;&#1072; &#1086; &#1082;&#1085;&#1080;&#1075;&#1077;</text><rect fill="#555555" height="6" rx="2.5" ry="2.5" style="stroke:#555555;stroke-width:1;" width="372.4258" x="11" y="1606.8555"/><rect fill="#F1F1F1" height="33.9688" rx="12.5" ry="12.5" style="stroke:#181818;stroke-width:0.5;" width="218.5156" x="86.9551" y="1632.8555"/><text fill="#000000" font-family="sans-serif" font-size="12" lengthAdjust="spacing" textLength="198.5156" x="96.9551" y="1653.9941">&#1044;&#1086;&#1073;&#1072;&#1074;&#1083;&#1077;&#1085;&#1080;&#1077; &#1074; &#1080;&#1089;&#1090;&#1086;&#1088;&#1080;&#1102; &#1079;&#1072;&#1082;&#1072;&#1079;&#1086;&#1074;</text><ellipse cx="196.2129" cy="1697.8242" fill="none" rx="11" ry="11" style="stroke:#222222;stroke-width:1;"/><ellipse cx="196.2129" cy="1697.8242" fill="#222222" rx="6" ry="6" style="stroke:#222222;stroke-width:1;"/><rect fill="#F1F1F1" height="47.9375" rx="12.5" ry="12.5" style="stroke:#181818;stroke-width:0.5;" width="196.209" x="403.4258" y="1351.0117"/><text fill="#000000" font-family="sans-serif" font-size="12" lengthAdjust="spacing" textLength="176.209" x="413.4258" y="1372.1504">&#1055;&#1086;&#1074;&#1090;&#1086;&#1088;&#1085;&#1072;&#1103; &#1087;&#1086;&#1087;&#1099;&#1090;&#1082;&#1072; &#1086;&#1087;&#1083;&#1072;&#1090;&#1099;</text><text fill="#000000" font-family="sans-serif" font-size="12" lengthAdjust="spacing" textLength="118.9336" x="413.4258" y="1386.1191">&#1080;&#1083;&#1080; &#1086;&#1090;&#1084;&#1077;&#1085;&#1072; &#1079;&#1072;&#1082;&#1072;&#1079;&#1072;</text><ellipse cx="501.5303" cy="1429.9492" fill="none" rx="11" ry="11" style="stroke:#222222;stroke-width:1;"/><ellipse cx="501.5303" cy="1429.9492" fill="#222222" rx="6" ry="6" style="stroke:#222222;stroke-width:1;"/><ellipse cx="348.8716" cy="1728.8242" fill="none" rx="10" ry="10" style="stroke:#222222;stroke-width:1.5;"/><line style="stroke:#222222;stroke-width:2.5;" x1="342.6844" x2="355.0588" y1="1722.637" y2="1735.0114"/><line style="stroke:#222222;stroke-width:2.5;" x1="355.0588" x2="342.6844" y1="1722.637" y2="1735.0114"/><line style="stroke:#181818;stroke-width:1;" x1="348.8716" x2="348.8716" y1="67.2969" y2="87.2969"/><polygon fill="#181818" points="344.8716,77.2969,348.8716,87.2969,352.8716,77.2969,348.8716,81.2969" style="stroke:#181818;stroke-width:1;"/><line style="stroke:#181818;stroke-width:1;" x1="348.8716" x2="348.8716" y1="121.2656" y2="141.2656"/><polygon fill="#181818" points="344.8716,131.2656,348.8716,141.2656,352.8716,131.2656,348.8716,135.2656" style="stroke:#181818;stroke-width:1;"/><line style="stroke:#181818;stroke-width:1;" x1="621.7063" x2="621.7063" y1="379.1094" y2="399.1094"/><polygon fill="#181818" points="617.7063,389.1094,621.7063,399.1094,625.7063,389.1094,621.7063,393.1094" style="stroke:#181818;stroke-width:1;"/><line style="stroke:#181818;stroke-width:1;" x1="456.8728" x2="409.4319" y1="323.1406" y2="323.1406"/><line style="stroke:#181818;stroke-width:1;" x1="409.4319" x2="409.4319" y1="323.1406" y2="345.1406"/><polygon fill="#181818" points="405.4319,335.1406,409.4319,345.1406,413.4319,335.1406,409.4319,339.1406" style="stroke:#181818;stroke-width:1;"/><line style="stroke:#181818;stroke-width:1;" x1="574.2654" x2="621.7063" y1="323.1406" y2="323.1406"/><line style="stroke:#181818;stroke-width:1;" x1="621.7063" x2="621.7063" y1="323.1406" y2="345.1406"/><polygon fill="#181818" points="617.7063,335.1406,621.7063,345.1406,625.7063,335.1406,621.7063,339.1406" style="stroke:#181818;stroke-width:1;"/><line style="stroke:#181818;stroke-width:1;" x1="409.4319" x2="409.4319" y1="379.1094" y2="443.1094"/><line style="stroke:#181818;stroke-width:1;" x1="409.4319" x2="360.8716" y1="443.1094" y2="443.1094"/><polygon fill="#181818" points="370.8716,439.1094,360.8716,443.1094,370.8716,447.1094,366.8716,443.1094" style="stroke:#181818;stroke-width:1;"/><line style="stroke:#181818;stroke-width:1;" x1="515.5691" x2="515.5691" y1="291.1406" y2="311.1406"/><polygon fill="#181818" points="511.5691,301.1406,515.5691,311.1406,519.5691,301.1406,515.5691,305.1406" style="stroke:#181818;stroke-width:1;"/><line style="stroke:#181818;stroke-width:1;" x1="271.0945" x2="182.1741" y1="221.2031" y2="221.2031"/><line style="stroke:#181818;stroke-width:1;" x1="182.1741" x2="182.1741" y1="221.2031" y2="243.2031"/><polygon fill="#181818" points="178.1741,233.2031,182.1741,243.2031,186.1741,233.2031,182.1741,237.2031" style="stroke:#181818;stroke-width:1;"/><line style="stroke:#181818;stroke-width:1;" x1="426.6487" x2="515.5691" y1="221.2031" y2="221.2031"/><line style="stroke:#181818;stroke-width:1;" x1="515.5691" x2="515.5691" y1="221.2031" y2="243.2031"/><polygon fill="#181818" points="511.5691,233.2031,515.5691,243.2031,519.5691,233.2031,515.5691,237.2031" style="stroke:#181818;stroke-width:1;"/><line style="stroke:#181818;stroke-width:1;" x1="182.1741" x2="182.1741" y1="277.1719" y2="443.1094"/><line style="stroke:#181818;stroke-width:1;" x1="182.1741" x2="336.8716" y1="443.1094" y2="443.1094"/><polygon fill="#181818" points="326.8716,439.1094,336.8716,443.1094,326.8716,447.1094,330.8716,443.1094" style="stroke:#181818;stroke-width:1;"/><line style="stroke:#181818;stroke-width:1;" x1="348.8716" x2="348.8716" y1="189.2031" y2="209.2031"/><polygon fill="#181818" points="344.8716,199.2031,348.8716,209.2031,352.8716,199.2031,348.8716,203.2031" style="stroke:#181818;stroke-width:1;"/><line style="stroke:#181818;stroke-width:1;" x1="348.8716" x2="348.8716" y1="455.1094" y2="475.1094"/><polygon fill="#181818" points="344.8716,465.1094,348.8716,475.1094,352.8716,465.1094,348.8716,469.1094" style="stroke:#181818;stroke-width:1;"/><line style="stroke:#181818;stroke-width:1;" x1="405.2476" x2="405.2476" y1="686.9219" y2="706.9219"/><polygon fill="#181818" points="401.2476,696.9219,405.2476,706.9219,409.2476,696.9219,405.2476,700.9219" style="stroke:#181818;stroke-width:1;"/><line style="stroke:#181818;stroke-width:1;" x1="591.064" x2="591.064" y1="686.9219" y2="706.9219"/><polygon fill="#181818" points="587.064,696.9219,591.064,706.9219,595.064,696.9219,591.064,700.9219" style="stroke:#181818;stroke-width:1;"/><line style="stroke:#181818;stroke-width:1;" x1="423.5825" x2="405.2476" y1="630.9531" y2="630.9531"/><line style="stroke:#181818;stroke-width:1;" x1="405.2476" x2="405.2476" y1="630.9531" y2="652.9531"/><polygon fill="#181818" points="401.2476,642.9531,405.2476,652.9531,409.2476,642.9531,405.2476,646.9531" style="stroke:#181818;stroke-width:1;"/><line style="stroke:#181818;stroke-width:1;" x1="572.729" x2="591.064" y1="630.9531" y2="630.9531"/><line style="stroke:#181818;stroke-width:1;" x1="591.064" x2="591.064" y1="630.9531" y2="652.9531"/><polygon fill="#181818" points="587.064,642.9531,591.064,652.9531,595.064,642.9531,591.064,646.9531" style="stroke:#181818;stroke-width:1;"/><line style="stroke:#181818;stroke-width:1;" x1="405.2476" x2="405.2476" y1="740.8906" y2="762.8906"/><line style="stroke:#181818;stroke-width:1;" x1="405.2476" x2="360.8716" y1="762.8906" y2="762.8906"/><polygon fill="#181818" points="370.8716,758.8906,360.8716,762.8906,370.8716,766.8906,366.8716,762.8906" style="stroke:#181818;stroke-width:1;"/><line style="stroke:#181818;stroke-width:1;" x1="285.4246" x2="199.5874" y1="596.9531" y2="596.9531"/><line style="stroke:#181818;stroke-width:1;" x1="199.5874" x2="199.5874" y1="596.9531" y2="618.9531"/><polygon fill="#181818" points="195.5874,608.9531,199.5874,618.9531,203.5874,608.9531,199.5874,612.9531" style="stroke:#181818;stroke-width:1;"/><line style="stroke:#181818;stroke-width:1;" x1="412.3186" x2="498.1558" y1="596.9531" y2="596.9531"/><line style="stroke:#181818;stroke-width:1;" x1="498.1558" x2="498.1558" y1="596.9531" y2="618.9531"/><polygon fill="#181818" points="494.1558,608.9531,498.1558,618.9531,502.1558,608.9531,498.1558,612.9531" style="stroke:#181818;stroke-width:1;"/><line style="stroke:#181818;stroke-width:1;" x1="199.5874" x2="199.5874" y1="652.9219" y2="762.8906"/><line style="stroke:#181818;stroke-width:1;" x1="199.5874" x2="336.8716" y1="762.8906" y2="762.8906"/><polygon fill="#181818" points="326.8716,758.8906,336.8716,762.8906,326.8716,766.8906,330.8716,762.8906" style="stroke:#181818;stroke-width:1;"/><line style="stroke:#181818;stroke-width:1;" x1="348.8716" x2="348.8716" y1="564.9531" y2="584.9531"/><polygon fill="#181818" points="344.8716,574.9531,348.8716,584.9531,352.8716,574.9531,348.8716,578.9531" style="stroke:#181818;stroke-width:1;"/><line style="stroke:#181818;stroke-width:1;" x1="348.8716" x2="348.8716" y1="774.8906" y2="794.8906"/><polygon fill="#181818" points="344.8716,784.8906,348.8716,794.8906,352.8716,784.8906,348.8716,788.8906" style="stroke:#181818;stroke-width:1;"/><line style="stroke:#181818;stroke-width:1;" x1="348.8716" x2="348.8716" y1="828.8594" y2="848.8594"/><polygon fill="#181818" points="344.8716,838.8594,348.8716,848.8594,352.8716,838.8594,348.8716,842.8594" style="stroke:#181818;stroke-width:1;"/><line style="stroke:#181818;stroke-width:1;" x1="270.5225" x2="257.1133" y1="963.2305" y2="963.2305"/><line style="stroke:#181818;stroke-width:1;" x1="257.1133" x2="257.1133" y1="963.2305" y2="985.2305"/><polygon fill="#181818" points="253.1133,975.2305,257.1133,985.2305,261.1133,975.2305,257.1133,979.2305" style="stroke:#181818;stroke-width:1;"/><line style="stroke:#181818;stroke-width:1;" x1="427.2207" x2="440.6299" y1="963.2305" y2="963.2305"/><line style="stroke:#181818;stroke-width:1;" x1="440.6299" x2="440.6299" y1="963.2305" y2="985.2305"/><polygon fill="#181818" points="436.6299,975.2305,440.6299,985.2305,444.6299,975.2305,440.6299,979.2305" style="stroke:#181818;stroke-width:1;"/><line style="stroke:#181818;stroke-width:1;" x1="257.1133" x2="257.1133" y1="1019.1992" y2="1037.1992"/><line style="stroke:#181818;stroke-width:1;" x1="257.1133" x2="336.8716" y1="1037.1992" y2="1037.1992"/><polygon fill="#181818" points="326.8716,1033.1992,336.8716,1037.1992,326.8716,1041.1992,330.8716,1037.1992" style="stroke:#181818;stroke-width:1;"/><line style="stroke:#181818;stroke-width:1;" x1="440.6299" x2="440.6299" y1="1019.1992" y2="1037.1992"/><line style="stroke:#181818;stroke-width:1;" x1="440.6299" x2="360.8716" y1="1037.1992" y2="1037.1992"/><polygon fill="#181818" points="370.8716,1033.1992,360.8716,1037.1992,370.8716,1041.1992,366.8716,1037.1992" style="stroke:#181818;stroke-width:1;"/><line style="stroke:#181818;stroke-width:1;" x1="348.8716" x2="348.8716" y1="926.8281" y2="951.2305"/><polygon fill="#181818" points="344.8716,941.2305,348.8716,951.2305,352.8716,941.2305,348.8716,945.2305" style="stroke:#181818;stroke-width:1;"/><line style="stroke:#181818;stroke-width:1;" x1="432.5085" x2="565.5488" y1="914.8281" y2="914.8281"/><polygon fill="#181818" points="561.5488,990.2148,565.5488,1000.2148,569.5488,990.2148,565.5488,994.2148" style="stroke:#181818;stroke-width:1;"/><line style="stroke:#181818;stroke-width:1;" x1="565.5488" x2="565.5488" y1="914.8281" y2="1081.1992"/><line style="stroke:#181818;stroke-width:1;" x1="565.5488" x2="360.8716" y1="1081.1992" y2="1081.1992"/><polygon fill="#181818" points="370.8716,1077.1992,360.8716,1081.1992,370.8716,1085.1992,366.8716,1081.1992" style="stroke:#181818;stroke-width:1;"/><line style="stroke:#181818;stroke-width:1;" x1="348.8716" x2="348.8716" y1="1049.1992" y2="1069.1992"/><polygon fill="#181818" points="344.8716,1059.1992,348.8716,1069.1992,352.8716,1059.1992,348.8716,1063.1992" style="stroke:#181818;stroke-width:1;"/><line style="stroke:#181818;stroke-width:1;" x1="348.8716" x2="348.8716" y1="882.8281" y2="902.8281"/><polygon fill="#181818" points="344.8716,892.8281,348.8716,902.8281,352.8716,892.8281,348.8716,896.8281" style="stroke:#181818;stroke-width:1;"/><line style="stroke:#181818;stroke-width:1;" x1="348.8716" x2="348.8716" y1="1093.1992" y2="1113.1992"/><polygon fill="#181818" points="344.8716,1103.1992,348.8716,1113.1992,352.8716,1103.1992,348.8716,1107.1992" style="stroke:#181818;stroke-width:1;"/><line style="stroke:#181818;stroke-width:1;" x1="348.8716" x2="348.8716" y1="1189.0742" y2="1209.0742"/><polygon fill="#181818" points="344.8716,1199.0742,348.8716,1209.0742,352.8716,1199.0742,348.8716,1203.0742" style="stroke:#181818;stroke-width:1;"/><line style="stroke:#181818;stroke-width:1;" x1="348.8716" x2="348.8716" y1="1243.043" y2="1263.043"/><polygon fill="#181818" points="344.8716,1253.043,348.8716,1263.043,352.8716,1253.043,348.8716,1257.043" style="stroke:#181818;stroke-width:1;"/><line style="stroke:#181818;stroke-width:1;" x1="196.2129" x2="196.2129" y1="1398.9492" y2="1418.9492"/><polygon fill="#181818" points="192.2129,1408.9492,196.2129,1418.9492,200.2129,1408.9492,196.2129,1412.9492" style="stroke:#181818;stroke-width:1;"/><line style="stroke:#181818;stroke-width:1;" x1="196.2129" x2="196.2129" y1="1452.918" y2="1472.918"/><polygon fill="#181818" points="192.2129,1462.918,196.2129,1472.918,200.2129,1462.918,196.2129,1466.918" style="stroke:#181818;stroke-width:1;"/><line style="stroke:#181818;stroke-width:1;" x1="87.7236" x2="87.7236" y1="1532.8867" y2="1552.8867"/><polygon fill="#181818" points="83.7236,1542.8867,87.7236,1552.8867,91.7236,1542.8867,87.7236,1546.8867" style="stroke:#181818;stroke-width:1;"/><line style="stroke:#181818;stroke-width:1;" x1="274.9365" x2="274.9365" y1="1532.8867" y2="1552.8867"/><polygon fill="#181818" points="270.9365,1542.8867,274.9365,1552.8867,278.9365,1542.8867,274.9365,1546.8867" style="stroke:#181818;stroke-width:1;"/><line style="stroke:#181818;stroke-width:1;" x1="87.7236" x2="87.7236" y1="1586.8555" y2="1606.8555"/><polygon fill="#181818" points="83.7236,1596.8555,87.7236,1606.8555,91.7236,1596.8555,87.7236,1600.8555" style="stroke:#181818;stroke-width:1;"/><line style="stroke:#181818;stroke-width:1;" x1="274.9365" x2="274.9365" y1="1586.8555" y2="1606.8555"/><polygon fill="#181818" points="270.9365,1596.8555,274.9365,1606.8555,278.9365,1596.8555,274.9365,1600.8555" style="stroke:#181818;stroke-width:1;"/><line style="stroke:#181818;stroke-width:1;" x1="196.2129" x2="196.2129" y1="1506.8867" y2="1526.8867"/><polygon fill="#181818" points="192.2129,1516.8867,196.2129,1526.8867,200.2129,1516.8867,196.2129,1520.8867" style="stroke:#181818;stroke-width:1;"/><line style="stroke:#181818;stroke-width:1;" x1="196.2129" x2="196.2129" y1="1612.8555" y2="1632.8555"/><polygon fill="#181818" points="192.2129,1622.8555,196.2129,1632.8555,200.2129,1622.8555,196.2129,1626.8555" style="stroke:#181818;stroke-width:1;"/><line style="stroke:#181818;stroke-width:1;" x1="196.2129" x2="196.2129" y1="1666.8242" y2="1686.8242"/><polygon fill="#181818" points="192.2129,1676.8242,196.2129,1686.8242,200.2129,1676.8242,196.2129,1680.8242" style="stroke:#181818;stroke-width:1;"/><line style="stroke:#181818;stroke-width:1;" x1="501.5303" x2="501.5303" y1="1398.9492" y2="1418.9492"/><polygon fill="#181818" points="497.5303,1408.9492,501.5303,1418.9492,505.5303,1408.9492,501.5303,1412.9492" style="stroke:#181818;stroke-width:1;"/><line style="stroke:#181818;stroke-width:1;" x1="285.5615" x2="196.2129" y1="1329.0117" y2="1329.0117"/><line style="stroke:#181818;stroke-width:1;" x1="196.2129" x2="196.2129" y1="1329.0117" y2="1351.0117"/><polygon fill="#181818" points="192.2129,1341.0117,196.2129,1351.0117,200.2129,1341.0117,196.2129,1345.0117" style="stroke:#181818;stroke-width:1;"/><line style="stroke:#181818;stroke-width:1;" x1="412.1816" x2="501.5303" y1="1329.0117" y2="1329.0117"/><line style="stroke:#181818;stroke-width:1;" x1="501.5303" x2="501.5303" y1="1329.0117" y2="1351.0117"/><polygon fill="#181818" points="497.5303,1341.0117,501.5303,1351.0117,505.5303,1341.0117,501.5303,1345.0117" style="stroke:#181818;stroke-width:1;"/><line style="stroke:#181818;stroke-width:1;" x1="348.8716" x2="348.8716" y1="1297.0117" y2="1317.0117"/><polygon fill="#181818" points="344.8716,1307.0117,348.8716,1317.0117,352.8716,1307.0117,348.8716,1311.0117" style="stroke:#181818;stroke-width:1;"/><!--SRC=[dLNBRjDG4DtxA-wIBX3xPi4NiEeNH2A5YDAYDX-GHnz8GHHLNI0aKWGIQyVOr7cvlp3tZpXdnexjs5G8gNMIU-TnPiwPyQ0_EEevkVD3oVob97xaHquU99Ebd-1pAQd3OoEf_EBNyYRqOqbaXVzrS3RedWw2O5_kTg_z1oVt-761YrXIFtQ85Je_ab0MVjoXZ-OUoHhFiHyw95hXDe9X9WkOyXG7mE0l_TG51ea9GbXci0-t63j1q3zqJ-GhxjyJ0F81psy-_SUjcPyyttE3rxrZcCOIxWNE4No2H8bXBN3MaayglUW4lQEp7lmtS1bRXCyeWnr2sQWwGmtgAOarBiKrW3lOeWP_ZXjOQWROTd2isB_aAKB580iWJFYj0Vb_G3kt2zkYvEYSH4vYFqJFOEul76W9YGNrf8pkBphgSpOuUSTWno_xXu4zsxYCcOKyeIF69yEWz0oM20tDfPBk1q-TV8B1XdvswgzvEDkgOQLDG2_r65RtVYgHd_BdJsjGGNwbWP7rS8LuLypKGlijOCthATHlgHYrR3zfigsPRbajAgNYuGkQIGPYG_EaMkvRIPjj6r19sN1bGIKzCL8K0ZAQ9u1CXwmQvnyO3arrAfoDpb5gwlihgtMDDNkJ4qyy-5pQW6TA_X2pbr8Fu2EhEquBlhvhvNCK1C3evpKnHi15srJtXmgYqKlr_e4CYMqPXg5iRG3I71C6ePM5cx8Wm5KlRZCMrDx3RxNmEIYdkewA0iaTbzC41OwDmRoRjO3RthPAeI817OqRI7rECsSBHhixfn1Y4w3A5xlwSUCCFrSatARcHb77n1mhloCTeLnk21hb_CMjo4Zxh8Z8y9Kxvjheu2vaKz1SDSOs9hW4Ixfjinc65QokAWFI3WiKSA7YrlNUTlj7pmvU77Gqnaor5vTBUATRkHKrfzsdTRcopPB3pSQutRd4t-79wPlAUEt0hIrTchhkgsx_E7V02oeVw2swh5XgshyoG9ABgCZtwDOo6UlWy7rNWixVC3hXpJSNyHSJnvrmRUr-y5CSBdV4OoymBbK3lRRrssYHvJAbu-CF]--></g></svg>