<svg xmlns="http://www.w3.org/2000/svg" xmlns:xlink="http://www.w3.org/1999/xlink" contentStyleType="text/css" data-diagram-type="ACTIVITY" height="1010px" preserveAspectRatio="none" style="width:877px;height:1010px;background:#FFFFFF;" version="1.1" viewBox="0 0 877 1010" width="877px" zoomAndPan="magnify"><title>&#1055;&#1088;&#1086;&#1094;&#1077;&#1089;&#1089; &#1086;&#1073;&#1088;&#1072;&#1073;&#1086;&#1090;&#1082;&#1080; &#1079;&#1072;&#1082;&#1072;&#1079;&#1072; &#1072;&#1076;&#1084;&#1080;&#1085;&#1080;&#1089;&#1090;&#1088;&#1072;&#1090;&#1086;&#1088;&#1086;&#1084;</title><defs/><g><g class="title" data-source-line="1"><text fill="#000000" font-family="sans-serif" font-size="14" font-weight="bold" lengthAdjust="spacing" textLength="368.4297" x="253.1687" y="32.9951">&#1055;&#1088;&#1086;&#1094;&#1077;&#1089;&#1089; &#1086;&#1073;&#1088;&#1072;&#1073;&#1086;&#1090;&#1082;&#1080; &#1079;&#1072;&#1082;&#1072;&#1079;&#1072; &#1072;&#1076;&#1084;&#1080;&#1085;&#1080;&#1089;&#1090;&#1088;&#1072;&#1090;&#1086;&#1088;&#1086;&#1084;</text></g><ellipse cx="522.7354" cy="57.2969" fill="#222222" rx="10" ry="10" style="stroke:#222222;stroke-width:1;"/><rect fill="#F1F1F1" height="33.9688" rx="12.5" ry="12.5" style="stroke:#181818;stroke-width:0.5;" width="234.1484" x="405.6612" y="87.2969"/><text fill="#000000" font-family="sans-serif" font-size="12" lengthAdjust="spacing" textLength="214.1484" x="415.6612" y="108.4355">&#1040;&#1076;&#1084;&#1080;&#1085;&#1080;&#1089;&#1090;&#1088;&#1072;&#1090;&#1086;&#1088; &#1074;&#1093;&#1086;&#1076;&#1080;&#1090; &#1074; &#1089;&#1080;&#1089;&#1090;&#1077;&#1084;&#1091;</text><rect fill="#F1F1F1" height="33.9688" rx="12.5" ry="12.5" style="stroke:#181818;stroke-width:0.5;" width="176.252" x="434.6094" y="185.2656"/><text fill="#000000" font-family="sans-serif" font-size="12" lengthAdjust="spacing" textLength="156.252" x="444.6094" y="206.4043">&#1055;&#1088;&#1086;&#1074;&#1077;&#1088;&#1082;&#1072; &#1085;&#1086;&#1074;&#1099;&#1093; &#1079;&#1072;&#1082;&#1072;&#1079;&#1086;&#1074;</text><polygon fill="#F1F1F1" points="465.1922,239.2344,580.2786,239.2344,592.2786,251.2344,580.2786,263.2344,465.1922,263.2344,453.1922,251.2344,465.1922,239.2344" style="stroke:#181818;stroke-width:0.5;"/><text fill="#000000" font-family="sans-serif" font-size="11" lengthAdjust="spacing" textLength="115.0864" x="465.1922" y="255.0425">&#1045;&#1089;&#1090;&#1100; &#1085;&#1086;&#1074;&#1099;&#1077; &#1079;&#1072;&#1082;&#1072;&#1079;&#1099;?</text><text fill="#000000" font-family="sans-serif" font-size="11" lengthAdjust="spacing" textLength="14.3462" x="438.846" y="248.6401">&#1076;&#1072;</text><text fill="#000000" font-family="sans-serif" font-size="11" lengthAdjust="spacing" textLength="20.3672" x="592.2786" y="248.6401">&#1085;&#1077;&#1090;</text><rect fill="#F1F1F1" height="33.9688" rx="12.5" ry="12.5" style="stroke:#181818;stroke-width:0.5;" width="203.2578" x="202.0201" y="273.2344"/><text fill="#000000" font-family="sans-serif" font-size="12" lengthAdjust="spacing" textLength="183.2578" x="212.0201" y="294.373">&#1042;&#1099;&#1073;&#1086;&#1088; &#1079;&#1072;&#1082;&#1072;&#1079;&#1072; &#1076;&#1083;&#1103; &#1086;&#1073;&#1088;&#1072;&#1073;&#1086;&#1090;&#1082;&#1080;</text><rect fill="#F1F1F1" height="33.9688" rx="12.5" ry="12.5" style="stroke:#181818;stroke-width:0.5;" width="178.2734" x="214.5123" y="327.2031"/><text fill="#000000" font-family="sans-serif" font-size="12" lengthAdjust="spacing" textLength="158.2734" x="224.5123" y="348.3418">&#1055;&#1088;&#1086;&#1074;&#1077;&#1088;&#1082;&#1072; &#1076;&#1072;&#1085;&#1085;&#1099;&#1093; &#1079;&#1072;&#1082;&#1072;&#1079;&#1072;</text><polygon fill="#F1F1F1" points="233.4435,381.1719,373.8546,381.1719,385.8546,393.1719,373.8546,405.1719,233.4435,405.1719,221.4435,393.1719,233.4435,381.1719" style="stroke:#181818;stroke-width:0.5;"/><text fill="#000000" font-family="sans-serif" font-size="11" lengthAdjust="spacing" textLength="140.4111" x="233.4435" y="396.98">&#1042;&#1089;&#1077; &#1076;&#1072;&#1085;&#1085;&#1099;&#1077; &#1082;&#1086;&#1088;&#1088;&#1077;&#1082;&#1090;&#1085;&#1099;?</text><text fill="#000000" font-family="sans-serif" font-size="11" lengthAdjust="spacing" textLength="14.3462" x="207.0973" y="390.5776">&#1076;&#1072;</text><text fill="#000000" font-family="sans-serif" font-size="11" lengthAdjust="spacing" textLength="20.3672" x="385.8546" y="390.5776">&#1085;&#1077;&#1090;</text><rect fill="#F1F1F1" height="33.9688" rx="12.5" ry="12.5" style="stroke:#181818;stroke-width:0.5;" width="169.127" x="58.2236" y="415.1719"/><text fill="#000000" font-family="sans-serif" font-size="12" lengthAdjust="spacing" textLength="149.127" x="68.2236" y="436.3105">&#1055;&#1086;&#1076;&#1090;&#1074;&#1077;&#1088;&#1078;&#1076;&#1077;&#1085;&#1080;&#1077; &#1079;&#1072;&#1082;&#1072;&#1079;&#1072;</text><rect fill="#F1F1F1" height="33.9688" rx="12.5" ry="12.5" style="stroke:#181818;stroke-width:0.5;" width="175.1504" x="55.2119" y="469.1406"/><text fill="#000000" font-family="sans-serif" font-size="12" lengthAdjust="spacing" textLength="155.1504" x="65.2119" y="490.2793">&#1060;&#1086;&#1088;&#1084;&#1080;&#1088;&#1086;&#1074;&#1072;&#1085;&#1080;&#1077; &#1086;&#1090;&#1075;&#1088;&#1091;&#1079;&#1082;&#1080;</text><rect fill="#F1F1F1" height="33.9688" rx="12.5" ry="12.5" style="stroke:#181818;stroke-width:0.5;" width="205.3965" x="40.0889" y="538.1094"/><text fill="#000000" font-family="sans-serif" font-size="12" lengthAdjust="spacing" textLength="185.3965" x="50.0889" y="559.248">&#1055;&#1077;&#1088;&#1077;&#1076;&#1072;&#1095;&#1072; &#1074; &#1089;&#1083;&#1091;&#1078;&#1073;&#1091; &#1076;&#1086;&#1089;&#1090;&#1072;&#1074;&#1082;&#1080;</text><rect fill="#F1F1F1" height="33.9688" rx="12.5" ry="12.5" style="stroke:#181818;stroke-width:0.5;" width="195.8691" x="44.8525" y="592.0781"/><text fill="#000000" font-family="sans-serif" font-size="12" lengthAdjust="spacing" textLength="175.8691" x="54.8525" y="613.2168">&#1054;&#1073;&#1085;&#1086;&#1074;&#1083;&#1077;&#1085;&#1080;&#1077; &#1089;&#1090;&#1072;&#1090;&#1091;&#1089;&#1072; &#1079;&#1072;&#1082;&#1072;&#1079;&#1072;</text><rect fill="#F1F1F1" height="33.9688" rx="12.5" ry="12.5" style="stroke:#181818;stroke-width:0.5;" width="263.5742" x="11" y="646.0469"/><text fill="#000000" font-family="sans-serif" font-size="12" lengthAdjust="spacing" textLength="243.5742" x="21" y="667.1855">&#1059;&#1074;&#1077;&#1076;&#1086;&#1084;&#1083;&#1077;&#1085;&#1080;&#1077; &#1087;&#1086;&#1082;&#1091;&#1087;&#1072;&#1090;&#1077;&#1083;&#1103; &#1086;&#1073; &#1086;&#1090;&#1087;&#1088;&#1072;&#1074;&#1082;&#1077;</text><rect fill="#F1F1F1" height="33.9688" rx="12.5" ry="12.5" style="stroke:#181818;stroke-width:0.5;" width="250.9941" x="339.0139" y="415.1719"/><text fill="#000000" font-family="sans-serif" font-size="12" lengthAdjust="spacing" textLength="230.9941" x="349.0139" y="436.3105">&#1057;&#1074;&#1103;&#1079;&#1100; &#1089; &#1087;&#1086;&#1082;&#1091;&#1087;&#1072;&#1090;&#1077;&#1083;&#1077;&#1084; &#1076;&#1083;&#1103; &#1091;&#1090;&#1086;&#1095;&#1085;&#1077;&#1085;&#1080;&#1103;</text><polygon fill="#F1F1F1" points="402.123,469.1406,526.8989,469.1406,538.8989,481.1406,526.8989,493.1406,402.123,493.1406,390.123,481.1406,402.123,469.1406" style="stroke:#181818;stroke-width:0.5;"/><text fill="#000000" font-family="sans-serif" font-size="11" lengthAdjust="spacing" textLength="124.7759" x="402.123" y="484.9487">&#1044;&#1072;&#1085;&#1085;&#1099;&#1077; &#1080;&#1089;&#1087;&#1088;&#1072;&#1074;&#1083;&#1077;&#1085;&#1099;?</text><text fill="#000000" font-family="sans-serif" font-size="11" lengthAdjust="spacing" textLength="14.3462" x="375.7769" y="478.5464">&#1076;&#1072;</text><text fill="#000000" font-family="sans-serif" font-size="11" lengthAdjust="spacing" textLength="20.3672" x="538.8989" y="478.5464">&#1085;&#1077;&#1090;</text><rect fill="#F1F1F1" height="33.9688" rx="12.5" ry="12.5" style="stroke:#181818;stroke-width:0.5;" width="151.0977" x="304.5742" y="503.1406"/><text fill="#000000" font-family="sans-serif" font-size="12" lengthAdjust="spacing" textLength="131.0977" x="314.5742" y="524.2793">&#1055;&#1086;&#1074;&#1090;&#1086;&#1088;&#1085;&#1072;&#1103; &#1087;&#1088;&#1086;&#1074;&#1077;&#1088;&#1082;&#1072;</text><rect fill="#F1F1F1" height="33.9688" rx="12.5" ry="12.5" style="stroke:#181818;stroke-width:0.5;" width="113.9551" x="491.9214" y="503.1406"/><text fill="#000000" font-family="sans-serif" font-size="12" lengthAdjust="spacing" textLength="93.9551" x="501.9214" y="524.2793">&#1054;&#1090;&#1084;&#1077;&#1085;&#1072; &#1079;&#1072;&#1082;&#1072;&#1079;&#1072;</text><polygon fill="#F1F1F1" points="464.511,543.1094,476.511,555.1094,464.511,567.1094,452.511,555.1094,464.511,543.1094" style="stroke:#181818;stroke-width:0.5;"/><polygon fill="#F1F1F1" points="303.649,686.0156,315.649,698.0156,303.649,710.0156,291.649,698.0156,303.649,686.0156" style="stroke:#181818;stroke-width:0.5;"/><rect fill="#F1F1F1" height="33.9688" rx="12.5" ry="12.5" style="stroke:#181818;stroke-width:0.5;" width="196.8594" x="205.2194" y="730.0156"/><text fill="#000000" font-family="sans-serif" font-size="12" lengthAdjust="spacing" textLength="176.8594" x="215.2194" y="751.1543">&#1047;&#1072;&#1087;&#1080;&#1089;&#1100; &#1074; &#1080;&#1089;&#1090;&#1086;&#1088;&#1080;&#1102; &#1076;&#1077;&#1081;&#1089;&#1090;&#1074;&#1080;&#1081;</text><rect fill="#F1F1F1" height="33.9688" rx="12.5" ry="12.5" style="stroke:#181818;stroke-width:0.5;" width="191.8906" x="645.8765" y="273.2344"/><text fill="#000000" font-family="sans-serif" font-size="12" lengthAdjust="spacing" textLength="171.8906" x="655.8765" y="294.373">&#1055;&#1077;&#1088;&#1077;&#1093;&#1086;&#1076; &#1082; &#1076;&#1088;&#1091;&#1075;&#1080;&#1084; &#1079;&#1072;&#1076;&#1072;&#1095;&#1072;&#1084;</text><polygon fill="#F1F1F1" points="522.7354,769.9844,534.7354,781.9844,522.7354,793.9844,510.7354,781.9844,522.7354,769.9844" style="stroke:#181818;stroke-width:0.5;"/><rect fill="#F1F1F1" height="33.9688" rx="12.5" ry="12.5" style="stroke:#181818;stroke-width:0.5;" width="227.9199" x="408.7755" y="813.9844"/><text fill="#000000" font-family="sans-serif" font-size="12" lengthAdjust="spacing" textLength="207.9199" x="418.7755" y="835.123">&#1060;&#1086;&#1088;&#1084;&#1080;&#1088;&#1086;&#1074;&#1072;&#1085;&#1080;&#1077; &#1086;&#1090;&#1095;&#1077;&#1090;&#1086;&#1074; &#1079;&#1072; &#1089;&#1084;&#1077;&#1085;&#1091;</text><polygon fill="#F1F1F1" points="522.7354,141.2656,534.7354,153.2656,522.7354,165.2656,510.7354,153.2656,522.7354,141.2656" style="stroke:#181818;stroke-width:0.5;"/><polygon fill="#F1F1F1" points="445.8482,867.9531,599.6226,867.9531,611.6226,879.9531,599.6226,891.9531,445.8482,891.9531,433.8482,879.9531,445.8482,867.9531" style="stroke:#181818;stroke-width:0.5;"/><text fill="#000000" font-family="sans-serif" font-size="11" lengthAdjust="spacing" textLength="20.3672" x="526.7354" y="902.1636">&#1085;&#1077;&#1090;</text><text fill="#000000" font-family="sans-serif" font-size="11" lengthAdjust="spacing" textLength="153.7744" x="445.8482" y="883.7612">&#1056;&#1072;&#1073;&#1086;&#1095;&#1080;&#1081; &#1076;&#1077;&#1085;&#1100; &#1085;&#1077; &#1086;&#1082;&#1086;&#1085;&#1095;&#1077;&#1085;?</text><rect fill="#F1F1F1" height="33.9688" rx="12.5" ry="12.5" style="stroke:#181818;stroke-width:0.5;" width="200.8965" x="422.2872" y="923.6636"/><text fill="#000000" font-family="sans-serif" font-size="12" lengthAdjust="spacing" textLength="180.8965" x="432.2872" y="944.8022">&#1047;&#1072;&#1074;&#1077;&#1088;&#1096;&#1077;&#1085;&#1080;&#1077; &#1088;&#1072;&#1073;&#1086;&#1095;&#1077;&#1081; &#1089;&#1077;&#1089;&#1089;&#1080;&#1080;</text><ellipse cx="522.7354" cy="988.6323" fill="none" rx="11" ry="11" style="stroke:#222222;stroke-width:1;"/><ellipse cx="522.7354" cy="988.6323" fill="#222222" rx="6" ry="6" style="stroke:#222222;stroke-width:1;"/><line style="stroke:#181818;stroke-width:1;" x1="522.7354" x2="522.7354" y1="67.2969" y2="87.2969"/><polygon fill="#181818" points="518.7354,77.2969,522.7354,87.2969,526.7354,77.2969,522.7354,81.2969" style="stroke:#181818;stroke-width:1;"/><line style="stroke:#181818;stroke-width:1;" x1="303.649" x2="303.649" y1="307.2031" y2="327.2031"/><polygon fill="#181818" points="299.649,317.2031,303.649,327.2031,307.649,317.2031,303.649,321.2031" style="stroke:#181818;stroke-width:1;"/><line style="stroke:#181818;stroke-width:1;" x1="142.7871" x2="142.7871" y1="449.1406" y2="469.1406"/><polygon fill="#181818" points="138.7871,459.1406,142.7871,469.1406,146.7871,459.1406,142.7871,463.1406" style="stroke:#181818;stroke-width:1;"/><line style="stroke:#181818;stroke-width:1;" x1="142.7871" x2="142.7871" y1="503.1094" y2="538.1094"/><polygon fill="#181818" points="138.7871,528.1094,142.7871,538.1094,146.7871,528.1094,142.7871,532.1094" style="stroke:#181818;stroke-width:1;"/><line style="stroke:#181818;stroke-width:1;" x1="142.7871" x2="142.7871" y1="572.0781" y2="592.0781"/><polygon fill="#181818" points="138.7871,582.0781,142.7871,592.0781,146.7871,582.0781,142.7871,586.0781" style="stroke:#181818;stroke-width:1;"/><line style="stroke:#181818;stroke-width:1;" x1="142.7871" x2="142.7871" y1="626.0469" y2="646.0469"/><polygon fill="#181818" points="138.7871,636.0469,142.7871,646.0469,146.7871,636.0469,142.7871,640.0469" style="stroke:#181818;stroke-width:1;"/><line style="stroke:#181818;stroke-width:1;" x1="390.123" x2="380.123" y1="481.1406" y2="481.1406"/><line style="stroke:#181818;stroke-width:1;" x1="380.123" x2="380.123" y1="481.1406" y2="503.1406"/><polygon fill="#181818" points="376.123,493.1406,380.123,503.1406,384.123,493.1406,380.123,497.1406" style="stroke:#181818;stroke-width:1;"/><line style="stroke:#181818;stroke-width:1;" x1="538.8989" x2="548.8989" y1="481.1406" y2="481.1406"/><line style="stroke:#181818;stroke-width:1;" x1="548.8989" x2="548.8989" y1="481.1406" y2="503.1406"/><polygon fill="#181818" points="544.8989,493.1406,548.8989,503.1406,552.8989,493.1406,548.8989,497.1406" style="stroke:#181818;stroke-width:1;"/><line style="stroke:#181818;stroke-width:1;" x1="380.123" x2="380.123" y1="537.1094" y2="555.1094"/><line style="stroke:#181818;stroke-width:1;" x1="380.123" x2="452.511" y1="555.1094" y2="555.1094"/><polygon fill="#181818" points="442.511,551.1094,452.511,555.1094,442.511,559.1094,446.511,555.1094" style="stroke:#181818;stroke-width:1;"/><line style="stroke:#181818;stroke-width:1;" x1="548.8989" x2="548.8989" y1="537.1094" y2="555.1094"/><line style="stroke:#181818;stroke-width:1;" x1="548.8989" x2="476.511" y1="555.1094" y2="555.1094"/><polygon fill="#181818" points="486.511,551.1094,476.511,555.1094,486.511,559.1094,482.511,555.1094" style="stroke:#181818;stroke-width:1;"/><line style="stroke:#181818;stroke-width:1;" x1="464.511" x2="464.511" y1="449.1406" y2="469.1406"/><polygon fill="#181818" points="460.511,459.1406,464.511,469.1406,468.511,459.1406,464.511,463.1406" style="stroke:#181818;stroke-width:1;"/><line style="stroke:#181818;stroke-width:1;" x1="221.4435" x2="142.7871" y1="393.1719" y2="393.1719"/><line style="stroke:#181818;stroke-width:1;" x1="142.7871" x2="142.7871" y1="393.1719" y2="415.1719"/><polygon fill="#181818" points="138.7871,405.1719,142.7871,415.1719,146.7871,405.1719,142.7871,409.1719" style="stroke:#181818;stroke-width:1;"/><line style="stroke:#181818;stroke-width:1;" x1="385.8546" x2="464.511" y1="393.1719" y2="393.1719"/><line style="stroke:#181818;stroke-width:1;" x1="464.511" x2="464.511" y1="393.1719" y2="415.1719"/><polygon fill="#181818" points="460.511,405.1719,464.511,415.1719,468.511,405.1719,464.511,409.1719" style="stroke:#181818;stroke-width:1;"/><line style="stroke:#181818;stroke-width:1;" x1="142.7871" x2="142.7871" y1="680.0156" y2="698.0156"/><line style="stroke:#181818;stroke-width:1;" x1="142.7871" x2="291.649" y1="698.0156" y2="698.0156"/><polygon fill="#181818" points="281.649,694.0156,291.649,698.0156,281.649,702.0156,285.649,698.0156" style="stroke:#181818;stroke-width:1;"/><line style="stroke:#181818;stroke-width:1;" x1="464.511" x2="464.511" y1="567.1094" y2="698.0156"/><line style="stroke:#181818;stroke-width:1;" x1="464.511" x2="315.649" y1="698.0156" y2="698.0156"/><polygon fill="#181818" points="325.649,694.0156,315.649,698.0156,325.649,702.0156,321.649,698.0156" style="stroke:#181818;stroke-width:1;"/><line style="stroke:#181818;stroke-width:1;" x1="303.649" x2="303.649" y1="361.1719" y2="381.1719"/><polygon fill="#181818" points="299.649,371.1719,303.649,381.1719,307.649,371.1719,303.649,375.1719" style="stroke:#181818;stroke-width:1;"/><line style="stroke:#181818;stroke-width:1;" x1="303.649" x2="303.649" y1="710.0156" y2="730.0156"/><polygon fill="#181818" points="299.649,720.0156,303.649,730.0156,307.649,720.0156,303.649,724.0156" style="stroke:#181818;stroke-width:1;"/><line style="stroke:#181818;stroke-width:1;" x1="453.1922" x2="303.649" y1="251.2344" y2="251.2344"/><line style="stroke:#181818;stroke-width:1;" x1="303.649" x2="303.649" y1="251.2344" y2="273.2344"/><polygon fill="#181818" points="299.649,263.2344,303.649,273.2344,307.649,263.2344,303.649,267.2344" style="stroke:#181818;stroke-width:1;"/><line style="stroke:#181818;stroke-width:1;" x1="592.2786" x2="741.8218" y1="251.2344" y2="251.2344"/><line style="stroke:#181818;stroke-width:1;" x1="741.8218" x2="741.8218" y1="251.2344" y2="273.2344"/><polygon fill="#181818" points="737.8218,263.2344,741.8218,273.2344,745.8218,263.2344,741.8218,267.2344" style="stroke:#181818;stroke-width:1;"/><line style="stroke:#181818;stroke-width:1;" x1="303.649" x2="303.649" y1="763.9844" y2="781.9844"/><line style="stroke:#181818;stroke-width:1;" x1="303.649" x2="510.7354" y1="781.9844" y2="781.9844"/><polygon fill="#181818" points="500.7354,777.9844,510.7354,781.9844,500.7354,785.9844,504.7354,781.9844" style="stroke:#181818;stroke-width:1;"/><line style="stroke:#181818;stroke-width:1;" x1="741.8218" x2="741.8218" y1="307.2031" y2="781.9844"/><line style="stroke:#181818;stroke-width:1;" x1="741.8218" x2="534.7354" y1="781.9844" y2="781.9844"/><polygon fill="#181818" points="544.7354,777.9844,534.7354,781.9844,544.7354,785.9844,540.7354,781.9844" style="stroke:#181818;stroke-width:1;"/><line style="stroke:#181818;stroke-width:1;" x1="522.7354" x2="522.7354" y1="219.2344" y2="239.2344"/><polygon fill="#181818" points="518.7354,229.2344,522.7354,239.2344,526.7354,229.2344,522.7354,233.2344" style="stroke:#181818;stroke-width:1;"/><line style="stroke:#181818;stroke-width:1;" x1="522.7354" x2="522.7354" y1="793.9844" y2="813.9844"/><polygon fill="#181818" points="518.7354,803.9844,522.7354,813.9844,526.7354,803.9844,522.7354,807.9844" style="stroke:#181818;stroke-width:1;"/><line style="stroke:#181818;stroke-width:1;" x1="522.7354" x2="522.7354" y1="165.2656" y2="185.2656"/><polygon fill="#181818" points="518.7354,175.2656,522.7354,185.2656,526.7354,175.2656,522.7354,179.2656" style="stroke:#181818;stroke-width:1;"/><line style="stroke:#181818;stroke-width:1;" x1="611.6226" x2="851.7671" y1="879.9531" y2="879.9531"/><polygon fill="#181818" points="847.7671,526.6094,851.7671,516.6094,855.7671,526.6094,851.7671,522.6094" style="stroke:#181818;stroke-width:1;"/><line style="stroke:#181818;stroke-width:1;" x1="851.7671" x2="851.7671" y1="153.2656" y2="879.9531"/><line style="stroke:#181818;stroke-width:1;" x1="851.7671" x2="534.7354" y1="153.2656" y2="153.2656"/><polygon fill="#181818" points="544.7354,149.2656,534.7354,153.2656,544.7354,157.2656,540.7354,153.2656" style="stroke:#181818;stroke-width:1;"/><line style="stroke:#181818;stroke-width:1;" x1="522.7354" x2="522.7354" y1="847.9531" y2="867.9531"/><polygon fill="#181818" points="518.7354,857.9531,522.7354,867.9531,526.7354,857.9531,522.7354,861.9531" style="stroke:#181818;stroke-width:1;"/><line style="stroke:#181818;stroke-width:1;" x1="522.7354" x2="522.7354" y1="121.2656" y2="141.2656"/><polygon fill="#181818" points="518.7354,131.2656,522.7354,141.2656,526.7354,131.2656,522.7354,135.2656" style="stroke:#181818;stroke-width:1;"/><line style="stroke:#181818;stroke-width:1;" x1="522.7354" x2="522.7354" y1="891.9531" y2="923.6636"/><polygon fill="#181818" points="518.7354,913.6636,522.7354,923.6636,526.7354,913.6636,522.7354,917.6636" style="stroke:#181818;stroke-width:1;"/><line style="stroke:#181818;stroke-width:1;" x1="522.7354" x2="522.7354" y1="957.6323" y2="977.6323"/><polygon fill="#181818" points="518.7354,967.6323,522.7354,977.6323,526.7354,967.6323,522.7354,971.6323" style="stroke:#181818;stroke-width:1;"/><!--SRC=[XPHTJi904CVVznJxg5UG1yzYOWaa10mqyHLe51E96AFnpO_e0Gfs4KjBhp1x8_ypsvPM82O8xlO_Cx_vgj_sEvwcLpkaZRqcOqTsf6b3Sro4DCVbc69QQVh6CSOVVZL-8afeHIcjO31cBNGRTaA9KWF_hE-h4xe_9DEqi5VGHdWmna7RaPEGeSG63QNwteLtvYkjJnmRBS0sP08DTpZQMtjLfS9L0t9ysarzH4yIS5gAoLJ4zlRqMFijhmjXHE4nZ3ZG0sHpXrVBDgArdUqfIYEtsm64JyHD_oA6pa2-1F81QPkAd0yn0y2HeHXHqhse4fJB1uKBkyH3mtMkvLb4PFsdj0VTo673Git9V25a07sPb8jWX0DXxOJJaZQj8LoY4W5pRwHd8TpLB5zG8waxhKigfqHF0ZW93q1-S3hi5w1RKyfm4IDk9lDZodOu-4owmWZ6UV8w0m_bIi4_tXRi7MCmG- -dcYTynoLFNj5gCFAOJjY53E-iG9IsFLRxXR4j2GJvGCUAdYtoHKaH65bazTafuknBGIeBwqIWzfVGwvwtcwh-Npwbpr1cicLJRcM-RuooidTQvkT7hXOe-Wyxt8KeXy9jBwOLXZ8xNp1A758-BvI8Znn3_JU3C37CmsYyTIYh9Cfl0vYxzu6-RBKxpFIMx-64MHrywhQTlV4IuJpXMpIZs_EhQIXN2wcvlTaEwB3qYKfmV7aPuXacU-3tBdu1]--></g></svg>